<svg width="40" height="40" viewBox="0 0 40 40" fill="none" xmlns="http://www.w3.org/2000/svg">
<path fill-rule="evenodd" clip-rule="evenodd" d="M18.8794 0.00152574C24.024 0.165741 29.0866 2.22343 32.9965 6.09309L32.9966 6.09317C36.8661 10.003 38.9239 15.0657 39.0461 20.2102C39.0879 21.1572 38.2648 21.9385 37.3179 21.8565C36.4546 21.8147 35.8372 21.1153 35.7954 20.2922C35.6715 16.0107 33.9434 11.7313 30.6509 8.43876C27.3999 5.14609 23.1189 3.41782 18.7974 3.25222C17.9743 3.21206 17.275 2.5529 17.2332 1.72977C17.1512 0.782849 17.9325 -0.0402747 18.8794 0.00152574ZM27.4823 26.5476L32.503 30.4992L32.5027 30.4989C33.3676 31.1982 33.6554 32.3509 33.202 33.3782C32.6265 34.7368 30.6105 37.1644 29.9513 37.8235C26.3292 41.4877 17.9739 36.9601 10.0724 29.0169C2.17085 21.0737 -2.35635 12.7602 1.26574 9.09634C1.92498 8.43884 4.35255 6.42117 5.71104 5.84565C6.69814 5.43408 7.89266 5.72185 8.59199 6.58679L12.5437 11.6075C13.3668 12.6364 13.2012 14.117 12.2141 14.9819L12.1501 15.0383L12.1501 15.0384L12.1499 15.0385C11.1561 15.9144 10.4808 16.5095 10.3202 16.67C8.79618 18.1924 10.9778 21.3211 14.3523 24.6972C17.7288 28.0717 20.8973 30.2935 22.4198 28.771C22.5603 28.6579 22.8741 28.2959 23.3472 27.7499C23.5669 27.4965 23.8209 27.2034 24.1078 26.8771C24.9711 25.8884 26.4534 25.7244 27.4823 26.5476ZM18.1401 14.53C18.0564 13.4174 19.0854 12.5943 20.1561 12.8419L20.1561 12.842C21.5966 13.1715 22.9551 13.9127 24.066 15.0236C25.1769 16.1345 25.918 17.493 26.2074 18.8932C26.4533 19.9623 25.6302 20.9912 24.5193 20.9092C23.7782 20.8674 23.201 20.3739 23.037 19.6745C22.8312 18.8112 22.3795 17.9881 21.7204 17.3289C21.0628 16.6714 20.2397 16.2181 19.3748 16.0123C18.7156 15.8065 18.1819 15.2293 18.1401 14.53ZM31.0205 21.4029C32.0076 21.4848 32.8308 20.6215 32.7488 19.6328C32.461 16.3403 31.0607 13.0898 28.5513 10.5784C26.0401 8.0672 22.7893 6.66854 19.4969 6.38085C18.5097 6.29885 17.6448 7.122 17.7268 8.1091C17.7686 8.8904 18.3859 9.54957 19.2091 9.63155C21.8023 9.83733 24.3117 10.9482 26.2476 12.9241C28.2235 14.8999 29.2926 17.4093 29.5402 19.9626C29.5402 20.7439 30.1977 21.3613 31.0208 21.4031L31.0205 21.4029Z" fill="#36D9A0"/>
</svg>
