<svg width="45" height="45" viewBox="0 0 45 45" fill="none" xmlns="http://www.w3.org/2000/svg">
<path fill-rule="evenodd" clip-rule="evenodd" d="M22.5 45C34.9266 45 45 34.9261 45 22.5C45 10.0739 34.9261 0 22.5 0C10.0739 0 0 10.0739 0 22.5C0 34.9261 10.0739 45 22.5 45ZM12.1619 13.0735H32.8386C33.6783 13.0735 34.3596 13.7548 34.3596 14.5944C34.3596 15.4341 33.6783 16.1154 32.8386 16.1154L12.1619 16.1134C11.3222 16.1134 10.6409 15.4321 10.6409 14.5925C10.6429 13.7548 11.3222 13.0735 12.1619 13.0735V13.0735ZM12.1619 20.9789H32.8386C33.6783 20.9789 34.3596 21.6603 34.3596 22.4999C34.3596 23.3395 33.6783 24.0209 32.8386 24.0209H12.1619C11.3222 24.0209 10.6409 23.3395 10.6409 22.4999C10.6429 21.6603 11.3222 20.9789 12.1619 20.9789ZM12.1619 28.8844H32.8386C33.6783 28.8844 34.3596 29.5657 34.3596 30.4053C34.3596 31.245 33.6783 31.9263 32.8386 31.9263L12.1619 31.9243C11.3222 31.9243 10.6409 31.243 10.6409 30.4033C10.6429 29.5657 11.3222 28.8844 12.1619 28.8844V28.8844Z" fill="#36D9A0"/>
</svg>
