<svg xmlns="http://www.w3.org/2000/svg" width="120" height="120" viewBox="0 0 120 120">
    <path d="M87.783 71.012c1.151 0 3.686 2.221 3.686 3.027v4.125c-.118 1.095-1.026 1.543-1.831 2.075.758.62 1.504 1.253 1.88 2.319v4.809h-4.175v-4.15c0-.52-.526-1.318-.976-1.318h-9.52v-3.662h9.471c2.158 0 1.997-3.612 0-3.612H76.115v12.498h-4.15V71.012zm-71.877.096l4.242.029 9.538 16.126-4.45-.056-7.051-11.828-3.553 6.154h6.32l1.96 3.396H12.35l-1.379 2.388L6 87.303l9.906-16.195zm86.314 0l4.242.029L116 87.263l-4.45-.056-7.051-11.828-3.553 6.154h6.32l1.96 3.396H98.664l-1.379 2.388-4.971-.014 9.906-16.195zm-47.88-.072V82.68l1.417 1.416h8.201l1.245-1.587V71.061h4.149v11.958l-3.66 4.211H54.026l-3.66-3.521v-12.67l3.976-.003zm-6.115.038v3.487H34.796c-.66.18-1.007.65-1.07 1.38v6.732c0 .501.54 1.312 1.381 1.312h13.084v3.176H33.347c-1.72-.111-3.694-2.198-3.694-3.9v-8.182c0-1.47 2.039-4.005 4.419-4.005h14.153zM60.905 29l.079.212h3.672c9.487 2.169 13.285 8.35 13.726 14.855l.018.296v4.924c-.913 6.325-3.5 10.827-8.902 13.106l.048.342-.145-.302c-2.45 1.016-5.474 1.58-9.176 1.653-2.236.019-5.572-.41-8.78-1.676l-.031.072.008-.081c-4.657-1.846-9.036-5.462-9.372-12.045l-.113-7.624c1.463-8.533 7.334-12.662 13.73-13.52h3.581l.066-.184.001.184h1.59V29zm.342 16.342h-2.16l-7.178 16.034c2.686 1.207 5.622 1.468 8.203 1.584 3.587-.167 6.4-.857 8.609-1.956l-7.474-15.662zm-2.48-14.779h-2.748c-5.59 1.421-10.39 4.71-12.056 12.169v6.935c1.211 6.6 4.17 9.881 7.589 11.542l1.624-14.958 5.591-15.688zm5.551 0h-2.827l5.667 15.12 2.106 15.037c4.456-2.463 6.285-6.701 7.096-11.63v-4.544c-.372-6.08-3.674-11.74-12.042-13.983zm-3.413 0h-1.579l.102 12.619h1.478l-.001-12.619z"/>
</svg>
