<svg xmlns="http://www.w3.org/2000/svg" width="120" height="120" viewBox="0 0 120 120">
    <path d="M118.774 52.464l-1.115 1.882c-.314.732-1.116.628-1.116.628l-27.473-.002c1.066-1.843 1.54-3.066 1.54-3.066l27.955-.07c.628 0 .209.627.209.627zm-4.88 5.717s-.14.21-.628.14l-25.51-1.252c.268-.397.516-.779.743-1.145l26.79.025-1.395 2.232zm-2.964 2.51c-.244.627-.697.661-.697.661l-23.975-2.227c.295-.375.572-.745.835-1.107l24.57 1.14-.732 1.533zM100.273 64.1l-15.265-3.467c.204-.232.401-.464.593-.694l21.983 2.145-7.311 2.016zm-6.792 1.873l-9.606-4.106c.165-.172.329-.345.488-.518l14.06 3.262-4.942 1.362zm-4.858 1.34l-6.3-3.933c.288-.265.568-.53.839-.795l8.918 3.775-3.457.953zm-1.738 2.722l-6.565-4.961c.45-.35.883-.707 1.299-1.068l6.41 4.04-1.144 1.989zm-.615.82c-.131.092-.226.118-.226.118l-3.125.807-4.687-5.203c.472-.312.93-.632 1.371-.959l6.749 5.175-.082.063zm-7.225 1.924l-3.188-4.777c.554-.3 1.092-.613 1.61-.935L82 72.017l-2.955.762zm-4.012 1.036l-1.955-4.475c.668-.282 1.314-.582 1.938-.898l3.12 4.573-3.103.8zm-4.216 1.088l-.807-4.445c.778-.24 1.531-.503 2.259-.788l1.928 4.36-3.38.873zm-4.224 1.09l-.03-4.674c.9-.175 1.77-.381 2.61-.616l.809 4.415-3.39.874zm-2.444-5.068l-.644-8.508h1.673l1.597 8.056c-.95.204-1.833.35-2.625.452zm-2.716 1.013c1.495-.075 2.922-.234 4.283-.465l.005 4.101-4.288-3.636zm-.979-.775l-.009-8.746h2.17l.699 8.605c-1.314.134-2.308.148-2.86.14zm19.52-8.746h2.147c-.425.403-.851.787-1.281 1.154l-.866-1.154zm-2.797 0h1.7l1.268 1.729c-.42.337-.842.66-1.264.966l-1.704-2.695zm-2.588 0h1.49l2.105 3.186c-.494.337-.988.654-1.48.952l-2.115-4.138zm-2.824 0h1.777l2.406 4.58c-.583.33-1.164.635-1.74.916l-2.443-5.496zm-1.449 7.077c-.905.3-1.78.544-2.61.744l-1.614-7.821h1.778l2.446 7.077zm-1.479-7.077h2.012l2.595 5.856c-.786.357-1.56.671-2.316.947l-2.29-6.803zm-31.633-.89v-5.648h45.332v5.648H37.204zm19.406 9.416l.75-8.526h2.17l.017 8.72c-1.01-.029-1.99-.094-2.937-.194zm-2.43 4.631l.004-4.1c1.361.23 2.788.388 4.283.464l-4.288 3.636zm-1.052-5.167l1.644-7.99h1.699l-.694 8.43c-.912-.117-1.795-.265-2.649-.44zm.18 5.585l-3.39-.874.81-4.415c.84.235 1.71.441 2.609.616l-.03 4.673h.001zm-4.224-1.09l-3.38-.872 1.928-4.36c.728.285 1.48.548 2.259.787l-.807 4.446zm-7.319-1.888l3.119-4.572c.625.316 1.27.616 1.938.898l-1.954 4.475-3.103-.8zm-3.864-.998l4.533-4.949c.519.322 1.056.634 1.61.935l-3.188 4.777-2.954-.763zm-4.043-1.043s-.096-.026-.227-.117l-.081-.063 6.747-5.175c.442.327.9.647 1.373.96l-4.688 5.202-3.124-.807zm5.292-7.415c-.823-.68-1.32-1.14-1.32-1.14h2.172l-.852 1.14zm1.927 1.494c-.452-.329-.87-.65-1.247-.947l1.321-1.688h1.647l-1.721 2.635zm2.207 1.487c-.523-.321-1.028-.656-1.504-.986l2.117-3.136h1.49l-2.103 4.122zm2.416 1.315c-.55-.257-1.097-.543-1.63-.848l2.336-4.589h1.62l-2.325 5.437zm6.38-5.437h1.777l-1.572 7.805c-.937-.218-1.84-.47-2.706-.75l2.5-7.055zm-3.297 6.785c-.807-.284-1.582-.595-2.327-.926l2.512-5.859h2.144l-2.33 6.785zM31.87 68.045l6.41-4.039c.417.361.85.718 1.3 1.068l-6.565 4.961-1.145-1.99zm-4.05-1.684l8.917-3.776c.272.265.551.53.84.795l-6.3 3.933-3.457-.952zm-6.343-1.75l14.06-3.262c.16.173.323.346.49.519l-9.609 4.106-4.941-1.363zm-9.162-2.527l21.985-2.145c.191.23.389.462.593.695L19.627 64.1l-7.31-2.016zM8.97 60.691l-.733-1.534 24.571-1.139c.262.362.54.732.835 1.107L9.667 61.352s-.454-.034-.698-.662zm-2.336-2.37c-.487.07-.627-.14-.627-.14L4.612 55.95l26.79-.026c.228.366.475.749.742 1.146l-25.51 1.25zm-3.277-3.347s-.802.105-1.115-.627l-1.116-1.883s-.418-.627.21-.627l27.955.07s.474 1.223 1.54 3.066l-27.474.001zm33.05 4.8l.014 1.39c-.421-.442-.818-.883-1.19-1.32l1.175-.07zM33.049 57c-.255-.373-.492-.735-.71-1.08h4.028l.01 1.006L33.05 57zm3.337.815l.01 1.098-1.834.125c-.297-.37-.577-.735-.84-1.093l2.664-.13zm12.704-5.978c4.671 0 4.253 3.137 4.253 3.137l-21.587-.015c-1.087-1.869-1.559-3.122-1.559-3.122H49.09zm34.433 5.09l.01-1.008h4.03c-.22.346-.455.708-.711 1.081l-3.329-.074zm1.147 2.918c-.373.436-.77.877-1.19 1.319l.014-1.39 1.177.07zm-1.166-.931l.01-1.099 2.665.13c-.263.358-.544.723-.84 1.093l-1.835-.125zM70.81 51.837h18.893s-.472 1.254-1.559 3.122l-21.587.015s-.417-3.137 4.253-3.137zM118.595 51H70.631c-5.158 0-4.88 3.973-4.88 3.973H54.25s.278-3.973-4.881-3.973H1.405s-2.231 0-.976 2.022l1.115 1.882s.558 1.045 1.743 1.045h.35l1.742 2.72s.488.767 1.255.627l.628-.07.975 2.022s.419.697.976.837l21.751 6.135 1.255 2.37s.558 1.114 1.604 1.324l19.52 5.02s.418.14.907-.21l5.472-4.743.418.01 5.612 4.734c.488.349.905.21.905.21l19.521-5.02c1.045-.21 1.604-1.325 1.604-1.325l1.255-2.37 21.749-6.135c.558-.14.976-.837.976-.837l.977-2.021.626.069c.767.14 1.256-.627 1.256-.627l1.743-2.72h.348c1.185 0 1.743-1.045 1.743-1.045l1.115-1.882c1.255-2.022-.975-2.022-.975-2.022zM39.06 58.992l.641-1.526.722 1.526H39.06zm.882-2.329h-.16l-1.846 4.257h.401l.642-1.607h1.525l.642 1.607h.642l-1.846-4.257zm4.253 3.936c-.24.241-.642.401-1.043.401l-.562-.08-.4-.32.079-.483h.08c.241.401.562.642.963.642.24 0 .402-.08.562-.32.16-.16.24-.402.24-.644 0-.24-.08-.401-.24-.562l-.642-.321c-.321-.08-.562-.24-.642-.321-.24-.24-.321-.482-.321-.723 0-.402.16-.643.401-.884.24-.24.481-.321.882-.321.402 0 .642.08.884.32l-.161.483c-.16-.401-.402-.562-.802-.562-.241 0-.402.08-.482.241-.16.08-.24.241-.24.482 0 .24.08.482.24.643l.723.24c.24.161.48.322.641.402.161.16.242.401.242.723 0 .401-.161.723-.402.964zm3.931-3.694l.08.24-1.283-.08v3.855h-.562v-3.855l-1.364.08.08-.24-.08-.16h3.21l-.08.16zm3.772 3.132c-.32.481-.803.723-1.364.723-.401 0-.802-.16-1.123-.482-.321-.322-.482-.804-.482-1.366 0-.561.16-1.044.401-1.446.321-.4.723-.642 1.284-.642.562 0 .963.241 1.284.642.24.322.32.804.32 1.366.081.402-.08.803-.32 1.205zm.24-2.891c-.4-.322-.962-.483-1.604-.483-.642 0-1.204.161-1.605.563-.4.401-.642.964-.642 1.606 0 .642.241 1.205.642 1.606.401.402.963.562 1.605.562.723 0 1.283-.24 1.685-.642.401-.402.642-.884.642-1.606 0-.722-.24-1.205-.722-1.606zm5.135 3.774h-.24l-2.888-3.293h-.08v3.293h-.322v-4.176h.242l2.888 3.132v-3.132h.4v4.176zm3.21-4.176c.724 1.365 1.286 2.41 1.767 3.212l1.765-3.212h.08l.482 4.176h-.562l-.32-3.132c-.723 1.365-1.285 2.41-1.526 3.052h-.08l-.401-.642-1.205-2.41-.24 3.132h-.481l.642-4.176h.08zm5.699 2.248l.64-1.526.643 1.526H66.18zm.881-2.329h-.16l-1.925 4.257h.482l.56-1.607h1.605l.643 1.607h.562l-1.767-4.257zm2.97 2.009v-1.688h.882c.482.081.723.322.723.804l-.241.563c-.161.08-.321.16-.563.24l-.801.08zm.882.16c.32-.08.562-.16.802-.321.241-.24.402-.482.402-.804 0-.642-.402-.963-1.285-.963H69.55v4.176h.482v-2.008h.24l1.605 2.008h.642l-1.605-2.088zm2.97 2.088v-3.855l-1.285.081v-.402h3.049v.402l-1.204-.08v3.854h-.56zm3.048-4.176v4.176h-.562v-4.176h.562zm4.735 4.176h-.24l-2.89-3.293h-.08v3.293h-.321v-4.176h.16l2.97 3.132v-3.132h.4v4.176z"/>
</svg>
