<svg xmlns="http://www.w3.org/2000/svg" width="120" height="120" viewBox="0 0 120 120">
    <path d="M34.3 46h.049c3.052.103 5.921 1.19 8.242 3.06 2.199-1.773 4.9-2.846 7.792-3.037l.235-.013.203-.009.06-.001h.877c3.052.103 5.921 1.19 8.242 3.06 2.2-1.773 4.9-2.846 7.792-3.037l.235-.013.203-.009.06-.001h.878c3.051.103 5.92 1.19 8.241 3.06 2.2-1.773 4.9-2.846 7.793-3.037l.234-.013.203-.009.06-.001h.878c7.574.253 13.547 6.533 13.421 14.11-.126 7.578-6.305 13.655-13.884 13.655-3.213 0-6.259-1.098-8.704-3.067-2.324 1.872-5.202 2.961-8.26 3.06l-.23.005-.215.002c-3.213 0-6.259-1.098-8.704-3.067-2.324 1.872-5.202 2.961-8.261 3.06l-.23.005-.215.002c-3.213 0-6.258-1.098-8.704-3.067-2.323 1.872-5.201 2.961-8.26 3.06l-.23.005-.215.002c-7.579 0-13.758-6.077-13.884-13.654-.125-7.502 5.728-13.732 13.194-14.1l.227-.01.049-.001h.829zm-.028 2.902h-.774l-.157.006c-5.789.286-10.351 5.025-10.438 10.8l-.001.175.001.18c.099 5.934 4.89 10.704 10.792 10.8h.371c2.257-.037 4.4-.757 6.181-2.026l.171-.124.1-.076-.093-.116c-1.792-2.25-2.856-5.018-2.999-7.961l-.01-.233-.005-.216c-.053-3.194.983-6.238 2.876-8.697l.134-.17.097-.122-.1-.076c-1.657-1.228-3.635-1.972-5.742-2.123l-.218-.014-.186-.007zm17.409 0h-.77l-.162.006c-2.123.105-4.125.813-5.807 2.008l-.172.125-.108.08.1.125c1.89 2.375 2.964 5.32 3.009 8.43l.001.222-.002.213c-.05 3.034-1.079 5.902-2.892 8.25l-.137.175-.08.098.094.071c1.76 1.308 3.879 2.067 6.113 2.15l.217.007.199.002.191-.002c2.257-.036 4.4-.756 6.181-2.025l.172-.124.1-.076-.093-.116c-1.793-2.25-2.856-5.018-3-7.961l-.01-.233-.004-.216c-.054-3.194.982-6.238 2.875-8.697l.134-.17.097-.122-.1-.076c-1.657-1.228-3.635-1.972-5.742-2.123l-.218-.014-.186-.007zm17.41 0h-.771l-.161.006c-2.124.105-4.126.813-5.807 2.008l-.173.125-.107.08.1.125c1.888 2.375 2.964 5.32 3.008 8.43l.001.222-.002.213c-.05 3.034-1.078 5.902-2.892 8.25l-.137.175-.08.098.094.071c1.76 1.308 3.879 2.067 6.114 2.15l.216.007.199.002.192-.002c2.257-.036 4.399-.756 6.18-2.025l.172-.124.1-.076-.093-.116c-1.792-2.25-2.856-5.018-3-7.961l-.009-.233-.005-.216c-.053-3.194.982-6.238 2.876-8.697l.133-.17.098-.122-.1-.076c-1.657-1.228-3.636-1.972-5.742-2.123l-.219-.014-.186-.007zm17.41 0h-.772l-.161.006c-2.123.105-4.125.813-5.807 2.008l-.173.125-.107.08.1.125c1.889 2.375 2.964 5.32 3.008 8.43l.002.222-.002.213c-.05 3.034-1.079 5.902-2.892 8.25l-.138.175-.08.098.095.071c1.76 1.308 3.88 2.067 6.123 2.15l.218.007.199.002c5.995 0 10.883-4.807 10.983-10.802.099-5.934-4.531-10.862-10.438-11.154l-.158-.006zm-43.91 4.276l-.04.052c-1.475 1.936-2.28 4.323-2.239 6.832.04 2.41.858 4.684 2.277 6.52 1.426-1.847 2.24-4.115 2.28-6.52.042-2.532-.778-4.94-2.278-6.884zm17.41 0l-.04.052c-1.476 1.936-2.281 4.323-2.24 6.832.04 2.41.859 4.684 2.277 6.52 1.426-1.847 2.24-4.115 2.28-6.52.042-2.532-.778-4.94-2.278-6.884zm17.409 0l-.04.052c-1.476 1.936-2.28 4.323-2.239 6.832.04 2.41.858 4.684 2.276 6.52 1.427-1.847 2.24-4.115 2.28-6.52.043-2.532-.778-4.94-2.277-6.884z"/>
</svg>
