<svg xmlns="http://www.w3.org/2000/svg" width="120" height="120" viewBox="0 0 120 120">
    <path d="M59 20.141c10.378 0 20.14 4.044 27.477 11.382C93.815 38.86 97.86 48.623 97.86 59c0 21.428-17.431 38.859-38.86 38.859-10.377 0-20.138-4.044-27.476-11.382C24.185 79.14 20.14 69.377 20.14 59c0-10.377 4.044-20.139 11.382-27.477C38.86 24.185 48.623 20.14 59 20.14zm0 2c-9.847 0-19.1 3.833-26.063 10.796C25.974 39.9 22.141 49.153 22.141 59c0 9.847 3.833 19.1 10.796 26.063C39.9 92.026 49.153 95.859 59 95.859c20.323 0 36.859-16.536 36.859-36.86 0-9.846-3.833-19.099-10.796-26.062C78.1 25.974 68.847 22.141 59 22.141zm0 13.673c12.805 0 23.186 10.38 23.186 23.186 0 12.805-10.38 23.186-23.186 23.186-12.805 0-23.186-10.38-23.186-23.186 0-12.805 10.38-23.186 23.186-23.186zM80.695 59H59v21.695c11.981 0 21.695-9.713 21.695-21.695zM59 37.305c-11.982 0-21.695 9.714-21.695 21.695H59V37.305zm21.885-5.324l1.479 1.825-3.754 4.91 5.736-2.462 1.586 1.958-3.601 5.1 5.583-2.652 1.478 1.826-8.787 4.26-1.735-2.16 3.456-5.054-.02-.025-5.663 2.33-1.752-2.146 5.994-7.71zm-43.027 1.871c.396.333.563.442 1.044 1.318.113.311.2.875-.013 1.427 1.115-.692 2.303-.466 3.072.28 1.135 1.104 1.018 2.374.01 3.66l-.126.154-4.917 5.86L29.6 40.4l4.663-5.556c.964-1.15 2.314-2.068 3.596-.993zm.613 4.62l-.072.076-2.942 3.507 1.83 1.536 2.92-3.479c.387-.462.33-1.181-.235-1.656-.466-.391-1.143-.317-1.5.017zm-3.115-2.329l-.076.077-2.8 3.337 1.732 1.454 2.769-3.3c.348-.414.347-1.031-.172-1.466-.437-.368-1.1-.407-1.453-.102zm21.213-11.46l2.6 6.805 2.601-6.805h2.874v9.554h-1.913v-6.67l-2.517 6.67h-2.09l-2.516-6.67v6.67h-1.913v-9.554h2.874z"/>
</svg>
