<svg xmlns="http://www.w3.org/2000/svg" width="120" height="120" viewBox="0 0 120 120">
    <path d="M15 14.956h90v90H15v-90zm3.095 3.095v83.809h83.81V18.05h-83.81zM60 24.783c15.468 0 28.02 12.552 28.02 28.02S75.469 80.824 60 80.824s-28.02-12.552-28.02-28.02c0-15.467 12.552-28.02 28.02-28.02zm0 2.965c-13.836 0-25.044 11.22-25.044 25.056 0 13.835 11.208 25.044 25.044 25.044S85.044 66.64 85.044 52.804c0-13.837-11.208-25.056-25.044-25.056zM74.748 66.76c-.533 0-.966-.433-.966-.966 0-.533.433-.966.966-.966.533 0 .965.433.965.966 0 .533-.432.966-.965.966zm0-.108c.468 0 .853-.384.853-.864 0-.468-.385-.852-.853-.852-.468 0-.852.384-.852.852 0 .48.384.864.852.864zm.156-.816l.324.504h-.157l-.311-.504h-.24v.504h-.132v-1.091h.467c.096 0 .192.011.264.059.085.036.132.132.132.228 0 .217-.155.288-.347.3zm-.384-.108h.204c.157 0 .384.025.384-.192 0-.168-.144-.192-.276-.192h-.312v.384zm-8.292-7.848c-1.416 6.612-5.796 12.36-6.048 12.744h.012c-.12-.276-2.976-4.02-4.86-8.892-1.416 6.624-5.796 12.371-6.048 12.756h.012c-.18-.42-6.492-8.545-6.492-16.656V43.816h10.908v-3.853h10.896V36.1h12.96v14.005c0 8.112-6.18 16.2-6.48 16.656h.013c-.121-.276-2.99-4.008-4.873-8.88zm-21.372-12v12.168c0 6.132 4.176 11.736 4.44 12.168.252-.432 4.416-6.036 4.416-12.168V45.88h-8.856zm10.908-3.864v12.168c0 6.144 4.176 11.748 4.428 12.168.252-.42 4.416-6.024 4.416-12.168V42.016h-8.844zm10.896-3.864V50.32c0 6.157 4.176 11.748 4.428 12.168.264-.42 4.428-6.011 4.428-12.168V38.152H66.66zm.456.455h7.944v9.757c0 2.124-.072 3.396-.144 4.116l-7.8-13.873zm0 5.736l6.768 11.905c-.9 2.412-1.932 4.056-2.783 5.425-1.896-2.833-3.985-7.213-3.985-11.149v-6.18zM56.22 42.472h7.932v9.756c0 2.124-.072 3.396-.144 4.116L56.22 42.472zm0 5.724L62.976 60.1c-.9 2.412-1.932 4.068-2.784 5.436-1.872-2.844-3.972-7.212-3.972-11.148v-6.192zm-10.908-1.86h7.944v9.756c0 2.124-.072 3.396-.144 4.104l-7.8-13.86zm0 5.724l6.768 11.904c-.9 2.412-1.932 4.068-2.784 5.436-1.884-2.844-3.984-7.224-3.984-11.148V52.06zM24.708 85.768c5.244.084 7.32.06 11.304 0 2.46-.036 3.672.444 3.672 2.195 0 1.765-1.405 2.257-2.905 2.413-.36.035-.276.204-.012.227 2.124.169 3.504.396 3.504 2.365 0 1.968-1.572 3.036-4.752 3-4.44-.048-6.12-.06-10.896-.012v-.636c1.536 0 2.412-.42 2.412-2.124v-4.908c0-1.26-.264-1.872-2.329-1.872v-.648h.002zm5.052 4.38c2.292.036 3.348.096 4.776.012 1.356-.073 2.112-.732 2.112-1.968 0-1.224-1.032-1.656-2.232-1.656-1.224 0-1.8-.025-3.048-.025-1.247 0-1.536.48-1.572 1.08-.036.59-.036 1.176-.036 2.557zm.012 1.008s-.036 1.067-.012 2.34c.012 1.272.528 1.56 1.608 1.608 1.188.06 2.232.083 3.612 0 1.044-.048 2.28-.696 2.28-2.16 0-1.452-1.104-1.716-2.46-1.788-1.404-.084-3.528-.06-5.028 0zm10.992-5.388h5.292c-.168 3.588-.264 5.268-.264 6.96 0 1.68.744 2.567 2.964 2.567 2.208 0 3.66-.814 3.768-2.567.108-1.92.108-3.36.108-4.584 0-1.236-.984-1.668-2.328-1.668v-.708h5.22c-.048 3.265-.168 5.436-.168 7.176 0 1.753.131 2.22 2.112 2.22v.792h-4.764V94.6c-1.068 1.248-2.364 1.536-4.332 1.536s-5.352-.252-5.34-3.096c.024-2.832.096-4.008.096-5.112 0-1.092-.72-1.488-2.365-1.488v-.672h.001zM65.28 95.956h-7.092v-.804c1.62 0 2.16-.516 2.16-1.668v-5.423c0-1.225-.732-1.62-2.076-1.62v-.673h6.925v.673c-1.345 0-2.089.395-2.089 1.62v5.423c0 1.152.553 1.668 2.172 1.668v.804zm.972-5.076c0-3.444 1.668-5.388 7.2-5.388 3.444 0 5.004.396 6.096.623v2.82h-2.064c0-1.74-1.14-2.651-4.032-2.651-2.892 0-4.188.96-4.188 4.62 0 3.659 1.38 4.463 4.188 4.463s4.104-.936 4.104-3.06h2.28c0 2.209-1.932 3.805-6.384 3.805s-7.2-1.116-7.2-5.232zm14.712-5.112h6.876v.672c-1.488 0-2.063.336-2.063 1.523v2.977c1.14-.853 3.18-2.304 3.983-2.892.792-.588 1.344-1.656-.756-1.656v-.624h6.564v.647c-3.204.457-4.656 1.861-6.516 3.301 2.22 1.848 4.031 3.456 5.1 4.355 1.056.889 1.764 1.224 2.388 1.224v.661h-4.512s-4.056-3.684-4.464-4.092c-.42-.396-.708-.635-1.272-.216-.288.204-.492.36-.492.36v1.608c0 1.212 1.175 1.668 2.352 1.668v.672h-7.489v-.696c1.25 0 2.413-.204 2.413-1.608v-5.689c0-1.295-.72-1.523-2.113-1.523v-.672h.001zM98.676 95.98c-.258 0-.506-.101-.688-.284-.182-.182-.285-.43-.284-.688 0-.527.432-.972.972-.972.528 0 .96.445.96.972.002.257-.098.503-.278.685-.18.182-.426.286-.682.287zm0-.12c.468 0 .853-.372.853-.852 0-.469-.385-.853-.853-.853-.48 0-.852.384-.852.853 0 .48.373.852.852.852zm.157-.804l.324.492H99l-.312-.492h-.24v.492h-.132v-1.08h.468c.096 0 .18 0 .264.048.084.048.12.144.12.24 0 .215-.143.288-.335.3zm-.385-.108h.204c.144 0 .384.024.384-.192 0-.167-.144-.192-.276-.192h-.312v.384z"/>
</svg>
