<svg xmlns="http://www.w3.org/2000/svg" width="120" height="120" viewBox="0 0 120 120">
    <path d="M51.53 69.75c3.86 4.741-16.21 12.082-23.886 11.036-9.109 10.442-1.364 12.391 11.11 4.223 4.093-3.843 8.038-5.346 11.27-4.337l-5.352 5.861c-1.21 2.531 1.13 1.376 3.787-.904 3.345-4.411 7.03-5.49 9.922-5.088 1.42-1.538 3.038-2.882 4.457-4.42h2.046c-3.382 3.247-6.878 6.358-9.986 9.939-.591 1.748.823 2.007 3.804-.926l4.822-4.378 1.813-.021-5.164 5.148c-1.156 2.077.842 2.207 4.442.302.958-4.016 7.773-10.57 10.454-10.656 2.106 1.353-3 7.017-9.045 10.558-.842 2.272 1.643 1.855 5.517.328.693-3.77 7.852-10.501 9.975-10.295 2.61.52-1.318 5.86-8.393 10.058-.708 2.703 2.11 1.437 4.987-.828 3.425-3.956 7.467-5.874 11.526-4.597l-5.061 5.684c-.728.873.171 2.067 1.676.732 2.59-2.53 7.513-8.898 11.902-6.939 1.175 1.002.056 2.625-1.828 3.594-.45.11-.583-.007-.396-.35 1.314-1.057 1.919-1.971 1.26-2.629-3.274-.962-10.67 6.57-5.549 7.08 2.125-.226 4.104-1.022 5.982-2.208l.324.631c-4.183 2.915-10.402 3.944-9.513-.526-2.828 3.57-5.408 3.224-5.272.886-3.138 2.937-6.036 2.142-5.055-.674-3 3.462-6.097 3.029-6.683 1.057-4.55 2.255-6.642 2.038-6.696-.23-4.035 2.824-7.259 2.257-5.959-1.14-3.098 3.682-6.042 3.636-5.187.506-4.091 3.71-6.884 2.66-5.17-.192-2.495 2.739-5.935 3.879-5.19.75-3.66 2.87-5.914 1.822-4.654-.887-6.807 6.691-23.236 9.061-13.245-5.138-10.65.099-9.425-11.1 8.696-10.976l-.045.657c-11.589-.658-19.11 9.106-7.672 9.285 9.338-7.255 21.068-12.985 25.23-9.976zm48.515 16.219c.185 0 .36.032.523.097.163.066.307.161.433.285.124.122.22.261.286.42.067.159.1.326.1.503 0 .178-.032.345-.098.5-.065.156-.161.295-.288.415-.13.126-.278.223-.443.29-.165.067-.336.1-.513.1-.18 0-.35-.032-.512-.098-.161-.066-.306-.162-.433-.288-.128-.123-.225-.264-.293-.422-.067-.158-.1-.323-.1-.497 0-.171.034-.337.103-.497.07-.162.169-.306.298-.433.123-.122.264-.215.424-.28.16-.063.331-.095.513-.095zm0 .145c-.158 0-.309.029-.452.086-.142.057-.269.14-.381.249-.116.115-.205.243-.267.385-.062.141-.092.289-.092.442 0 .153.03.3.09.44.061.14.148.265.262.376.114.11.243.195.388.254.144.059.295.088.452.088.159 0 .312-.03.46-.089.146-.06.278-.145.395-.256.112-.106.196-.227.254-.364.058-.137.087-.285.087-.446 0-.158-.03-.309-.088-.45-.058-.14-.143-.265-.253-.373-.115-.11-.245-.195-.39-.253-.147-.06-.301-.089-.465-.089zm.168.363c.132 0 .243.036.334.107.091.071.136.17.136.293 0 .158-.068.27-.206.338.085.026.137.074.155.144.02.07.029.168.029.295 0 .04.001.077.005.112.003.036.011.065.024.088.012.023.03.038.052.045v.032h-.25c-.018-.054-.027-.142-.027-.264 0-.122-.015-.212-.046-.27-.03-.058-.1-.087-.21-.087h-.507v.621h-.2v-1.454h.711zM87.44 81.068c-2.755.041-6.85 2.912-8.005 5.413-.373.903-.206 1.445.978 1.194 1.5-.317 3.909-2.54 7.027-6.607zm-30.084-.046c-2.755.041-6.85 2.912-8.005 5.413-.372.902-.206 1.444.979 1.194 1.5-.318 3.909-2.54 7.026-6.607zm-9.328-.046c-2.755.04-6.85 2.911-8.005 5.413-.373.902-.206 1.444.978 1.193 1.5-.317 3.91-2.54 7.027-6.606zm52.203 5.67h-.528v.494h.511c.085 0 .15-.023.193-.07.043-.046.067-.104.071-.174.003-.07-.015-.13-.056-.177-.04-.048-.104-.072-.19-.072zM81.347 76.575c-3.457 2.169-7.051 5.762-7.993 8.56 6.284-4.4 9.17-7.83 7.993-8.56zm-7.12-.092c-3.457 2.17-7.052 5.763-7.993 8.561 6.284-4.4 9.17-7.83 7.992-8.56zm-45.65 3.494c8.946 1.164 23.85-6.898 22.26-9.476-1.862-2.248-10.35.242-22.26 9.476zm38.13-1.74c.392.383.344 1.053-.107 1.49-.452.438-1.14.482-1.533.098-.392-.383-.344-1.052.107-1.49.451-.438 1.14-.482 1.533-.098zM109.9 25.042l-7.312 9.943-3.052 16.406-.001.009c-.313 1.355-1.182 2.426-2.416 3.278-1.215.838-2.784 1.462-4.523 1.935l-.015.003-32.456 6.236-33.536-5.74-.024-.006c-1.726-.533-3.185-1.326-4.3-2.132-1.464-1.058-2.352-2.163-2.493-2.755l-.017-.089-2.9-17.149-6.812-9.553.383-.003 49.303-.33.193-.001H60.127h-.002l49.383-.052h.393zM20.373 52.604l.024.036c.355.535 1.075 1.27 2.097 2.009 1.084.783 2.5 1.553 4.172 2.072l33.064 5.658v-.389c-14.325-3.373-36.156-5.157-37.92-8.856H21.8c-.476-.027-.95-.204-1.426-.53zm78.25-.007l-.072.056c-.351.277-.663.458-1.007.557-2 3.636-23.193 5.337-37.418 8.671v.494L92.5 56.226c1.697-.462 3.225-1.069 4.398-1.878.726-.5 1.316-1.08 1.726-1.751zM59.729 28.874H16.376l4.32 6.005.023.055 3.073 17.494-.021.003c.031.072.087.17.173.288.365.503 1.233 1.333 2.902 2.105 5.374 1.217 10.827 2.362 16.35 3.444 5.456 1.068 10.97 2.072 16.534 3.022V28.874zm43.133 0H60.125v1.644H73.81v5.595H60.125v3.203H73.65v1.642H60.125v2.864h.051l36.175.098h.154l-.023.153-.576 3.842h-.115l-35.615-.236h-.05v.95l35.502.028h.155l-.024.153-.4 2.58h-.115l-35.119-.144v1.325l26.424-.286v-.006h.153l8.146-.042v.133l.133.004c-.068 1.968-7.988 3.418-18.301 5.306-5.128.938-10.85 1.986-16.486 3.248l-.069.015v.343l1.843-.343c1.384-.256 2.78-.512 4.175-.768 9.038-1.66 18.09-3.32 27.014-5.602.538-.137 1.154-.519 1.646-1.091.415-.483.739-1.1.85-1.82v-.003l2.838-16.46.022-.053 4.35-6.272zm-8.178 23.66l-8.058.84c-.096.152-.222.297-.379.435-.447.394-1.146.732-2.098 1.015l-.014.004L60.3 59.09v1.542c5.591-1.249 11.254-2.285 16.333-3.215 9.867-1.806 17.515-3.206 18.052-4.884zm-49.274-2.03l13.722.042v8.514L45.59 56.79l-.18-6.287zm-21.074 1.718l.197.001 19.762.117h.133v1.907h-.133c-2.118 0-4.237.043-6.357.098l-2.12.056c-2.827.078-5.653.155-8.484.155l-.035-.005c-.757-.211-1.376-.494-1.857-.848-.487-.36-.832-.793-1.033-1.298l-.073-.183zm.401.268c.19.381.477.714.863.999.45.332 1.034.6 1.753.802 2.163 0 4.329-.046 6.495-.102l-.69-1.061-6.793-.63-1.628-.008zm77.44-17.452l-3.303.05-.126.184-2.832 16.43c-.05.328-.143.637-.266.923l-.099.209.038.01c.798.185 1.33.24 1.787.135.498-.115.924-.429 1.53-.98l.016.016c.095-.225.172-.46.228-.706l3.026-16.271zm.897 16.434c.07 0 .137.009.2.026.065.017.127.043.186.077.06.035.113.075.16.122.046.047.087.1.121.16.035.06.06.122.078.186.017.065.026.132.026.202 0 .069-.009.135-.026.2-.017.064-.043.126-.078.185-.034.06-.075.113-.122.16s-.1.088-.159.123-.12.061-.185.078c-.064.018-.131.027-.2.027-.07 0-.136-.01-.2-.027-.065-.017-.127-.043-.186-.078-.06-.035-.113-.076-.16-.123s-.088-.1-.123-.16c-.035-.059-.06-.12-.078-.185-.018-.064-.027-.13-.027-.2s.01-.137.027-.202.043-.127.078-.186c.035-.06.076-.113.123-.16s.1-.087.16-.122c.06-.034.121-.06.185-.077.065-.017.131-.026.2-.026zm0 .09c-.06 0-.12.008-.176.024-.057.015-.111.038-.164.068l-.063.042-.014.01c-.02.015-.039.032-.057.049-.033.03-.061.063-.087.1l-.029.048c-.03.053-.054.107-.069.164-.015.057-.023.117-.023.178 0 .061.008.12.023.176.015.057.039.112.07.164.03.05.065.097.105.137.002.005.005.008.007.01.038.036.086.072.138.103.052.03.107.054.163.069.057.015.116.023.176.023.062 0 .12-.008.177-.023.057-.015.111-.038.164-.07.049-.028.093-.062.133-.1l.01-.008.005-.008-.008.008c.042-.041.078-.088.108-.14.03-.053.053-.107.068-.164.016-.057.023-.116.023-.177 0-.062-.007-.121-.023-.178-.015-.057-.038-.112-.068-.164-.028-.048-.06-.092-.097-.13-.03-.033-.063-.062-.099-.087l-.052-.032c-.052-.03-.107-.053-.163-.068l-.087-.018-.09-.005zM17.267 35.039l2.879 17.025.001.016.002.014.071.061c.538.446 1.069.684 1.593.715.56.033 1.119-.171 1.678-.611l-3.017-17.171-3.207-.05zm85.846 16.766c.039 0 .074.002.104.005.031.003.058.008.08.015.024.006.043.015.06.027.017.01.032.025.043.04.011.017.02.036.026.057l.008.035.003.039c0 .027-.003.051-.01.074s-.017.044-.03.064c-.014.019-.03.034-.05.045-.016.009-.035.015-.056.018.016.004.03.009.042.014.015.007.027.014.037.022.01.008.018.02.025.032.007.013.013.03.017.047.004.018.007.04.009.068.002.027.003.059.003.095 0 .014.001.029.003.043l.009.046c.003.015.008.027.013.037.005.009.01.015.017.017v.01h-.112c-.006-.011-.011-.022-.015-.034-.004-.011-.008-.023-.01-.036l-.006-.038-.002-.02-.003-.063-.002-.04c-.002-.017-.004-.033-.008-.046-.003-.014-.007-.025-.013-.034-.005-.01-.013-.017-.023-.024-.01-.007-.023-.012-.039-.017-.016-.004-.035-.008-.059-.01-.024-.002-.051-.003-.083-.003h-.195v.365h-.002l-.107.005h-.002v-.855h.328zm.017.1h-.234v.281h.266c.055 0 .096-.011.124-.034.002 0 .003 0 .004-.002.025-.023.04-.058.04-.105 0-.027-.005-.05-.013-.068-.007-.018-.019-.032-.034-.043-.016-.01-.036-.017-.062-.022-.025-.005-.056-.008-.09-.008zm-9.187-2.983l-6.592 1.017-.319 1.153 8.1.033.341-2.201-1.53-.002zm-49.552-5.186l.017 5.982H23.564l-.02-.11-1.02-5.712.158-.001 21.576-.158.133-.001zm-19.093.405l-2.457.019.946 5.291h7.587l-.4-4.783-5.676-.527zm33.834 1.722v2.028h-13.72v-2.028h13.72zm35.757-1.681l-6.515.844-.465 2.572 7.768.051.52-3.462-1.308-.005zm-20.126-7.593h.134l22.86.098h.16l-.03.158-1.213 6.335h-.11l-21.668-.13-.133-.001v-6.46zM21.977 39.02l37.073.14h.134v3.813H22.396l-.017-.115-.556-3.839h.154zm73.76-2.077l-6.477.9-.527 5.023 7.72.046 1.143-5.961-1.859-.008zm-73.606 2.343l.495 3.42h7.32l-.474-2.888-4.664-.522-2.677-.01zm-.688-4.002l37.607.009h.133v2.728h-.133l-37.26.051h-.116l-.015-.115-.368-2.673h.152zm1.87.265h-1.717l.31 2.257 8.044-.011-.3-1.581-6.337-.665zm85.447-9.625l-.337.177-.217.263c-1.015 1.223-1.964 2.38-3.122 3.512-.517.506-1.334.904-2.112 1.2-1.03 1.32-2.597 2.996-2.747 3.729l2.028-.033 6.507-8.848zm-97.121 1.06l5.554 7.788 1.777.029c.518-.825-2.918-4.108-3.532-4.762l-.043-.046c-.478-.53-1.357-.457-1.714-.849-.56-.671-1.383-1.419-2.042-2.16zm6.514 3.384l40.915.017h.133l-.019 4h-.132l-38.038.143h-.068l-.04-.054-3.013-4.106h.262zm.263.265l2.663 3.63 8.095-.032-2.193-3.038-6.097-.56h-2.468zm81.944 1.241l-1.564 2.281h-.07l-23.67-.266-.132-.001v-1.906h.132l25.05-.107h.254zm-.506.268l-2.35.01-6.94.799-.614.839 8.707.098 1.197-1.746zm9.254-6.701l-48.982.052v3.116h42.957l6.025-3.168zm-49.378.053l-48.919.327 5.338 2.788h43.58l.001-3.115z"/>
</svg>
