<svg xmlns="http://www.w3.org/2000/svg" width="120" height="120" viewBox="0 0 120 120">
    <path d="M44.465 69.306l3.379 12.812c.05.147.176.21.338.21.169 0 .287-.042.334-.203l3.33-12.819h2.835l-3.789 14.05c-.219.884-.781 1.328-1.653 1.328h-2.96c-.872 0-1.486-.428-1.675-1.351L40.72 69.306h3.744zm-27.893 0v2.347h-5.187c-.96 0-1.174.248-1.174 1.173l-.004 8.329c0 .96.285 1.176 1.176 1.176h5.19v2.352l-7.176.001C7.877 84.684 7 83.99 7 82.28l.002-10.572c0-1.554.76-2.402 2.401-2.402h7.17zm23.83 0v2.347h-5.268c-.977 0-1.174.282-1.174 1.173l.001 2.632h6.375v2.346h-6.378l-.002 3.35c0 .978.286 1.177 1.176 1.177h5.939v2.352l-7.925.001c-1.606 0-2.397-.78-2.397-2.404l.002-10.572c0-1.571.74-2.4 2.399-2.4l7.252-.002zm37.283.003c1.658 0 2.398.828 2.398 2.4l.003 10.571c0 1.676-.863 2.403-2.4 2.403l-3.52.001h-3.555c-1.468 0-2.398-.659-2.398-2.404l.002-10.572c0-1.537.706-2.4 2.4-2.4zm23.799-.003v2.347h-5.267c-.978 0-1.175.282-1.175 1.173l.002 2.632h6.373v2.346h-6.378v3.35c0 .978.285 1.177 1.175 1.177h5.938v2.352l-7.924.001c-1.607 0-2.398-.78-2.398-2.404l.002-10.572c0-1.571.741-2.4 2.4-2.4l7.252-.002zm-80.472 0v6.152h4.6v-6.152h3.208v15.377h-3.21v-6.879h-4.598v6.879h-3.209V69.306h3.21zm93.097 0v2.347h-4.36v13.03h-3.208v-13.03h-4.36v-2.347h11.928zm-28.872 0l-.001 13.03h5.971v2.347h-9.179V69.306h3.209zm-21.195 0c1.64 0 2.399.795 2.399 2.402l.002 4.073c0 1.729-.914 2.404-2.398 2.404l-.72.006 4.244 6.492h-3.972l-4.052-6.92c-.134-.24-.303-.48-.303-.813 0-.662.383-1.073 1.064-1.073l1.753-.002c.925 0 1.175-.268 1.175-1.175l-.002-1.874c0-.89-.181-1.173-1.176-1.173h-3.75v13.03h-3.208V69.306zm11.662 2.347h-3.108c-1.065 0-1.175.37-1.175 1.173v8.329c0 .926.25 1.176 1.175 1.176h3.106c.873 0 1.176-.182 1.176-1.176l-.002-8.33c0-1.028-.334-1.172-1.172-1.172zm40.223-2.281c.594 0 1.073.481 1.073 1.073 0 .596-.479 1.072-1.073 1.072-.602 0-1.078-.48-1.078-1.072 0-.592.481-1.073 1.078-1.073zm0 .17c-.501 0-.904.405-.904.896 0 .499.397.91.904.91l.113-.006c.22-.028.416-.136.557-.295h-.201l-.4-.526h-.272v.526h-.197v-1.202h.61c.252 0 .498.06.498.318 0 .236-.187.336-.436.341l.408.531c.136-.16.218-.368.218-.597 0-.491-.4-.897-.898-.897zm.17.446h-.373v.389h.367c.281 0 .347-.098.347-.217 0-.157-.193-.172-.34-.172zM69.715 37c.715 0 1.108.387 1.108 1.119l.002 2.535c0 .6.284.729.722.729l17.091-.002c.423 0 1.04.252 1.04.967 0 .272-.082.401-.2.628l-5.392 10.535c-.375.699-.915.896-1.665.896l-10.874.003c-.503 0-.723.211-.723.73l.001 2.535c0 .78-.443 1.103-1.11 1.103h-9.78l-9.784.001c-.666 0-1.11-.347-1.11-1.111l.001-2.535c0-.487-.187-.73-.722-.73l-17.341.002c-.763 0-1.04-.544-1.04-.966 0-.16.042-.32.111-.453l5.454-10.66c.257-.536.759-.945 1.616-.945l11.2-.004c.47 0 .723-.194.723-.73l.001-2.535c0-.699.376-1.11 1.108-1.11zm-3.005 3.386l-13.553.001c-.502 0-.728.208-.728.727v2.924c0 .551-.281.733-.735.733H38.54c-.393 0-.556.123-.656.304l-2.599 5.085c-.043.081-.067.174-.067.273 0 .34.268.584.657.584h15.817c.487 0 .732.19.732.725v2.925c0 .567.278.727.732.727l6.777-.001h6.775c.519 0 .732-.234.732-.72l.001-2.924c0-.486.196-.73.731-.73h12.904c.203 0 .492-.012.655-.307l2.6-5.084c.043-.082.066-.175.066-.273 0-.259-.162-.585-.656-.585H68.174c-.503 0-.737-.224-.737-.726l.001-2.924c0-.519-.241-.734-.728-.734zm6.105-1.93c.594 0 1.073.482 1.073 1.074 0 .596-.479 1.073-1.073 1.073-.602-.001-1.078-.481-1.078-1.073s.481-1.074 1.078-1.074zm0 .169c-.502 0-.904.406-.904.898 0 .5.398.91.904.91l.113-.007c.22-.027.416-.136.557-.294h-.201l-.4-.527h-.272v.527h-.197v-1.203h.61c.252 0 .498.06.498.32 0 .235-.187.334-.436.34l.408.53c.136-.159.219-.367.219-.596 0-.492-.4-.898-.899-.898zm.17.449h-.373v.388h.367c.281 0 .347-.098.347-.217 0-.157-.193-.171-.34-.171z"/>
</svg>
