<svg xmlns="http://www.w3.org/2000/svg" width="120" height="120" viewBox="0 0 120 120">
 <path fill-rule="nonzero" d="M16.123 43.568c.92 0 1.873.065 2.793.156l.178.946c-.824-.123-1.696-.23-2.971-.23-2.149 0-3.683.725-3.683 1.967 0 1.244 1.534 1.975 3.683 1.975 1.26 0 2.197-.106 3.101-.238l-.21.962c-.937.084-1.874.15-2.891.15-3.312 0-6.123-.882-6.123-2.85 0-1.966 2.811-2.838 6.123-2.838zm51.525 0c1.014 0 2.046.058 3.042.148l.286.963c-.842-.132-1.759-.239-2.678-.239-1.454 0-2.029.338-2.029.586 0 .87 5.222 1.464 5.222 2.796 0 .644-1.05 1.434-4.38 1.434-1.224 0-2.428-.1-3.633-.215l-.305-1.012c1.07.205 2.238.353 3.404.353.9 0 2.028-.148 2.028-.608 0-.79-5.221-1.531-5.221-2.832 0-.708 1.166-1.374 4.264-1.374zm-41.869.098v2.174h5.228v-2.174h2.364v5.49h-2.364v-2.442h-5.228v2.442h-2.363v-5.49h2.363zm17.306 0c2.255 0 3.8.487 3.8 1.392 0 1.004-1.18 1.373-3.037 1.588l3.072 2.51h-2.76l-3.242-3.037c.33.017.78.05 1.022.05 1.302 0 2.464-.28 2.464-.931 0-.395-.38-.765-1.804-.765h-2.325v4.683h-2.48v-5.49h5.29zm9.45 0l2.566 2.231 2.67-2.23h2.846l-4.302 3.259v2.23h-2.619v-2.321l-4.024-3.169h2.862zm25.655 0v4.618h5.447v.872h-8.066v-5.49h2.619zm18.416 0v.873h-6.12v1.433h5.336v.806h-5.337v1.506h6.12v.872h-8.87v-5.49h8.87zm9.419 0c2.254 0 3.796.487 3.796 1.392 0 1.004-1.178 1.373-3.034 1.588l3.07 2.51h-2.76l-3.243-3.037c.33.017.782.05 1.026.05 1.3 0 2.462-.28 2.462-.931 0-.395-.381-.765-1.804-.765h-2.325v4.683h-2.48v-5.49h5.292z"/>
 <path fill="#FFF" d="M39.733.554c-.814.186-1.633.53-2.499.893-.918.387-1.867.785-2.825.99-1.49.322-4.878.272-10.49.191-1.285-.019-2.742-.04-4.295-.057-7.1-.082-18.305-.516-19.518-.565.203.264.976 1.087 3.01 1.55 1.885.432 4.595.482 4.62.482h.019l.015.01c.012.01 1.331.995 3.08 1.345 2.154.43 5.507.436 5.54.436h.028l.017.022c.006.01.64.86 3.371 1.201 2.956.37 5.071.566 8.43.613 3.15.042 4.19.385 4.916.703.89.39 1.68.935 2.515 1.515.916.631 1.862 1.287 3.081 1.851 2.293 1.061 4.885.961 4.995.957h.003c.11.004 2.703.104 4.997-.957 1.218-.564 2.163-1.22 3.079-1.85.834-.581 1.627-1.127 2.515-1.516.726-.318 1.767-.66 4.916-.703 3.36-.047 5.476-.242 8.43-.613 2.731-.34 3.367-1.192 3.372-1.2l.015-.023h.03c.033 0 3.385-.006 5.539-.436 1.749-.35 3.068-1.336 3.081-1.346l.014-.01h.018c.026 0 2.737-.05 4.622-.48 2.037-.464 2.809-1.287 3.01-1.55-1.212.048-12.418.482-19.52.564-1.55.018-3.007.038-4.294.057-5.61.08-8.997.13-10.49-.19-.978-.21-1.944-.607-2.877-.99-.843-.348-1.638-.675-2.431-.87-1.807-.443-3.37-.518-4.14-.524-.781-.007-2.27.123-3.9.5" transform="translate(16.17 53.576)"/>
 <path d="M61.11 3.738c-4.452 0-6.828-.078-7.324-.1-.808-.03-1.483-.246-1.483-.246s.172.2.368.596c.199.397.324.84.324.84s0-.347.445-.347 11.43 0 18.26-.298c3.03-.132 5.658-.292 7.747-.457-.185.096-.73.357-1.564.557-1.038.247-2.627.545-11.627.793-9 .246-10.986.195-12.074.195-1.088 0-1.138-.147-1.138-.147s.093.219.126.663c.037.507-.027.904-.027.904s.256-.733 1.089-.741c.939-.012 6.167-.083 15.174-.428.387-.017.759-.034 1.118-.052-.478.195-1.866.69-4.07.847-2.772.2-5.987.209-8.461.209s-3.546.14-5.048 1.09c-1.686 1.065-2.414 2.413-4.997 3.433-2.2.867-4.203.755-4.203.755v.063-.063s-2.004.112-4.203-.755c-2.583-1.02-3.31-2.368-4.997-3.433-1.502-.95-2.573-1.09-5.049-1.09-2.473 0-5.688-.009-8.46-.209-2.203-.156-3.593-.652-4.07-.847.359.018.731.035 1.118.052 9.007.345 14.234.416 15.175.428.832.008 1.089.74 1.089.74s-.066-.396-.028-.903c.034-.444.125-.663.125-.663s-.05.147-1.138.147c-1.088 0-3.074.051-12.073-.195-9-.248-10.59-.546-11.628-.793-.834-.2-1.38-.46-1.563-.557 2.087.165 4.717.325 7.748.457 6.829.298 17.813.298 18.26.298.444 0 .444.347.444.347s.124-.443.323-.84c.196-.397.37-.596.37-.596s-.677.215-1.484.246c-.497.022-2.87.1-7.325.1-4.453 0-11.676-.296-16.576-.396-4.899-.098-8.462-.792-8.462-.792s.546.298 1.684.594c.629.165 2.383.375 4.98.58.22.214 1.723 1.354 8.865 1.742.383.292 2.107 1.338 7.33 1.45 6.248.134 7.565.028 8.773.466 2.316.842 3.21 2.477 5.49 3.528 2.107.969 3.599 1.196 5.279 1.197h.006c1.68-.001 3.172-.228 5.279-1.197 2.28-1.051 3.172-2.686 5.488-3.528 1.21-.438 2.527-.332 8.776-.466 5.222-.112 6.946-1.158 7.328-1.45 7.142-.388 8.643-1.528 8.865-1.741 2.599-.206 4.351-.416 4.982-.58 1.138-.297 1.683-.595 1.683-.595s-3.563.694-8.462.792c-4.898.1-12.124.396-16.578.396" transform="translate(16.17 53.576)"/>
 <path d="M84.256 3.391c-2.361.524-4.59.48-4.59.48s-.482.743-2.973 1.312c-1.747.398-5.682.48-5.682.48s-.348.83-3.32 1.224c-3.671.487-6.567.342-9.452.43-2.884.085-3.67.433-5.06 1.319-1.442.92-2.878 2.08-4.61 2.856-.98.44-2.687.845-4.13.903-.474.019-.644.005-.687.001H43.74c-.045.004-.215.018-.687 0-1.443-.059-3.154-.464-4.131-.904-1.732-.775-3.169-1.937-4.61-2.856-1.393-.886-2.176-1.234-5.06-1.32-2.885-.087-5.781.058-9.452-.429-2.972-.393-3.322-1.223-3.322-1.223s-3.934-.083-5.68-.48C8.304 4.613 7.824 3.87 7.824 3.87s-2.23.044-4.59-.48C.43 2.767.482 2.08.482 2.08s12.895.534 19.45.655c7.08.132 7.867.087 11.538.087 3.41 0 4.101-.35 6.25-1.31C40.353.337 42.919.292 43.578.292c1.817 0 3.725.18 6.193 1.22 2.17.912 2.84 1.31 6.25 1.31 3.672 0 4.458.045 11.539-.087 6.554-.12 19.451-.655 19.451-.655s.052.687-2.754 1.311l-16.392-.874c-8.128.093-12.936.262-14.772-.132-1.835-.393-3.607-1.442-5.308-1.86C45.925.07 44.331.005 43.632 0c-.698-.005-2.207.105-3.912.5-1.704.393-3.486 1.492-5.322 1.885-1.837.394-6.644.225-14.772.132C12.064 2.43 0 1.948 0 1.948s.612 1.093 3.102 1.663c1.915.435 4.634.478 4.634.478s1.32 1 3.104 1.356c2.186.437 5.55.437 5.55.437s.612.874 3.41 1.224c3.173.396 5.245.569 8.436.61 3.19.045 4.195.396 4.895.702 1.837.804 3.234 2.271 5.594 3.366 2.298 1.063 4.885.966 5.02.961.134.005 2.721.102 5.02-.961 2.36-1.095 3.757-2.562 5.595-3.366.698-.306 1.704-.657 4.895-.701 3.191-.042 5.262-.215 8.435-.611 2.797-.35 3.41-1.224 3.41-1.224s3.364 0 5.548-.437c1.785-.356 3.104-1.356 3.104-1.356s2.721-.043 4.635-.478c2.49-.57 3.103-1.663 3.103-1.663s-12.063.481-19.626.57l16.392.873z" transform="translate(16.17 53.576)"/>
 <path d="M51.65 6.103c0-2.961-3.579-5.365-7.992-5.365-4.414 0-7.992 2.404-7.992 5.365 0 2.965 3.578 5.368 7.992 5.368 4.413 0 7.993-2.403 7.993-5.368" transform="translate(16.17 53.576)"/>
 <path stroke-width=".216" d="M51.65 6.103c0-2.961-3.579-5.365-7.992-5.365-4.414 0-7.992 2.404-7.992 5.365 0 2.965 3.578 5.368 7.992 5.368 4.413 0 7.993-2.403 7.993-5.368" transform="translate(16.17 53.576)"/>
 <path fill="#FFF" d="M50.054 3.356c-1.427-1.425-3.818-2.277-6.398-2.277-2.58 0-4.97.852-6.398 2.277-.818.82-1.252 1.768-1.252 2.746 0 .976.434 1.928 1.252 2.745 1.427 1.428 3.819 2.28 6.398 2.28 4.219 0 7.651-2.254 7.651-5.025 0-.978-.433-1.925-1.253-2.746M37.649 8.458c-.497-.498-1.09-1.31-1.09-2.356 0-1.045.593-1.858 1.09-2.355.44-.44.983-.823 1.601-1.136-.802 1.042-1.187 2.167-1.187 3.488 0 1.328.387 2.454 1.195 3.5-.621-.314-1.167-.7-1.609-1.141m6.05 2.19c-2.541 0-4.6-2.059-4.6-4.6 0-2.538 2.059-4.599 4.6-4.599 2.539 0 4.599 2.061 4.599 4.6 0 2.54-2.06 4.6-4.6 4.6m5.965-2.191c-.442.442-.988.827-1.607 1.141.809-1.046 1.194-2.172 1.194-3.5 0-1.32-.384-2.446-1.187-3.488.618.313 1.16.697 1.6 1.136.5.497 1.09 1.31 1.09 2.355 0 1.046-.59 1.858-1.09 2.356" transform="translate(16.17 53.576)"/>
 <path d="M47.209 7.497l.37.172-.517 2.507-.45-.324-.275 1.066-1.054-1.37-.058.022-.01.005 1.156 1.506.285-1.11.455.33.551-2.675-.425-.195c-.01.021-.017.043-.028.066" transform="translate(16.17 53.576)"/>
 <path fill="#FFF" d="M47.369 7.82l-.44 1.942-.235-.168.376-1.44-.035-.022c-.066.272-.154.528-.389.764-.023.024-.047.043-.07.065l-.389 1.496-.718-.985c-.059.021-.12.046-.185.075l1.053 1.37.276-1.066.449.325.518-2.507-.37-.172c-.028.071-.05.146-.071.216l.23.107z" transform="translate(16.17 53.576)"/>
 <path d="M45.469 9.472l.718.984.39-1.495c-.268.243-.488.313-.76.394-.104.034-.218.069-.348.117M46.694 9.594l.234.168.44-1.942-.23-.107c-.023.093-.048.184-.067.275l-.035.144.034.022-.376 1.44z" transform="translate(16.17 53.576)"/>
 <path fill="#FFF" d="M47.424 4.985c-.082-.132-.166-.268-.242-.432-.083-.172-.139-.35-.193-.526-.115-.363-.222-.707-.53-.936-.374-.28-.765-.389-1.146-.492l-.205-.058c-.143-.042-.284-.117-.434-.197-.284-.151-.608-.326-1.058-.326-.48 0-.759.175-1.055.357-.13.084-.267.166-.429.241-.203.095-.374.136-.54.177-.26.063-.503.121-.771.377-.334.318-.417.632-.512.995-.042.157-.086.32-.152.502-.064.174-.141.306-.217.435-.134.228-.26.445-.307.857-.058.502.088.755.308 1.135.083.142.174.3.272.503.135.275.19.478.235.643.073.276.127.474.468.745.378.297.639.37.944.455.13.036.264.073.422.13.204.074.346.155.484.232.214.12.419.236.803.292.47.067.784-.097 1.177-.305.14-.073.299-.157.479-.238.24-.107.428-.165.593-.215.293-.092.528-.163.828-.46.278-.277.348-.582.425-.909.053-.227.107-.462.234-.709l.144-.265c.174-.313.3-.537.315-.987.01-.458-.159-.73-.34-1.02" transform="translate(16.17 53.576)"/>
 <path d="M46.283 3.446l-5.989 3.407c-.19-.329-.274-.493-.234-.85.037-.325.133-.49.255-.698.08-.137.17-.291.246-.498.075-.2.122-.38.164-.54.09-.34.148-.566.402-.807.188-.179.346-.219.585-.276.178-.042.378-.09.618-.202.183-.085.336-.18.472-.264.276-.173.476-.297.841-.297.348 0 .6.136.868.279.161.085.327.173.51.227l.213.06c.36.098.698.191 1.01.427.013.01.026.02.039.032m.855 1.798L41.133 8.62l.06.05c.313.247.518.305.8.383.133.035.28.078.455.14.234.087.397.178.541.26.206.114.354.196.666.242.34.05.563-.066.93-.26.145-.079.31-.164.503-.25.262-.12.47-.182.638-.235.279-.084.433-.133.663-.36.195-.191.246-.411.317-.713.054-.239.117-.511.27-.804l.148-.275c.168-.3.251-.451.262-.804.01-.314-.093-.497-.248-.749" transform="translate(16.17 53.576)"/>
 <path fill="#FFF" d="M42.842 2.787c-.135.084-.29.18-.478.27-.247.114-.452.164-.632.206-.236.056-.378.09-.55.256-.236.226-.29.43-.378.768-.044.162-.091.343-.167.548-.08.213-.171.371-.253.51-.121.209-.208.358-.244.669-.007.054-.01.106-.01.151 0 .21.067.352.194.578l5.812-3.307c-.286-.195-.595-.282-.924-.37L45 3.005c-.192-.056-.363-.148-.528-.236-.258-.137-.5-.268-.829-.268-.342 0-.525.112-.8.285" transform="translate(16.17 53.576)"/>
 <path d="M43.702 3.387c-1.5 0-2.716 1.215-2.716 2.713 0 .089.005.175.013.261l.052-.029.448-.254.07-.04c.033-1.15.974-2.072 2.133-2.072.376 0 .73.1 1.038.27l.066-.04.45-.253.052-.032c-.45-.33-1.005-.524-1.606-.524" transform="translate(16.17 53.576)"/>
 <path fill="#FFF" d="M41.277 8.631c.28.215.465.267.739.343.132.037.283.078.459.142.24.088.407.182.553.265.205.115.342.19.637.235.316.046.518-.06.883-.255.146-.077.31-.165.507-.252.267-.12.478-.185.649-.236.275-.085.411-.127.629-.342.178-.175.223-.374.295-.674.054-.244.12-.521.276-.822l.15-.278c.168-.297.242-.434.251-.766l.001-.035c0-.247-.075-.402-.196-.604l-5.833 3.28" transform="translate(16.17 53.576)"/>
 <path d="M46.817 4.698c-.093-.199-.154-.391-.212-.576-.07-.221-.13-.409-.225-.557L40.369 7c.064.114.133.24.206.39.152.31.212.535.261.715.05.187.078.286.182.401l6.033-3.39c-.077-.122-.158-.257-.234-.42M43.702 4.256c-.955 0-1.743.715-1.859 1.639l2.608-1.485c-.229-.1-.482-.154-.749-.154M42.787 7.75c.263.142.565.222.886.222 1 0 1.818-.787 1.87-1.773l-2.756 1.55z" transform="translate(16.17 53.576)"/>
 <path fill="#FFF" d="M42.95 3.984c-.016.006-.038.008-.052 0l-.367-.203c-.013-.007-.01-.02.005-.027l.142-.07c.015-.008.04-.01.052-.001l.368.204c.012.006.008.017-.006.024l-.142.073zM42.616 4.137c-.014.012-.036.017-.05.014l-.401-.13c-.013-.004-.013-.015.001-.027l.125-.096c.014-.011.037-.016.05-.011l.4.127c.015.004.014.016-.001.027l-.124.096zM42.306 4.345c-.01.013-.031.024-.046.024l-.42-.039c-.013-.003-.016-.014-.003-.028l.1-.12c.012-.013.033-.023.046-.023l.42.038c.015.001.016.014.006.027l-.103.121zM42.027 4.617c-.01.016-.03.029-.044.029l-.42.007c-.015 0-.018-.01-.01-.027l.089-.13c.01-.015.03-.028.043-.03l.422-.005c.013-.002.017.01.007.026l-.087.13zM41.793 4.93c-.007.014-.024.03-.038.031l-.417.062c-.014.003-.02-.009-.011-.024l.07-.141c.006-.017.025-.033.038-.034l.417-.061c.015-.003.02.008.011.024l-.07.142zM41.625 5.263c-.005.016-.02.034-.033.04l-.396.14c-.013.004-.021-.004-.016-.021l.04-.154c.004-.017.02-.035.032-.04l.397-.14c.013-.006.02.004.016.02l-.04.155zM41.511 5.611c0 .018-.01.038-.023.046l-.356.224c-.012.007-.021 0-.02-.018l.007-.157c0-.018.01-.04.023-.048l.355-.224c.013-.006.022.002.022.021l-.008.156zM41.468 5.99c0 .02-.008.04-.018.05l-.334.257c-.012.01-.021.003-.023-.015l-.008-.157c0-.02.007-.04.018-.05l.333-.257c.012-.009.021-.002.022.016l.01.157zM43.322 3.893c-.017.004-.04 0-.05-.01l-.315-.279c-.01-.011-.005-.022.013-.027l.152-.035c.02-.004.04 0 .051.008l.315.283c.01.007.004.02-.012.023l-.154.037zM43.703 3.857c-.018.001-.04-.007-.05-.016l-.269-.324c-.009-.01-.003-.02.015-.022l.157-.015c.018-.002.04.006.05.017l.269.325c.009.01.002.019-.016.022l-.156.013zM44.09 3.898c-.017-.001-.039-.012-.046-.024l-.21-.364c-.008-.013 0-.022.019-.02l.157.012c.018.001.038.013.046.025l.21.364c.007.013-.001.02-.02.02l-.156-.013zM44.457 4c-.016-.006-.035-.02-.04-.033l-.15-.393c-.006-.013.004-.02.023-.017l.153.037c.017.005.035.019.04.032l.15.393c.004.013-.005.022-.022.018L44.457 4zM44.906 3.807c-.001-.013-.016-.032-.03-.039l-.139-.078c-.015-.008-.027-.004-.024.01l.04.42c.002.013.016.032.031.041l.045.025.109-.06-.032-.319zM45.214 3.964l-.133-.086c-.014-.01-.026-.007-.026.007l.004.17.16-.087-.005-.004" transform="translate(16.17 53.576)"/>
 <path d="M46.394 5.755l-.05.03-.442.245-.066.037V6.1c0 1.18-.956 2.137-2.134 2.137-.424 0-.806-.125-1.138-.337l-.062.039-.005-.001-.439.25c.001 0 .002 0 .002.003l-.053.031c.467.377 1.047.595 1.695.595 1.5 0 2.714-1.217 2.714-2.717 0-.116-.007-.232-.022-.345" transform="translate(16.17 53.576)"/>
 <path fill="#FFF" d="M44.41 8.23c.015-.008.04-.01.053-.003l.371.206c.013.008.01.02-.007.028l-.142.07c-.016.01-.04.01-.053.004l-.372-.207c-.012-.007-.008-.018.007-.026l.143-.072zM44.762 8.082c.012-.012.035-.02.048-.015l.406.131c.014.004.013.015-.001.026l-.127.098c-.013.012-.035.017-.05.012l-.406-.128c-.013-.006-.013-.017.001-.03l.129-.094zM45.08 7.87c.012-.013.033-.026.047-.023l.422.04c.015 0 .018.01.005.027l-.102.12c-.01.015-.031.025-.046.023l-.423-.036c-.014-.003-.017-.016-.008-.028l.104-.123zM45.389 7.589c.01-.017.03-.03.044-.03l.425-.007c.013 0 .017.011.008.028l-.088.131c-.01.016-.03.029-.045.029l-.424.008c-.015 0-.019-.012-.009-.028l.089-.131zM45.611 7.275c.008-.016.026-.033.04-.036l.421-.06c.014-.003.02.009.012.025l-.072.143c-.008.016-.025.031-.04.033l-.42.063c-.014.001-.02-.01-.011-.024l.07-.144zM45.768 6.937c.005-.017.02-.035.035-.039l.4-.143c.012-.005.02.004.014.021l-.042.155c-.002.016-.017.035-.03.04l-.403.143c-.012.004-.019-.004-.013-.021l.039-.156zM45.91 6.557c.001-.018.011-.038.023-.046l.362-.227c.01-.007.018 0 .017.019l-.006.158c0 .017-.01.04-.023.047l-.36.226c-.012.008-.023 0-.02-.018l.007-.16zM45.929 6.155c0-.016.008-.038.02-.047l.336-.26c.012-.009.022-.002.022.016l.01.16c0 .018-.009.04-.02.048l-.337.26c-.01.01-.02.002-.02-.017l-.011-.16zM44.035 8.321c.016-.004.039 0 .05.01l.317.283c.01.01.005.021-.011.025l-.155.037c-.018.005-.042 0-.052-.012l-.317-.282c-.011-.01-.005-.019.012-.023l.156-.038zM43.65 8.35c.018 0 .04.007.05.016l.272.328c.009.01.002.02-.016.02l-.158.017c-.018.002-.041-.006-.05-.018l-.272-.326c-.01-.011-.003-.02.014-.023l.16-.014zM43.246 8.302c.018 0 .038.012.046.024l.212.37c.01.012 0 .019-.02.019l-.157-.013c-.019-.002-.04-.012-.046-.025l-.213-.367c-.007-.012 0-.02.02-.02l.158.012zM42.88 8.195c.017.004.037.018.043.031l.15.398c.006.012-.006.02-.023.016l-.154-.038c-.018-.004-.036-.019-.041-.032l-.15-.398c-.006-.013.003-.02.021-.016l.155.039zM42.428 8.392c0 .015.016.034.032.044l.14.077c.015.008.025.004.024-.011l-.042-.423c0-.016-.016-.032-.031-.042l-.112-.065-.044.02.033.4zM42.108 8.174l.133.09c.014.008.026.004.026-.011l-.004-.17-.162.086.007.005M44.795 4.656l-.185.106-.007 1.538.43-.248.002-.18c0-.003-.247.131-.247.131l.007-1.347zM45.345 5.25l.204-.117s.004-.249.003-.25c-.003-.002-.214.133-.214.133l.003-.445.288-.167v-.227l-.497.281-.007 1.552c.001-.003.516-.29.516-.29l.001-.2c0-.002-.297.186-.297.178V5.25zM44.35 4.896c-.043.023-.423.24-.423.24s-.02.023-.016.068l-.004.786c.016.03.031.023.064.013l.261-.153.03-.01c.016.013.011.04.011.04l-.002.372v.03l-.185.109s.005-.251.002-.25l-.171.091-.001.414s-.003.043.02.033c.046-.024.09-.05.091-.048.003 0 .363-.208.383-.227.022-.019.016-.094.016-.094l.004-.737c-.007-.02-.013-.039-.042-.032-.098.058-.176.1-.276.15-.011.01-.038 0-.04-.027.001-.136 0-.262.002-.391l.184-.105v.207l.16-.089.003-.321c-.002-.059-.01-.09-.071-.07M41.697 6.374c-.138.072-.297.163-.423.238-.043.035-.062.064-.055.106l-.006 1.37c.003.066.055.097.112.078l.382-.215c.026-.021.046-.053.051-.088l.001-.386-.18.09v.177c0 .066-.07.083-.148.122 0 .001-.016.018-.023-.01l.005-1.114.162-.092v.304c.053-.032.137-.07.187-.1l.003-.403c-.008-.055-.016-.085-.068-.077M43.526 5.817c-.006.001-.188-.332-.188-.332l-.187.098s.24.421.308.544l-.004.826.189-.103.001-.755.153-.883-.193.108-.079.497z" transform="translate(16.17 53.576)"/>
 <path fill="#FFF" d="M43.21 6.526c.084-.032.111-.049.143-.07.022-.016.042-.058.042-.096v-.627s.004-.038-.062-.071c-.062-.013-.079-.01-.162.01-.206.08-.371.147-.554.214l-.002 1.54.257-.085.006-.712.091-.03.378.555h.028c.07-.027.17-.069.24-.098v-.203c-.02.005-.122.045-.122.045l-.283-.372zm-.083-.21s-.223.079-.223.076c-.002-.003.005-.422.002-.422l.225-.083-.004.428zM46.305 4.787c.083-.032.11-.05.14-.069.025-.016.042-.059.042-.098v-.626s.006-.037-.058-.07c-.064-.013-.082-.012-.163.009-.206.08-.375.149-.556.215l-.002 1.54.258-.087.004-.71.091-.031.378.554.031.002c.07-.028.17-.068.238-.097v-.206c-.017.008-.122.045-.122.045l-.281-.37zm-.084-.21s-.225.079-.227.076c0-.002.006-.422.004-.422l.227-.083-.004.428zM42.269 6.7l-.192.105.003-.625-.18.101-.003 1.56.187-.108c-.003 0 .004-.692.004-.692l.173-.095-.002.684s.199-.11.199-.113l.007-1.564-.194.11-.002.637zM43.458 4.368c-.005.101-.005.179-.013.28.003.013.335-.162.462-.219l-.604.449c-.006.001-.01.007-.019.004 0-.058.03-.218.021-.225l-.616.577c-.008.007-.022-.215-.025-.21-.124.106-.36.32-.49.421l.547-.702c.018.003.025.226.025.226.004.007.707-.602.707-.602l.005.001zM44.604 7.482c-.006-.122.006-.178-.001-.278-.002-.004-.652.526-.652.526l.002-.224c-.159.075-.302.135-.45.193.19-.157.44-.356.596-.474.003 0-.013.185-.013.185l.636-.516c.004 0-.043.267-.031.267.012.002.42-.393.42-.393l-.507.714z" transform="translate(16.17 53.576)"/>
 <path d="M46.541 5.674c.019.143.03.252.03.427 0 1.573-1.278 2.851-2.852 2.851-.727 0-1.405-.3-1.832-.663l-.049.025c.468.42 1.135.692 1.88.692 1.603 0 2.906-1.305 2.906-2.905 0-.185-.011-.333-.035-.457l-.048.03zM40.869 6.1c0-1.572 1.275-2.85 2.85-2.85.68 0 1.302.238 1.792.636l.05-.03c-.502-.412-1.144-.659-1.842-.659-1.601 0-2.904 1.303-2.904 2.904 0 .148.012.295.033.436l.049-.027c-.018-.135-.028-.27-.028-.41" transform="translate(16.17 53.576)"/>
 <path d="M51.84 12.262c0-.713.577-1.297 1.29-1.297.71 0 1.29.584 1.29 1.297 0 .72-.58 1.303-1.29 1.303-.713 0-1.29-.583-1.29-1.303zm2.335 0c0-.584-.463-1.054-1.045-1.054-.584 0-1.047.47-1.047 1.054 0 .589.463 1.058 1.047 1.058.582 0 1.045-.47 1.045-1.058zm-.404.709h-.316l-.31-.592h-.274v.592h-.273V11.57h.675c.118 0 .273.002.378.064.123.081.162.217.162.365 0 .256-.132.363-.378.38l.336.592zm-.491-.802c.155.003.263-.035.263-.211 0-.189-.2-.189-.335-.189h-.337v.4h.409z" transform="translate(16.17 53.576)"/>
</svg>
