<svg xmlns="http://www.w3.org/2000/svg" width="120" height="120" viewBox="0 0 120 120">
    <path d="M60 40.071c27.571 0 50 8.99 50 20.02 0 11.052-22.429 20.031-50 20.031s-50-8.959-50-20.03c0-11.133 22.245-20.02 50-20.02zm0 2.49c-26.061 0-47.184 7.847-47.184 17.53 0 9.685 21.123 17.542 47.184 17.542 20.347 0 37.694-4.786 44.306-11.5 1.857-1.878 2.867-3.909 2.867-6.031 0-9.694-21.122-17.54-47.173-17.54zm-.01 1.51c25.143 0 45.52 7.174 45.52 16.02 0 8.848-20.377 16.021-45.52 16.021-25.133.01-45.52-7.163-45.52-16.02 0-8.847 20.377-16.02 45.52-16.02zm29.234 10.276h-2.53c-.184 0-.286.02-.367.194-.286.561-3.827 5.847-4.48 6.877-.112.153-.245.133-.265-.04-.062-.613-.592-1.317-1.419-1.643-.632-.255-1.255-.306-1.898-.215-1.163.153-2.194.766-3.102 1.46-1.367 1.04-2.55 2.398-4.081 3.387-.837.541-1.98 1.02-2.735.306-.694-.642-.612-2.06.439-3.163.112-.112.245-.02.224.082-.102.5.02.99.398 1.337.46.408 1.123.459 1.684.183.663-.326 1.061-.97 1.173-1.694.174-1.122-.694-2.112-1.775-2.194-.878-.06-1.725.245-2.541.919-.408.347-.643.592-1 1.102-.092.122-.225.143-.214-.051.04-1.439-.551-2.245-1.745-2.276-.919-.02-1.908.48-2.674 1.092-.847.674-1.581 1.572-2.367 2.419-.102.102-.184.102-.204-.102-.02-.95-.265-1.878-.704-2.531-.153-.225-.48-.337-.755-.184-.133.072-.572.276-.898.53-.164.134-.225.327-.153.572.428 1.429.336 3.041-.245 4.408-.53 1.256-1.561 2.378-2.776 2.766-.796.255-1.632.132-2.143-.582-.704-.98-.418-2.673.633-4.082.929-1.244 2.265-2.03 3.612-2.54.153-.062.194-.164.143-.296-.071-.225-.183-.52-.235-.653-.122-.327-.469-.378-.887-.337-.97.112-1.847.449-2.715.908-2.265 1.214-3.408 3.572-3.908 4.827-.234.602-.449.98-.714 1.316-.357.449-.806.857-1.633 1.582-.071.071-.122.204-.06.336.08.174.51.776.632.827.132.071.285-.02.347-.072.571-.387 1.265-1.01 1.602-1.428.122-.143.234-.082.306.133.316 1.122 1.133 2.04 2.275 2.418 2.082.704 4.245-.316 5.868-2.082 1.03-1.122 1.408-1.847 1.806-2.336.673-.837 2-2.694 3.581-3.898.582-.44 1.266-.776 1.613-.551.275.183.367.591-.082 1.398-1.612 2.938-3.98 6.397-4.418 7.234-.082.143-.01.266.143.266h2.438c.133-.01.184-.062.245-.154 1.235-1.938 2.398-3.775 3.643-5.683.072-.112.133-.02.133.02.02.45.132 1.051.398 1.439.47.735 1.143 1.051 1.877 1.051.592.01.888-.082 1.52-.316.521-.194.93-.44 1.256-.674.183-.132.214.092.214.123-.286 1.54.061 3.357 1.592 4.112 1.826.898 3.837-.367 4.99-1.51.112-.113.234-.102.245.132.02.44.224.96.581 1.317.97.969 2.919.581 4.878-.929 1.255-.97 2.571-2.347 3.765-3.796.04-.061.072-.153-.01-.235-.184-.193-.439-.408-.623-.571-.081-.071-.204-.051-.275 0-1.214 1.163-2.316 2.48-3.898 3.571-.53.378-1.388.674-1.776.154-.153-.205-.132-.48.01-.847.46-1.153 7.786-12.307 8.164-12.96.092-.081.02-.173-.123-.173zm-43.591-6.674c-4.5.378-8.786 2.909-8.796 6.766-.01 1.949 1.377 3.53 3.53 3.459 2.52-.082 4.592-2.102 5.684-4.653.408-.97-.347-1.367-.714-.816-.653 1-1.561 1.785-2.551 2.265-1.184.582-2.46.428-2.837-.54-.54-1.358.582-3.399 3.153-4.358 3.704-1.378 7.592-.46 11.316.235.051 0 .255.112.072.204-.663.367-1.327.663-2.357 1.54-.735.633-1.694 1.47-2.44 2.378-.734.898-1.264 1.704-1.958 2.592-.092.133-.215.122-.215.122-1.693.286-3.347.48-4.857 1.531-.316.214-.449.602-.255.888.174.255.561.285.837.092.939-.705 1.908-1.031 3.02-1.062.051 0 .072.01.082.041.01.02 0 .051-.02.082-1.664 2.306-2.082 2.826-3.327 4.265-.643.735-1.276 1.357-1.98 2-2.836 2.643-5.898 2.592-7 .939-.653-.99-.56-2.041-.132-2.898.53-1.061 1.602-1.837 2.49-2.286.326-.163.428-.592.091-.97-.214-.254-.724-.295-1.102-.224-1.163.215-2.54 1.092-3.347 2.153-.877 1.174-1.326 2.623-1.173 4.235.275 2.918 2.684 4.612 5.408 4.592 2.174-.02 4.225-.674 6.684-3.174 2.296-2.336 4.388-5.816 6.347-9.04.06-.102.102-.153.398-.194 1.224-.153 3.04-.327 4.204-.398.255-.01.316-.01.418.112.306.388.755.704 1.123.908.173.102.265.143.398.153.173 0 .306-.092.387-.183.123-.133.164-.317.092-.429-.071-.122-.877-.571-.908-.755-.02-.112.102-.143.102-.143.592-.184 1.214-.571 1.592-1.286.367-.714.428-1.653-.245-2.183-.592-.46-1.49-.388-2.204.255-.694.622-.929 1.53-.837 2.326.02.143.01.184-.184.204-1.071.082-2.112.113-3.265.174-.081.01-.102-.041-.061-.102 1.326-2.306 3.306-3.939 5.5-5.561.143-.113.102-.317.092-.49 3.949.857 7.775 2.459 11.877 2.428 1.694-.01 3.317-.275 4.868-1.122C74 51 74.55 50.316 74.592 49.592c.03-.5-.316-.806-.806-.704-4.143.949-8.092.939-12.225.439-5.377-.654-10.51-2.092-15.928-1.654zM79.48 61.43c.918.438.632 1.48.234 2.306-.03.06-.03.112-.02.163.02.082.122.163.235.204.04.01.06.04.01.133-.306.663-.592 1.05-.99 1.632-.357.531-.765.95-1.255 1.357-.735.613-1.765 1.276-2.612.827-.378-.194-.541-.724-.531-1.153.02-1.204.551-2.429 1.53-3.643 1.205-1.48 2.531-2.245 3.399-1.826zm-24.133-7c.235-.215.551-.256.745-.092.224.183.122.643-.102.97-.245.356-.653.662-1.02.734-.082.01-.143-.02-.174-.184-.051-.439.082-1.03.55-1.428z"/>
</svg>
