<svg xmlns="http://www.w3.org/2000/svg" width="120" height="120" viewBox="0 0 120 120">
    <path d="M24.136 72.684c.315 0 .483.123.558.356.069.223 3.013 8.575 3.138 8.93l.004.012v-9.298h1.977v11.32h-3.01c-.256 0-.45-.13-.517-.356-.075-.219-2.975-8.457-3.098-8.807l-.004-.012v9.174h-1.978V72.684h2.93zm20.672 0v2.083h-4.249v2.357l4.185-.006v2.069h-4.189v.675l.004 3.802v.34h-2.325v-11.32h6.574zm22.376 0c.308 0 .475.123.55.356.073.223 3.015 8.575 3.14 8.93l.004.012v-9.298h1.977v11.32h-3.014c-.248 0-.444-.13-.516-.356-.069-.219-2.976-8.457-3.1-8.807l-.003-.012v9.174h-1.974V72.684h2.936zm-11.69.005v11.314h-2.502V72.689h2.503zm28.515 0v11.314h-2.504V72.689h2.504zm25.991 0v11.314h-2.492V72.689H110zm-97.496 0v11.314H10V72.689h2.504zm87.046-.005v2.177h-2.591v9.141h-2.365v-9.141h-2.596v-2.177h7.552zM60.001 36.336c14.159 0 24.015 5.529 24.015 12.69 0 3.342-2.155 7.122-6.725 9.395-4.244 2.108-10.185 2.842-11.048 2.949l-6.242-18.208-6.179 18.208c-.866-.107-6.86-.841-11.104-2.95-4.573-2.272-6.727-6.052-6.727-9.393 0-7.162 9.853-12.691 24.01-12.691zm0 1.448c-10.96 0-19.653 4.698-19.653 9.77 0 3.988 5.987 6.286 9.432 6.58.892-1.157 10.221-13.79 10.221-13.79s9.294 12.526 10.248 13.763c3.45-.294 9.407-2.565 9.407-6.554 0-5.071-8.144-9.769-19.655-9.769z"/>
</svg>
