<svg xmlns="http://www.w3.org/2000/svg" width="120" height="120" viewBox="0 0 120 120">
    <path d="M93.936 50.225c3.763 0 9.617 2.621 9.617 11.887 0 7.167-3.492 12.41-9.524 12.41-3.324 0-5.246-1.309-5.685-1.837-.44-.52-1.051-.612-1.051 0v8.306h-7.605V50.837h7.52v1.223c0 1.631.658.958 1.188.323.09-.107 1.765-2.158 5.54-2.158zm6.81 24.73c1.33 0 2.418 1.085 2.418 2.421 0 1.336-1.088 2.42-2.418 2.42-1.339 0-2.42-1.084-2.42-2.42 0-1.336 1.081-2.42 2.42-2.42zm0 .257c-1.198 0-2.17.97-2.17 2.164 0 1.192.972 2.168 2.17 2.168 1.194 0 2.165-.976 2.165-2.168 0-1.194-.97-2.164-2.165-2.164zm.138.836c.477 0 .806.291.806.72 0 .169-.07.356-.18.474-.084.09-.137.13-.297.185l.503 1.187h-.333l-.48-1.112h-.729v1.112h-.3v-2.566zm-.006.279h-.712v.915h.67c.328 0 .528-.185.528-.483 0-.262-.189-.432-.486-.432zM41.892 49.963c6.383 0 11.975 2.446 11.975 13.721h-15.12c0 3.584 1.485 5.07 4.107 5.07s3.496-2.1 3.496-2.1h7.431c0 3.235-4.458 7.605-11.19 7.519-7.689 0-11.448-5.682-11.448-11.538 0-5.858 3.32-12.672 10.749-12.672zm24.17 0c6.383 0 11.972 2.446 11.972 13.721H62.916c0 3.584 1.486 5.07 4.11 5.07 2.62 0 3.494-2.1 3.494-2.1h7.432c0 3.235-4.46 7.605-11.189 7.519-7.693 0-11.452-5.682-11.452-11.538 0-5.858 3.323-12.672 10.75-12.672zM29.692 41.05v21.325c0 3.669-1.575 11.362-12.848 11.362C5.7 73.737 4.377 66.73 4.348 62.69v-4.073h7.866v3.844c0 2.36 1.574 4.544 4.544 4.544 2.97 0 4.806-1.66 4.806-4.455v-21.5h8.13zm61.623 15.03c-2.363 0-4.108 1.836-4.199 6.295-.08 4.455.882 6.815 4.554 6.815 3.666 0 4.192-4.02 4.192-7.078 0-3.061-.695-6.032-4.547-6.032zm-48.64-1.224c-2.71 0-3.672 1.92-3.672 4.284h7.69c0-2.187-1.222-4.284-4.018-4.284zm24.168 0c-2.708 0-3.672 1.92-3.672 4.284h7.691c0-2.187-1.222-4.284-4.019-4.284z"/>
</svg>
