<svg xmlns="http://www.w3.org/2000/svg" width="120" height="120" viewBox="0 0 120 120">
    <path d="M57.229 85.104c-3.316-.087-6.972-.379-10.208-.814-13.778-1.854-25.324-6.579-31.751-12.993-2.726-2.72-4.453-5.71-5.036-8.713-.19-.979-.234-1.458-.234-2.513 0-1.056.045-1.535.234-2.514.383-1.974 1.293-4.01 2.634-5.897 3.035-4.268 8.36-8.067 15.346-10.95 11.644-4.804 26.89-6.708 41.738-5.21 17.428 1.759 31.766 8.119 37.455 16.615 2.601 3.885 3.239 8.104 1.847 12.227-.804 2.381-2.365 4.761-4.563 6.955-6.09 6.078-16.808 10.66-29.672 12.689-5.753.906-11.685 1.28-17.79 1.118zm7.6-3.207c6.977-.431 12.868-1.457 18.608-3.239 4.555-1.413 8.8-3.37 12.06-5.559 1.643-1.103 2.783-2.033 4.071-3.325 1.53-1.534 2.518-2.88 3.322-4.527.9-1.843 1.248-3.288 1.248-5.176 0-1.9-.37-3.422-1.282-5.258-.788-1.589-1.793-2.948-3.288-4.446-2.195-2.2-4.803-4.015-8.25-5.74-6.452-3.23-14.525-5.343-23.519-6.156-4.981-.45-10.64-.451-15.638-.001-12.644 1.139-23.498 4.892-30.213 10.448-.852.705-2.37 2.238-3.007 3.036-2.276 2.853-3.35 5.93-3.105 8.897.266 3.232 1.722 6.081 4.556 8.923 2.148 2.153 4.701 3.942 8.022 5.62 7.56 3.824 16.852 6.015 27.78 6.552 1.234.061 7.433.026 8.636-.049zm-35.444-9.154c-.06-.025-.158-.1-.218-.167-.108-.12-.109-.207-.123-11.787l-.014-11.665-.144-.15c-.136-.143-.174-.152-.694-.167l-.55-.015V47.32l3.96-.014 3.959-.014.168.142.168.141v4.206c0 4.621-.013 4.448.32 4.448.206 0 .277-.086 1.426-1.716 3.043-4.32 4.716-6.668 4.867-6.831.372-.402.204-.386 4.055-.388h3.449l.132.13c.161.162.222.383.148.54-.046.1-1.538 2.316-6.75 10.023-.568.842-.727 1.116-.726 1.253.002.143.372.699 1.952 2.928 6.982 9.854 7.004 9.886 7.026 10.086.016.15-.011.232-.115.354l-.137.158-3.602.015c-3.55.015-3.605.013-3.867-.1-.145-.062-.326-.179-.4-.26-.074-.08-1.716-2.364-3.648-5.076-1.933-2.712-3.553-4.964-3.6-5.003-.135-.112-.38-.059-.46.099-.054.106-.069 1.217-.07 5.078v4.942l-.132.152-.131.153-3.07.011c-1.688.006-3.119-.01-3.179-.034zm27.352-.025c-.09-.04-.195-.138-.232-.219-.052-.114-.066-2.706-.066-11.754V49.137l-.16-.159c-.154-.154-.177-.16-.68-.16h-.523v-1.525H63.138l.179.16.178.158v24.853l-.151.151-.151.151-3.146.012c-2.52.01-3.178-.002-3.31-.06zm11.716.01c-.17-.097-.241-.219-.243-.409-.001-.096.772-2.486 1.719-5.312l3.344-9.988c.893-2.667 1.835-5.472 2.094-6.234.258-.762.47-1.452.47-1.533 0-.082-.047-.206-.105-.277-.093-.116-.16-.132-.64-.156l-.536-.027-.015-.75-.015-.749h4.837c3.175 0 4.907.02 5.04.058.113.03.232.107.265.169.068.127.61 1.73 3.167 9.363 4.16 12.418 5.11 15.284 5.11 15.4 0 .193-.107.384-.253.45-.093.042-1.06.06-3.168.06-2.782 0-3.05-.007-3.222-.095-.103-.052-.232-.156-.287-.232-.055-.075-.478-1.313-.94-2.751C80.678 56.007 80.8 56.38 80.7 56.27c-.11-.121-.192-.12-.305.005-.09.099-.26.62-2.65 8.155-.695 2.188-1.444 4.541-1.664 5.23-.22.69-.503 1.579-.628 1.976-.246.78-.355.967-.632 1.083-.24.1-6.194.108-6.368.009z"/>
</svg>
