<svg xmlns="http://www.w3.org/2000/svg" width="120" height="120" viewBox="0 0 120 120">
    <path d="M60.764 32.963c2.35 0 4.643.102 6.906.277 2.481.19 4.904.482 7.24.861 3.445.555 6.715 1.314 9.78 2.263 2.438.73 4.73 1.576 6.862 2.525 10.7 4.716 17.532 11.84 17.532 19.78 0 7.927-6.832 15.051-17.532 19.766-2.132.949-4.424 1.796-6.862 2.54-3.065.934-6.335 1.694-9.78 2.248-2.336.394-4.759.686-7.24.876-2.263.16-4.556.263-6.906.263-2.102 0-4.16-.073-6.189-.219-.657-.044-1.3-.088-1.956-.146-1.708-.16-3.401-.365-5.05-.613-1.987-.307-3.913-.672-5.796-1.095-.993-.234-1.957-.467-2.92-.73-3.635-.993-6.992-2.22-10.03-3.635C18.782 73.209 12.43 66.319 12.43 58.67c0-7.664 6.35-14.555 16.394-19.255 3.037-1.43 6.394-2.657 10.03-3.65.962-.248 1.926-.496 2.919-.73 1.883-.423 3.81-.788 5.795-1.095 1.65-.248 3.343-.452 5.05-.598.658-.058 1.3-.117 1.957-.16 2.029-.146 4.087-.22 6.19-.22zm0 1.445c-2.102 0-4.16.073-6.189.204-.657.059-1.314.102-1.956.16-1.708.161-3.401.366-5.05.614-1.987.306-3.928.671-5.796 1.11-.993.218-1.971.466-2.92.73-3.65 1.006-7.022 2.262-10.03 3.707-9.195 4.438-14.962 10.744-14.962 17.737 0 6.977 5.767 13.299 14.963 17.721 3.007 1.46 6.38 2.7 10.03 3.708.948.263 1.926.511 2.919.745 1.868.423 3.81.788 5.795 1.095 1.65.248 3.343.452 5.05.612.643.06 1.3.118 1.957.161 2.029.132 4.087.205 6.19.205 2.35 0 4.642-.088 6.905-.263 2.481-.19 4.904-.482 7.24-.862 3.445-.57 6.73-1.343 9.78-2.292 2.438-.744 4.745-1.605 6.862-2.569 9.853-4.452 16.101-10.992 16.101-18.261 0-7.27-6.248-13.81-16.101-18.263-2.117-.963-4.424-1.839-6.862-2.583-3.05-.95-6.335-1.723-9.78-2.278-2.336-.393-4.759-.685-7.24-.875-2.263-.175-4.556-.263-6.906-.263zm-3.123 24.714c.934 0 1.722.204 2.35.584.627.38 1.094.92 1.415 1.59.321.673.454 1.46.424 2.38-.044.92-.262 1.884-.671 2.876-.555 1.343-1.358 2.584-2.424 3.723-1.05 1.139-2.218 2.029-3.518 2.7-.218.117-.423.22-.642.307-.672.292-1.314.482-1.956.598-.365.059-.73.088-1.095.088-1.168 0-2.131-.336-2.862-.992-.51-.453-.875-1.023-1.094-1.709-.102-.306-.16-.642-.205-.992-.072-.759 0-1.547.205-2.38.117-.438.262-.89.452-1.343.409-.992.964-1.956 1.694-2.861.715-.905 1.504-1.708 2.394-2.394.175-.132.336-.263.51-.394.643-.438 1.285-.803 1.957-1.095.087-.044.175-.073.263-.116.949-.38 1.883-.57 2.803-.57zm10.846.307l-.818 5.08-.015.088-.787 3.357h.087l.715-1.182 1.256-2.088 3.532-5.255h4.686L74.91 62.45l-7.24 9.766-1.038 1.402H62.56l1.168-14.19h4.76zm25.4 0c1.11 0 1.971.175 2.599.51.627.336.977.862 1.08 1.577.088.73-.088 1.65-.555 2.773-.745 1.796-2.014 2.978-3.825 3.548l.876 5.78h-4.919l-.22-4.656-1.926 4.657H82.66l2.03-4.935 3.81-9.254zm-7.167 0l-1.591 3.882h-3.884l-.554 1.358h3.503l-1.503 3.635H79.2l-.613 1.49h3.942l-1.577 3.824h-8.277l2.234-5.445 3.606-8.745h8.204zm-42.626 0c1.11 0 1.985.175 2.612.51.395.205.687.497.862.862.102.219.175.452.204.715.073.511 0 1.11-.204 1.81-.088.307-.205.628-.336.963-.744 1.796-2.014 2.978-3.84 3.548l.877 5.78h-4.92l-.219-4.656-.277.671-1.635 3.986h-4.336l5.84-14.19zm11.59 4.467c-.364 0-.73.101-1.109.306-.233.132-.467.292-.701.482-.525.452-.949.963-1.255 1.562-.058.117-.102.233-.146.35-.307.744-.365 1.372-.16 1.898.072.204.174.365.306.496.219.19.496.293.847.293.35 0 .73-.103 1.11-.307.218-.117.452-.278.685-.467.628-.526 1.095-1.154 1.401-1.913.322-.76.38-1.401.176-1.927-.205-.51-.6-.773-1.154-.773zM31.787 62.26l.395.775-3.358 1.182-.832.292h4.394v2.569h-7.124v-2.57l3.562-1.225 2.963-1.023zm60.465.804h-.905l-1.153 2.802h.759c.219 0 .409-.03.599-.102.525-.204.948-.671 1.24-1.401.146-.35.175-.657.073-.92-.087-.248-.292-.38-.613-.38zm-49.779 0h-.92L40.4 65.866h.76c.218 0 .423-.03.612-.102.526-.204.935-.671 1.241-1.401.146-.35.176-.657.074-.92-.103-.248-.307-.38-.614-.38zM52.97 43.473l-.35 3.869-.92 10.32h-3.796l.045-2.292h-4l-1.168 2.292h-4.365l.438-.627 2.92-4.146 5.795-8.234.832-1.182h4.569zm21.941 0c1.3.015 2.365.16 3.196.452.877.307 1.52.76 1.943 1.358.408.599.598 1.344.569 2.22-.03.875-.292 1.897-.76 3.08-.555 1.357-1.24 2.554-2.087 3.59-.715.876-1.664 1.62-2.86 2.22-.206.102-.41.204-.629.292-1.503.642-3.358.977-5.59.977h-3.183l2.16-5.343 3.577-8.846zm-13.197 0l1.256 7.445.934-2.671 1.942-4.774h3.985l-2.16 5.343-3.578 8.846H60.02l-.934-7.517-3.066 7.517h-3.737l.336-.861 1.956-4.817 3.43-8.51h3.708zm-22.422 0l-.438 1.08-3.825 9.343h3.548l-1.49 3.766h-7.43l5.737-14.189h3.898zm34.48 4.38l-2.219 5.488c.993 0 1.795-.204 2.409-.642.35-.234.657-.57.95-1.007.232-.365.45-.788.641-1.285.365-.876.409-1.518.16-1.927-.131-.248-.408-.408-.802-.51-.307-.074-.686-.117-1.139-.117zm17.124.583v2.57l-6.205 2.131-.321.117-.394-.774.715-.263 3.475-1.211H83.77v-2.57h7.124zm-41.838-.657h-.088l-1.401 2.161-1.168 1.81 1.168.059 1.065.058.424-4.088z"/>
</svg>
