<svg xmlns="http://www.w3.org/2000/svg" width="120" height="120" viewBox="0 0 120 120">
    <path d="M22.32 78v6.486c-.012.123-.16 2.154 2.4 2.154h8.4s1.2-2.64 2.4-3.12h-2.4s.48-5.04 7.44-5.52H54l5.52 3.6 6.24-3.6h6v7.44s0 1.2 2.4 1.2h7.2V78h3.84v8.64h13.44s1.2.24 1.2-1.2c0 0 0-1.2-1.68-1.2h-12s-.24-5.52 6.72-6.24h10.32v2.16H93.12s-2.4-.24-2.4 2.16h9.39c.368.008 4.05.156 4.05 3.12 0 0 0 3.12-3.6 3.12H72s-3.84-.24-4.56-3.12V79.2l-6.24 3.6 7.44 5.76h-6l-4.8-3.36-5.52 3.36H23.035c-.173.015-5.035.381-5.035-5.04V78h4.32zm27.6 1.2v.72h-9.389c-.273.009-2.402.14-2.851 2.16h11.04v2.16h-8.427c-.265.01-2.388.15-2.613 2.4h14.16l4.56-2.88-6.48-4.56zM61 28c3.684 0 6.842.526 10 1.053 1.466.488 1.117 1.43.638 2.406l-.112.225-1.052 1.053-12.632 18.42c-4.21 5.264 0 5.264 0 5.264h27.369c.526-.526 1.052-1.053 1.052-1.579 1.053-1.579 1.053-2.631 1.053-4.737 0-7.368-4.21-14.737-13.684-17.894l.526-2.106C84.684 33.79 91 41.158 91 50.105c0 4.21-1.579 8.421-4.21 11.58H54.683c-12.631-.527-7.368-8.422-7.368-8.422.018-.051.61-1.687 5.79-8.42 4.736-6.843 8.42-11.58 8.42-11.58 2.106-2.105 2.106-2.631 1.58-3.158H61c-15.79 0-25.79 9.474-25.79 20 0 11.053 8.422 19.474 25.79 18.948 7.895 0 14.21-2.106 18.947-5.79h5.264C79.947 68.526 71.526 71.684 61 71.684c-19.474 0-30-10-30-21.579S42.579 28 61 28z"/>
</svg>
