<svg xmlns="http://www.w3.org/2000/svg" width="120" height="120" viewBox="0 0 120 120">
    <path d="M56.96 85.135c1.372 0 2.819.504 3.657 1.58l-1.18.877c-.587-.745-1.562-1.163-2.52-1.163-2.343 0-3.892 1.825-3.892 4.14 0 2.139 1.46 3.967 3.892 3.967 1.196 0 2.109-.518 2.729-1.368l1.193.877c-.31.42-1.563 1.784-3.95 1.784-3.32 0-5.367-2.705-5.367-5.26 0-3.16 2.223-5.434 5.439-5.434zm16.287 0c2.968 0 5.07 2.33 5.07 5.346 0 3.02-2.102 5.348-5.07 5.348-2.97 0-5.07-2.328-5.07-5.348 0-3.016 2.1-5.346 5.07-5.346zm-61.85.52v8.88h4.553v1.294h-5.898V85.655h1.345zm13.925 0v10.174h-1.345V85.655h1.345zm10.83 0l5.578 8.366h.03v-8.366h1.374v10.174h-1.746l-5.636-8.362h-.03v8.362H34.35V85.655h1.802zm52.352 0v8.88h4.554v1.294H87.16V85.655h1.344zm14.345 0l5.466 8.366h.028v-8.366h1.345v10.174h-1.71l-5.517-8.362h-.034v8.362h-1.34V85.655h1.762zm-29.602.774c-2.227 0-3.669 1.825-3.669 4.052 0 2.227 1.442 4.055 3.669 4.055 2.226 0 3.668-1.828 3.668-4.055 0-2.227-1.442-4.052-3.668-4.052zM60.24 25s.15 1.4.337 3.96c2.722.038 4.812.283 4.812.283 1.006 6.536 1.365 13.637 1.394 19.927 2.237.256 4.022.508 4.022.508v.647s-1.785.249-4.022.508c-.029 6.29-.388 13.388-1.394 19.924 0 0-2.09.248-4.812.287-.187 2.56-.337 3.956-.337 3.956h-.676s-.15-1.397-.337-3.956c-2.722-.039-4.812-.287-4.812-.287-1.013-6.536-1.372-13.633-1.397-19.924-2.238-.259-4.019-.508-4.019-.508v-.647s1.781-.252 4.019-.508c.025-6.29.384-13.391 1.397-19.927 0 0 2.09-.245 4.812-.284.187-2.559.337-3.959.337-3.959zm4.776 26.025c-1.279.128-2.59.238-3.724.295-.029 7.396-.302 13.395-.564 17.51h3.157c.88-6.127 1.106-13.81 1.13-17.805zm-10.228 0c.025 3.995.244 11.678 1.128 17.805h3.156c-.255-4.115-.535-10.114-.56-17.51-1.135-.057-2.453-.167-3.724-.295zm9.097-19.852h-3.157c.262 4.112.535 10.115.564 17.51 1.135.054 2.445.164 3.724.295-.025-3.994-.251-11.681-1.131-17.805zm-4.813 0h-3.156c-.884 6.124-1.103 13.81-1.128 17.805 1.271-.131 2.59-.241 3.724-.295.025-7.395.305-13.398.56-17.51z"/>
</svg>
