<svg xmlns="http://www.w3.org/2000/svg" width="120" height="120" viewBox="0 0 120 120">
    <path d="M61.037 26.823c4.663 0 8.88 1.895 11.945 4.955l.008.008.007.007c5.215 5.222 27.17 30.935 27.17 30.935 1.778 2.297 2.837 5.18 2.837 8.31 0 .613-.043 1.215-.121 1.806-.516 3.88-2.668 7.242-5.74 9.372 0 0-9.035 7.202-36.007 7.202-26.434 0-35.832-6.917-36.197-7.194l-.011-.008c-3.127-2.166-5.3-5.612-5.765-9.579-.063-.525-.095-1.058-.095-1.6 0-3.13 1.057-6.013 2.836-8.31 0 0 21.904-25.748 27.15-30.935l.014-.014c3.065-3.06 7.306-4.955 11.97-4.955zM46.128 63.987c-3.901 0-7.065 3.163-7.065 7.065 0 3.902 3.164 7.065 7.065 7.065 3.902 0 7.065-3.163 7.065-7.065 0-3.902-3.163-7.065-7.065-7.065zm36.12.235h-2.954v7.805l-.005.178c-.092 1.648-1.458 2.957-3.13 2.957-1.732 0-3.135-1.404-3.135-3.135v-7.71H70.07v7.71l.004.228c.12 3.257 2.799 5.86 6.085 5.86 3.363 0 6.09-2.725 6.09-6.088v-7.805zm9.045-.204c-1.198 0-2.212.189-3.042.565-.831.377-1.451.886-1.864 1.528-.41.642-.617 1.36-.617 2.151 0 .91.228 1.635.684 2.18.456.546 1.001.943 1.638 1.188.636.247 1.453.494 2.452.74.649.156 1.163.299 1.545.429.38.13.692.3.936.515.243.215.365.485.365.808 0 .441-.206.795-.618 1.061-.41.266-1.049.4-1.91.4-.773 0-1.546-.13-2.32-.39-.774-.26-1.442-.604-2.004-1.032l-.31-.25-.35 2.889.235.146c.485.284 1.06.528 1.726.729.968.292 1.97.438 3.005.438 1.198 0 2.215-.188 3.052-.564.836-.376 1.463-.887 1.881-1.528.418-.642.627-1.354.627-2.133 0-.906-.228-1.627-.683-2.159-.456-.532-1.001-.921-1.638-1.168-.636-.247-1.453-.493-2.452-.74-.96-.22-1.676-.445-2.144-.671-.468-.227-.702-.574-.702-1.043 0-.467.203-.844.608-1.129.406-.285 1.033-.429 1.881-.429 1.21 0 2.421.357 3.632 1.071l.936-2.395-.262-.162c-.538-.311-1.15-.556-1.835-.734-.799-.207-1.616-.31-2.452-.31zm-61.055.205h-2.97v13.685h9.98l.348-2.873h-7.358V64.223zm36.362 0H55.485l-.346 2.854h4.41v10.831h2.971v-10.83h4.424l-.344-2.855zm-20.472 2.564c2.35 0 4.255 1.905 4.255 4.254 0 2.35-1.906 4.255-4.255 4.255s-4.254-1.906-4.254-4.255 1.905-4.254 4.254-4.254zm14.898-32.43c-6.41 0-11.607 5.196-11.607 11.607 0 .492.031.978.091 1.456l-5.792 5.792h2.11l4.04-4.04.084.278c1.48 4.707 5.878 8.12 11.074 8.12 4.823 0 8.958-2.94 10.712-7.127h-1.629l-.134.262c-1.696 3.196-5.062 5.377-8.938 5.377-4.917 0-9.012-3.508-9.919-8.163l1.216-1.216h4.636l.044.209c.375 1.582 1.663 2.814 3.273 3.11v3.254h3.462l.2-.005c2.135-.105 3.837-1.87 3.837-4.026 0-1.356-.672-2.557-1.702-3.288 1.029-.733 1.702-1.935 1.702-3.291 0-2.227-1.812-4.037-4.037-4.037h-3.715l-.234.006c-1.012.056-1.96.471-2.698 1.19l-6.18 6.18v-.033l.003-.278c.148-5.458 4.617-9.835 10.11-9.835 4 0 7.458 2.323 9.097 5.693h1.633l-.117-.274c-1.8-4.077-5.88-6.921-10.622-6.921zm2.723 12.345c1.404 0 2.547 1.141 2.547 2.543 0 1.4-1.142 2.538-2.546 2.538h-1.97V50.02l.225-.048c1.043-.252 1.932-.9 2.5-1.777h-2.078l-.153.089c-.156.084-.322.153-.496.204v-1.786zm-3.462-3.276v5.062l-.17-.057c-1.005-.373-1.724-1.341-1.724-2.474 0-1.197.801-2.208 1.894-2.531zm3.464-3.306c1.403 0 2.546 1.141 2.546 2.546 0 1.403-1.141 2.546-2.546 2.546h-1.97l-.001-1.788.17.058c.112.042.22.091.324.147l.154.089h2.078l-.127-.184c-.612-.844-1.534-1.446-2.598-1.641V40.12zm-3.463 0v1.774l-.208.044c-1.582.375-2.814 1.663-3.109 3.274h-3.143l4.324-4.326.157-.142c.484-.404 1.089-.624 1.727-.624h.252z"/>
</svg>
