<svg xmlns="http://www.w3.org/2000/svg" width="121" height="121" viewBox="0 0 121 121">
    <path d="M76.015 96.719c9.92-1.396 20.517-4.58 28.546-8.585 3.41-1.704 4.642-2.526 5.34-3.655.882-1.397 1.088-2.342.965-4.58-.186-3.265-1.541-7.393-4.252-12.753-1.951-3.923-6.203-10.864-7.27-11.953-.158-.158-.27-.346-.287-.462v-.05c.083-.227-3.512-4.827-6.181-7.927-2.485-2.897-8.44-8.852-11.522-11.542-6.49-5.668-12.507-9.714-17.004-11.419-1.664-.616-3.696-.883-4.559-.595-7.167 2.444-15.176 8.194-24.643 17.682-4.56 4.559-9.611 10.453-13.41 15.669-3.493 4.744-7.723 12.794-9.366 17.785-1.5 4.456-1.664 7.577-.534 9.652.74 1.335 1.253 1.766 3.759 3.163 7.557 4.23 19.777 8.071 30.435 9.57 5.442.757 7.845.935 14.385.945h.606c7.003 0 9.385-.164 14.992-.945zm-29.038-2.754C35.948 92.261 20.854 87.291 16.13 83.8c-2.505-1.828-2.054-4.435 2.382-13.45 4.149-8.42 9.365-16.471 14.807-22.796 2.135-2.527 7.536-7.866 9.734-9.673 5.607-4.6 13.554-9.98 16.696-11.316 1.52-.635 2.321-.532 4.478.536 3.697 1.828 14.643 9.816 18.976 13.84 7.948 7.374 15.299 17.56 21.05 29.204 4.661 9.447 5.051 11.972 2.115 13.903-4.026 2.67-12.486 5.811-22.036 8.173-8.338 2.074-13.863 2.751-22.692 2.751-6.593.02-9.058-.143-14.663-1.006zm2.751-.264l.04-13.657.062-13.657 5.709 3.47 5.688 3.45 5.709-3.47 5.688-3.45.061 13.636c.041 11.07.103 13.637.308 13.637.143 0 .822-.103 1.499-.206.657-.123 1.52-.267 1.889-.329l.657-.103V76.566c.007-10.01.072-12.9.266-13.055.124-.103 2.321-1.376 4.868-2.793l4.621-2.567.103 16.264c.083 14.314.144 16.265.41 16.204.164-.04 1.069-.35 2.013-.698l1.684-.637V68.75c-.007-9.978-.086-18.018-.164-18.136-.082-.144-1.889.842-4.949 2.731-2.649 1.622-5.709 3.45-6.777 4.066L77.142 58.5l-.062-10.76c-.04-9.078-.082-10.761-.328-10.761-.164 0-3.717 1.991-7.907 4.415l-7.619 4.436-7.62-4.436c-4.188-2.424-7.741-4.415-7.905-4.415-.245-.001-.286 1.642-.326 10.76L45.314 58.5l-1.972-1.089c-1.068-.616-4.128-2.444-6.777-4.066-3.06-1.889-4.866-2.875-4.949-2.73-.08.119-.16 8.391-.164 18.57v20.1l1.705.636c.924.349 1.828.656 1.992.698.266.061.329-1.889.41-16.204l.103-16.264 4.353 2.423c2.403 1.335 4.58 2.588 4.867 2.773l.533.33v29.305l1.192.226c.636.123 1.602.287 2.135.37l.986.123zm11.5-25.467l-5.688-3.49-5.709-3.471-.061-8.563c-.02-4.723.02-8.523.103-8.482.102.061 2.648 1.498 5.667 3.203 3.04 1.704 5.607 3.1 5.708 3.1.083 0 2.69-1.416 5.771-3.162l5.607-3.163.061 8.44c.041 6.593-.02 8.503-.205 8.688-.144.123-2.731 1.725-5.75 3.553l-5.504 3.347z"/>
</svg>
