<svg xmlns="http://www.w3.org/2000/svg" width="120" height="120" viewBox="0 0 120 120">
    <path d="M90.272 87.197c2.32 0 3.138 2.073 3.138 4.092h-5.341c-.019 1.62.3 4.065 2.402 4.065 1.4 0 2.06-1.142 2.258-2.364h.702c-.16 1.727-1.382 3.002-3.16 2.922-2.322-.133-3.302-2.125-3.302-4.251 0-2.046.922-4.464 3.303-4.464zm-62.948 0c2.32 0 3.12 2.073 3.12 4.065h-5.32c-.021 1.648.279 4.092 2.399 4.092 1.34 0 2.139-1.142 2.24-2.364h.701c-.162 1.78-1.36 2.922-3.14 2.922-2.362 0-3.3-2.179-3.3-4.251 0-2.046.898-4.464 3.3-4.464zm15.54-.16v2.738h-.34c-.22-1.063-.82-2.153-2.08-2.153-1.799 0-2.12 2.578-2.12 3.906 0 1.408.2 3.826 2.102 3.826 1.298 0 1.722-1.118 1.93-2.192l.028-.146h.68c-.16 1.488-.999 2.896-2.68 2.896-2.36 0-3.3-2.364-3.3-4.384 0-2.046 1.08-4.33 3.381-4.33.613 0 1.094.236 1.519.593l.14.124.462-.877h.279zm4.701.16c2.301 0 3.12 2.073 3.1 4.065h-5.321c.042 1.648.26 4.092 2.42 4.092 1.382 0 2.062-1.142 2.24-2.364h.702c-.26 1.78-1.3 2.922-3.141 2.922-2.36 0-3.3-2.205-3.3-4.251 0-2.046.9-4.464 3.3-4.464zm15.982 0c2.32 0 3.12 2.073 3.12 4.065h-5.32c-.021 1.648.28 4.092 2.4 4.092 1.36 0 2.101-1.142 2.242-2.364h.699c-.16 1.78-1.36 2.922-3.14 2.922-2.342 0-3.322-2.205-3.322-4.251 0-2.046.922-4.464 3.321-4.464zm9.263-.106v2.684h-.34c-.123-1.09-.622-2.1-1.863-2.1-.96 0-1.72.665-1.72 1.621 0 .904 1.036 1.31 1.758 1.575l.124.046.8.319c1.02.398 1.82.983 1.82 2.152 0 1.541-1.36 2.471-2.782 2.471-.665 0-1.347-.172-1.9-.555l-.18-.136-.4.744h-.3l-.02-2.87.36-.026c.301 1.275.941 2.365 2.4 2.365.98 0 1.902-.691 1.902-1.727 0-2.126-4.482-1.302-4.482-4.119 0-1.408 1.24-2.285 2.58-2.285.544 0 1.056.143 1.524.392l.198.113.239-.664h.282zm-14.744-3.295V94c0 .93.321 1.222 1.262 1.222v.24c-.72.106-1.4.186-2.102.398-.1-.505-.18-1.01-.2-1.541-.419.93-1.219 1.541-2.26 1.541-2.24 0-3.08-2.47-3.08-4.33 0-1.86.861-4.279 3.08-4.279 1.081 0 1.7.665 2.2 1.568V85.39c0-.823-.479-.93-1.239-.93v-.239l.218-.053c.72-.08 1.422-.16 2.12-.372zm38.285 3.242c.046.339.08.662.102 1.005l.017.35v.212c.54-.823 1.302-1.355 2.301-1.355 1.717 0 2.505 1.334 2.559 2.835l.003.168v4.33c0 .751.513.842 1.156.895l.122.01v.291c-.62-.053-1.22-.106-1.839-.106-.466 0-.92.03-1.37.067l-.45.04v-.293c.411-.025 1.175-.026 1.269-.53l.01-.108v-4.543c0-1.116-.259-2.312-1.619-2.312-1.362 0-2.007 1.025-2.059 2.21l-.003.155v4.225c0 .725.532.838 1.162.893l.119.01v.292c-.62-.053-1.22-.106-1.82-.106-.45 0-.9.03-1.36.067l-.46.04v-.293c.657-.05 1.212-.1 1.274-.77l.006-.133v-5.979c0-.703-.42-.765-1-.77h-.24v-.266c.72-.106 1.44-.266 2.12-.531zM20 83.876l.38.053c.3 0 .622.027.94.027.482 0 .962-.027 1.44-.027v.345c-.818.027-1.458.186-1.44 1.116l.202 8.901c.04.904.598 1.09 1.46 1.143v.319l-.74-.053c-.44-.027-.86-.053-1.301-.053-.439 0-.88.026-1.32.053l-.721.053v-.319c.842-.053 1.461-.24 1.44-1.143l-.138-9.405L16.44 95.38h-.218L12.54 84.886l-.42 9.405c-.04.904.622 1.09 1.44 1.143v.319c-.579-.027-1.158-.08-1.74-.08-.58 0-1.14.053-1.72.08v-.319c.822-.053 1.401-.24 1.441-1.143l.441-8.9c.059-.957-.622-1.09-1.44-1.117v-.345c.5 0 .98.027 1.48.027.438 0 .858-.027 1.278-.08l3.321 9.38 3.38-9.38zm13.482 3.215c.06.558.12 1.142.12 1.727.281-.93 1.06-1.62 2.061-1.62.739 0 1.42.557 1.42 1.301 0 .425-.219.85-.7.85-.321-.026-.64-.265-.64-.61 0-.16.08-.293.08-.452-.019-.293-.38-.426-.62-.399-1.308.102-1.505 1.973-1.518 3.015l-.001.12v3.534c0 .75.513.865 1.14.92l.12.01v.266c-.601-.027-1.202-.08-1.802-.08-.4 0-.8.024-1.2.047l-.6.033v-.266c.394-.025 1.14-.05 1.232-.534l.01-.104v-6.27c0-.775-.462-.797-1.116-.82l-.125-.004v-.266c.72-.026 1.44-.212 2.139-.398zm48.392-3.135c2.145 0 3.356 1.036 3.356 2.843 0 1.248-.59 2.099-1.873 2.657 1.51.265 2.444 1.381 2.444 2.896 0 2.125-1.482 3.374-4.052 3.374h-4.315v-.345c1.186-.08 1.446-.266 1.446-1.17v-8.767c0-.877-.258-1.09-1.446-1.143v-.345h4.44zm28.037 3.427l-4.979 7.945h2.378c1.217 0 1.712-.792 2.1-1.828l.06-.165h.282l-.42 2.391h-5.901l4.96-7.918h-2.28c-1.117 0-1.536.668-1.9 1.597l-.06.157h-.3l.38-2.179h5.68zm-55.067.346c-1.798 0-1.98 2.444-1.98 3.746 0 1.329.16 3.906 2.041 3.906 1.9 0 2.06-2.418 2.06-3.8 0-1.408-.24-3.852-2.12-3.852zM81.894 89.8H80.05v4.437c0 .824.186.983 1.201.983h.65c1.638 0 2.626-1.062 2.626-2.79 0-1.78-.85-2.63-2.633-2.63zm-4.546.824v.558h-3.2v-.558h3.2zm12.902-2.976c-1.44 0-1.96 1.674-2.12 2.843l-.021.16h4.2c-.018-1.303-.478-3.003-2.059-3.003zm-42.725 0c-1.461 0-2.059 1.78-2.12 3.002h4.18v-.239c-.12-1.249-.519-2.763-2.06-2.763zm16 0c-1.458 0-1.957 1.647-2.117 2.843l-.021.16h4.2c-.119-1.303-.44-3.003-2.061-3.003zm-36.241 0c-1.523 0-1.96 1.78-2.12 3.002h4.2c-.082-1.302-.462-3.002-2.08-3.002zm54.419-3.215H80.05v4.889h1.313c1.798 0 2.595-.77 2.595-2.471 0-1.674-.696-2.418-2.255-2.418zM59.899 25.102c12.942 0 23.539 10.602 23.539 23.542 0 12.94-10.605 23.54-23.539 23.54-12.924 0-23.539-10.6-23.539-23.54S46.965 25.102 59.9 25.102zm14.2 6.935h-.078l.03.08c1.113 1.036 2.168 2.152 3.121 3.348 2.971 3.72 4.52 8.423 4.52 13.179 0 3.746-1.002 7.36-2.793 10.628l.245.451-.51.027C74.72 66.286 67.53 70.405 59.899 70.405c-7.642 0-14.792-4.092-18.708-10.655l-.481-.027c3.85 7.228 11.03 11.479 19.2 11.479 12.403 0 22.518-10.177 22.518-22.558 0-6.35-3.273-12.754-8.33-16.607zm-14.2-5.128l-.085.106-2.227 19.848L56.4 46.2l3.14-18.812c-11.555.213-20.887 9.645-20.887 21.257 0 3.613.991 7.094 2.633 10.282l14.744-12.09 1.21.692L41.134 59.35l-.066.16h.18L59.56 49.2l-.037 3.694-17.85 6.696c3.783 6.35 10.848 10.282 18.227 10.282 7.416 0 14.388-3.932 18.217-10.282l-17.84-6.696-.047-3.693 18.36 10.309h.159l-.074-.133-16.115-11.85 1.198-.691 14.755 12.09c1.69-3.163 2.66-6.67 2.66-10.283 0-11.718-9.292-20.911-20.885-21.283l3.093 18.838-3.16 1.86-.228-21.044-.093-.106zm0-1.275c-12.65 0-23.018 10.362-23.018 23.01 0 6.669 2.963 12.966 7.942 17.377h.066l-.018-.08c-4.576-4.597-7.209-10.761-7.209-17.297 0-12.25 9.99-22.24 22.237-22.24 10.726 0 19.867 7.759 22.548 17.935l.055.027.03-.053c-2.142-10.761-11.585-18.68-22.633-18.68zM38.475 52.549l-.029.08c.283 2.306.982 4.566 2.033 6.65l.23.444.2-.451c-1.142-2.1-1.926-4.331-2.388-6.67l-.046-.053zm23.151-4.49l13.678 9.193.048.08h-.085l-14.68-8.688 1.04-.585zm-3.188.133l.8.452-4.51 2.657-.074.026.03-.053 3.754-3.082zm1.283-16.075l.037.053-.18 15.89-.848-.506.951-15.384.04-.053z"/>
</svg>
