<svg xmlns="http://www.w3.org/2000/svg" width="120" height="120" viewBox="0 0 120 120">
    <path d="M59.734 39.008c-7.446 0-14.376 3.8-18.38 10.076H10l3.121 3.121h26.604c-.505 1.175-.906 2.392-1.198 3.637h-21.77l3.084 3.083h18.182c-.06.629-.092 1.26-.097 1.89.005.584.035 1.166.087 1.747H23.478l3.083 3.083h11.926c.277 1.243.662 2.46 1.15 3.637h-9.44l3.122 3.12h7.97c3.983 6.351 10.949 10.21 18.445 10.221 7.496-.01 14.461-3.87 18.444-10.22h7.97l3.122-3.121h-9.44c.489-1.177.874-2.394 1.15-3.637h11.926l3.084-3.083H81.454c.053-.58.082-1.163.088-1.746-.005-.632-.037-1.262-.097-1.89h18.181l3.084-3.084H80.94c-.292-1.245-.692-2.462-1.197-3.637h26.603l3.121-3.12H78.114c-4.005-6.277-10.935-10.076-18.38-10.077zm0 2.956c5 0 9.795 1.986 13.33 5.521 3.535 3.536 5.522 8.33 5.522 13.33s-1.987 9.796-5.522 13.331c-3.535 3.536-8.33 5.522-13.33 5.522-10.412 0-18.853-8.44-18.853-18.852s8.44-18.852 18.853-18.852zM44.737 55.93V65.7h2.038V58.01l2.15 7.692h2.111l2.157-7.692v7.692h2.038V55.93h-3.29l-1.95 6.665-1.971-6.665h-3.283zm12.621 0V65.7h2.194V55.93h-2.194zm4.299 0V65.7h2.038V59.33l4.38 6.372h2.202V55.93h-2.038v6.525l-4.447-6.525h-2.135zm10.88 0V65.7h2.194V55.93h-2.194z"/>
</svg>
