<svg xmlns="http://www.w3.org/2000/svg" width="120" height="120" viewBox="0 0 120 120">
    <path d="M107.046 101.514c.782 0 1.484.544 1.483 1.48 0 .936-.7 1.48-1.483 1.48-.787 0-1.487-.544-1.487-1.48 0-.936.7-1.48 1.487-1.48zm0 .345c-.588 0-1.06.454-1.06 1.135 0 .68.472 1.139 1.06 1.135.572.004 1.057-.455 1.057-1.135 0-.68-.485-1.135-1.057-1.135zm-50.523-9.775c.177 0 .322.144.322.322v9.254c0 .94-.358 2.416-2.416 2.416-.693-.022-1.5-.156-2.103-1.029l-5.594-7.92c-.224-.314-.716-.403-.716.179v8.448c0 .086-.034.168-.094.228s-.143.095-.228.094h-1.772c-.178 0-.323-.144-.323-.322v-8.403c-.044-1.03.358-3.267 2.417-3.267.716 0 1.522.045 2.238 1.074l5.503 7.809c.225.313.672.38.672-.18v-8.38c0-.086.033-.168.094-.229.06-.06.142-.094.228-.094h1.772zm28.871 1.297l5.986 10.427c.167.257.033.268-.19.268h-1.812c-.314 0-.493-.134-.583-.313l-1.028-1.79c-.078-.145-.157-.313-.638-.313h-6.12c-.122 0-.224-.056-.1-.269.123-.213 1.175-1.924 1.175-1.924.055-.09.146-.224.357-.224h3.413c.178 0 .269-.134.156-.325-.112-.19-2.037-3.545-2.037-3.545-.268-.47-.648-.504-.928-.022l-4.81 8.367c-.134.27-.225.358-.447.358h-1.97c-.324 0-.269-.179-.179-.313l5.997-10.427c1.073-1.834 2.774-1.7 3.758.045zm18.382-1.297c.086 0 .168.033.228.094.06.06.094.142.094.228v1.682c0 .086-.034.168-.094.228s-.142.094-.228.094h-6.882c-1.746.045-3.535.76-3.535 3.625 0 2.863 2.416 3.624 3.535 3.624h6.891v.001c.086 0 .168.034.228.094s.095.143.095.228v1.772c0 .086-.034.168-.095.228-.06.06-.142.094-.228.094h-7.07c-2.64 0-5.728-1.79-5.773-6.04-.049-4.61 3.41-5.952 5.29-5.952h7.544zm-67.291 0c1.745 0 5.146 1.657 5.146 5.773 0 4.117-2.417 6.22-5.325 6.22h-4.072c-2.91 0-5.28-2.193-5.28-6.041 0-3.849 2.819-5.952 5.906-5.952zm-15.707 0c1.746 0 4.654.76 4.654 4.475 0 3.713-2.55 4.474-4.34 4.474h-5.54c-.178 0-.323-.144-.323-.322V98.94c0-.178.145-.322.323-.322h5.406c1.298 0 2.058-.493 2.058-2.103 0-1.79-1.298-2.014-2.058-2.014h-6.623c-.313 0-.448.223-.448.537v8.717c0 .085-.033.167-.094.228-.06.06-.142.094-.228.094h-1.772c-.086 0-.168-.034-.228-.094s-.094-.143-.094-.228V92.406c0-.178.144-.322.322-.322zm53.373.004c.085 0 .167.034.227.094s.094.143.094.228v11.34c0 .086-.034.168-.094.228s-.142.095-.227.095h-1.766c-.086 0-.168-.034-.228-.094s-.095-.143-.095-.228V92.41c0-.086.034-.168.095-.228.06-.06.142-.094.228-.094zm-3.667-.004c.085 0 .167.034.228.094.06.06.094.143.094.228v1.683c0 .085-.034.167-.094.228-.06.06-.143.094-.228.094h-4.522c-.168 0-.257.123-.257.302l-.003 9.038c0 .177-.144.322-.322.322h-1.766c-.086 0-.168-.034-.228-.094s-.094-.143-.094-.228l-.003-9.071c0-.168-.1-.27-.28-.27h-4.5c-.177 0-.322-.143-.322-.321v-1.683c0-.178.145-.322.323-.322zm36.57 10.111c.41 0 .653.118.653.482 0 .294-.172.4-.383.415l.407.696h-.403l-.369-.67h-.16v.67h-.34v-1.593zm-.016.271h-.239v.384h.302c.152 0 .242-.032.242-.208 0-.164-.176-.176-.305-.176zm-71.18-8.055h-3.087c-1.03 0-3.4.581-3.4 3.804 0 1.655.76 3.624 3.758 3.624h2.326c1.566 0 3.76-.716 3.76-3.804 0-2.326-1.567-3.624-3.356-3.624zM75.24 15.526L57.5 81.464 39.87 15.526l17.573 7.642 17.796-7.642zM42.405 18.57L57.5 74.847l15.204-56.223L57.5 25.105 42.405 18.57zm1.942 2.133L57.5 26.404l13.344-5.674L57.5 70.702l-13.153-50zm24.25 42.596c1.12 0 2.12.777 2.12 2.114 0 1.336-1 2.113-2.12 2.113-1.123 0-2.124-.777-2.124-2.113 0-1.337 1.001-2.114 2.125-2.114zm0 .492c-.838 0-1.514.648-1.514 1.622 0 .973.676 1.627 1.515 1.621.816.006 1.51-.648 1.51-1.621 0-.974-.694-1.622-1.51-1.622zm.012.481c.588 0 .935.167.935.688 0 .42-.247.57-.549.593l.581.995h-.575l-.526-.957h-.229v.957h-.487v-2.276zm-.022.386h-.34v.548h.43c.218 0 .346-.045.347-.297 0-.235-.253-.251-.437-.251zM57.5 28.455l-1.092 4.337-6.811 1.091 6.811 1.064 1.092 4.46 1.064-4.46 6.976-1.064-6.976-1.091-1.064-4.337z"/>
</svg>
