<svg xmlns="http://www.w3.org/2000/svg" width="120" height="120" viewBox="0 0 120 120">
    <path d="M60.966 16.062c12.59.05 28.526 1.065 33.16 1.969l.337.07c1.451.322 2.436.628 3.603 1.253 2.828 1.514 4.554 4.09 4.554 7.862l-.02 2.157-.038 2.58c-.01.679-.023 1.382-.037 2.107l-.014.732c-.098 4.877-.242 9.826-.442 14.618l-.089 2.043c-.719 15.814-1.858 26.166-3.756 29.25-2.793 4.539-10.141 9.67-20.59 15.185-3.65 1.927-7.444 3.77-11.181 5.476l-1.13.512c-.554.25-1.09.488-1.605.715l-1.693.736c-.42.18-.764.326-1.015.43-.779.325-1.655.32-2.43-.015l-1.189-.523-1.424-.64c-.83-.379-1.715-.787-2.646-1.224-3.621-1.7-7.318-3.537-10.9-5.455l-1.146-.618c-9.63-5.237-16.618-10.11-19.736-14.375-2.059-2.818-3.231-11.996-3.923-26.346-.444-9.202-.61-19.008-.61-27.345 0-3.772 1.727-6.349 4.555-7.863 1.167-.624 2.152-.93 3.603-1.252l.334-.07c4.636-.903 20.748-1.919 33.519-1.97h1.95zm.01 3h-1.933c-12.74.05-28.946 1.08-33.079 1.935l-.15.032c-1.202.268-1.973.507-2.837.97-1.9 1.016-2.97 2.614-2.97 5.217l.005 2.665c.03 7.225.186 15.336.533 23.087l.124 2.589c.658 12.804 1.81 21.552 3.293 23.58 2.88 3.942 10.052 8.86 19.874 14.118 3.533 1.892 7.183 3.706 10.76 5.384l1.603.746c.517.238 1.016.465 1.495.682l1.811.806.264.115c.028.012.059.012.086 0l.99-.419.674-.29c1.123-.488 2.36-1.039 3.688-1.644 3.688-1.683 7.432-3.502 11.027-5.4l1.056-.562c9.403-5.047 16.058-9.77 18.38-13.543 1.484-2.412 2.634-12.86 3.313-27.813.215-4.718.373-9.628.484-14.5l.044-2.085c.025-1.226.045-2.396.062-3.495l.047-4.021c0-2.602-1.07-4.2-2.97-5.217-.786-.42-1.494-.657-2.52-.897l-.47-.106-.351-.067c-4.62-.84-20.11-1.816-32.333-1.867zm3.486 64.257c.697.518-1.877 2.405-4.56 2.45-2.681.045-5.034-1.867-4.559-2.378.92-.988 2.526.455 4.448-.394 1.878.805 3.442-.59 4.671.322zm-28.61-44.051c8.646-.068 11.019 16.734 14.53 15.912.13-.03-.093.346.044.315-1.7.09-.401 5.351 0 5.857.373.47 3.258 1.166 3.57 1.434.314.268.856 2.723.498 2.812-.358.09-1.029-2.235-3.532-1.475.025.761.246 1.194.573 1.572.505.196 2.415.863 2.736 1.29.38.506 1.875 6.23 1.944 7.02.198 2.256-.955 2.83-.514 4.468.185.687 2.41.029 3.198.779.565.537.687 1.851.02 3.066-.292.533-3.883.342-4.693-.403-.867-.796-1.201-4.364-1.923-6.169-.715-1.788-1.966-2.95-3.218-4.917-1.252-1.967-2.951-8.852-2.861-10.64-1.073-.894-4.516-2.503-5.052-3.218-.536-.715-.447-4.918.85-4.292-.13-2.339-2.26-1.823-2.753-.863-.643 1.249-.61 3.76-.913 4.037.625.045 1.072 3.71.58 4.068.627.09 1.163 4.068.627 4.292.58.09 1.631 3.953.402 4.38-2.057.716-8.852-7.42-9.299-15.02-.046-.798-1.47-.48-2.431-1.341-.519-.464-.967-12.897 7.617-12.964zm48.102-.072c8.584.067 8.135 12.5 7.617 12.964-.962.862-2.385.543-2.432 1.342-.447 7.6-7.242 15.736-9.298 15.02-1.23-.428-.18-4.292.402-4.38-.536-.224 0-4.203.626-4.293-.492-.357-.045-4.023.581-4.067-.303-.278-.27-2.789-.913-4.037-.494-.96-2.624-1.476-2.753.863 1.296-.627 1.386 3.576.85 4.291-.537.715-3.98 2.325-5.052 3.219.09 1.788-1.61 8.672-2.86 10.64-1.253 1.966-2.504 3.129-3.22 4.917-.715 1.788-.256 4.837-1.877 6.214-.718.61-4.564.88-4.873.357-.666-1.125-.456-2.484.11-3.02.788-.751 3.058-.137 3.243-.824.44-1.64-.713-2.212-.515-4.47.07-.789 1.565-6.512 1.946-7.02.32-.425 2.229-1.092 2.735-1.288.326-.379.548-.812.572-1.572-2.503-.76-3.173 1.564-3.531 1.475-.358-.09.183-2.545.497-2.813.313-.268 3.242-.918 3.57-1.434.347-.543 1.7-5.767 0-5.856.137.03-.087-.346.045-.315 3.51.822 5.883-15.98 14.53-15.913zM26.903 53.707c.594-.33 2.244-.238 2.646.447.602 1.026.088 5.138 3.13 9.88 6.894 10.753 8.426 8.72 8.537 10.103.232 2.874-10.013 1.252-10.192-2.146-.58.18-2.682-3.13-2.235-3.755-.76.134-2.057-3.934-1.43-4.202-.79-.005-1.583-4.153-.957-4.47-.715-.18-.199-5.468.5-5.857zm66-.25c.7.39 1.216 5.856.5 6.035.627.318-.166 4.465-.956 4.47.626.268-.67 4.336-1.43 4.202.447.626-1.655 3.934-2.236 3.756-.178 3.397-10.424 5.02-10.192 2.145.111-1.383 1.643.65 8.538-10.103 3.042-4.742 2.528-8.853 3.13-9.879.401-.686 2.051-.957 2.646-.626zM41.308 31.572c.95-.809 5.747-.174 5.918.67.796-.586 4.107 1.485 3.908 2.164.874-.394 3.288 1.817 3.29 2.379.495-.467 3.432 1.634 4.147 3.198.715 1.565-.975 9.478-.975 9.478-.715 3.039-3.999 2.363-5.293.491C47.6 43.147 42.182 38.617 37.926 37.31c-2.571-.789-6.653 2.85-6.652 1.958.005-2.316 4.345-6.904 5.146-6.201.086-1.086 4.34-2.117 4.888-1.495zm37.189-.071c.548-.622 4.803.408 4.889 1.494.8-.702 5.14 3.885 5.145 6.201.002.894-4.08-2.747-6.652-1.957-4.255 1.306-9.673 5.837-14.376 12.641-1.295 1.873-4.65 2.549-5.365-.49 0 0-1.466-7.914-1.02-9.434.447-1.52 3.769-3.71 4.263-3.243.003-.561 2.416-2.772 3.29-2.378-.199-.68 3.113-2.75 3.909-2.164.17-.844 4.967-1.48 5.917-.67z"/>
</svg>
