<svg xmlns="http://www.w3.org/2000/svg" width="120" height="120" viewBox="0 0 120 120">
    <path d="M60.003 30.637c25.17 0 45.585 14.041 45.585 31.365 0 17.32-20.409 31.361-45.585 31.361-25.183 0-45.591-14.042-45.591-31.36 0-17.325 20.408-31.366 45.59-31.366zM95.72 67.409l-.103.03h-24.86c-.956 9.036-8.1 17.997-10.982 21.285.079 0 .153.005.228.005 17.611 0 32.306-9.15 35.717-21.32zm-41.357.03H24.284c3.357 11.903 17.513 20.909 34.63 21.275.925-4.07 3.004-16.423-4.551-21.275zm6.818-9.61h-2.293l-.004 7.209h2.297v-7.21zm33.54 0H80.673v7.204h2.287v-5.907h10.784c.36 0 .649.277.649.609v5.298h.842c.767 0 1.391-.554 1.391-1.297l.005-4.036c0-1.03-.832-1.871-1.912-1.871zm-55.335 0H25.409c-1.085 0-1.971.822-1.971 1.872v2.39h13.66l.005 1.08c.005.332-.262.565-.648.565l-13.032-.005c0 .743.624 1.302 1.391 1.302h12.61c1.094 0 1.966-.807 1.966-1.861v-2.377H25.71l.015-1.094c0-.327.139-.575.555-.575h13.106V57.83zm17.72 0H43.143c-1.088 0-1.97.842-1.97 1.872v3.46c0 1.035.881 1.872 1.97 1.872h13.963v-1.297H44.12c-.372 0-.659-.278-.659-.605v-3.396c0-.326.287-.609.659-.609h12.987V57.83zm19.82 0H64.934c-1.09 0-1.97.841-1.97 1.871v3.461c0 1.035.88 1.871 1.97 1.871h11.992c1.084 0 1.966-.836 1.966-1.87V59.7c0-1.03-.882-1.871-1.966-1.871zm-.981 1.297c.372 0 .659.277.664.604l-.005 3.401c.005.327-.287.605-.659.605H65.909c-.371 0-.663-.278-.663-.61V59.73c0-.327.292-.604.663-.604zM59.591 35.28c-16.948.134-31.108 8.734-35 20.3h24.261c2.045-10.299 8.036-17.488 10.74-20.3zm1.115 0c-.649 3.98-2.026 15.884 3.763 20.3h30.94c-3.873-11.502-17.895-20.068-34.703-20.3z"/>
</svg>
