<svg xmlns="http://www.w3.org/2000/svg" width="120" height="120" viewBox="0 0 120 120">
    <path d="M52.483 65.635v1.915h17.598v-5.778h-2.003c-.099 1.815-1.1 3.709-3.676 3.863h-3.115v-8.783h3.005v-1.926H52.527v1.926h2.894v8.783h-2.938zm-9.73 2.179c-4.82 0-8.87-2.465-8.87-6.416 0-4.392 4.05-6.57 8.87-6.57 5.393 0 8.85 2.464 8.85 6.57 0 3.918-3.886 6.416-8.85 6.416zm0-2.135c1.674 0 2.917-1.948 2.917-4.281 0-2.598-1.134-4.535-2.916-4.535-1.783 0-2.884 1.937-2.884 4.535 0 2.619 1.1 4.281 2.884 4.281zM10.419 54.926v1.926h2.95l5.811 10.665h6.945l5.943-10.665h2.928v-1.926h-8.882v1.926h2.553l-4.292 7.726-4.237-7.726h3.115v-1.926H10.418zm56.746 0h12.833v1.926h-3.126l4.238 7.726 4.314-7.726h-2.564v-1.926h8.871v1.926h-2.916l-5.955 10.665h-6.945l-5.811-10.665h-2.939v-1.926zm32.292 12.888c4.964 0 8.849-2.498 8.849-6.416 0-4.106-3.468-6.57-8.85-6.57-4.82 0-8.881 2.178-8.881 6.57 0 3.95 4.06 6.416 8.882 6.416zm0-2.135c-1.784 0-2.873-1.662-2.873-4.281 0-2.598 1.09-4.535 2.873-4.535 1.783 0 2.916 1.937 2.916 4.535 0 2.333-1.232 4.281-2.916 4.281z"/>
</svg>
