<?xml version="1.0" encoding="UTF-8"?>
<svg width="447px" height="474px" viewBox="0 0 447 474" version="1.1" xmlns="http://www.w3.org/2000/svg" xmlns:xlink="http://www.w3.org/1999/xlink">
    <title>Group 3</title>
    <defs>
        <rect id="path-1" x="0" y="0" width="431" height="458" rx="11"></rect>
    </defs>
    <g id="Repair-Flow-Web-Final" stroke="none" stroke-width="1" fill="none" fill-rule="evenodd">
        <g id="008-Sign-up" transform="translate(-673.000000, -162.000000)">
            <g id="Group-3" transform="translate(681.000000, 170.000000)">
                <g id="congrats-box">
                    <use fill="black" fill-opacity="1" filter="url(#filter-2)" xlink:href="#path-1"></use>
                    <use fill="#FFFFFF" fill-rule="evenodd" xlink:href="#path-1"></use>
                </g>
                <g id="Group-2" transform="translate(28.000000, 16.000000)">
                    <polygon id="Path" fill="#C7A3FF" fill-rule="nonzero" points="166.498423 83 156 74.4985016 164.501577 64 175 72.5014984"></polygon>
                    <polygon id="Path" fill="#C7A3FF" fill-rule="nonzero" points="254.498423 283 244 274.498423 252.501577 264 263 272.501577"></polygon>
                    <polygon id="Path" fill="#FDBCBC" fill-rule="nonzero" points="18.45 33 8 24.45 16.55 14 27 22.55"></polygon>
                    <path d="M321.221456,154.934136 L318.285576,150.042142 C317.876224,149.359556 317.921105,148.404245 318.329683,147.53881 C318.806358,146.787268 319.601847,146.309226 320.488647,146.24027 L326.535292,146.008609 C327.125718,145.962897 327.671263,146.099259 328.171926,146.416921 C328.672588,146.735358 328.944974,147.190931 328.991403,147.782093 C329.037059,148.374029 328.900866,148.920252 328.582825,149.421538 L325.540157,154.658313 C325.063483,155.409854 324.267994,155.887897 323.381194,155.956853 C322.563264,156.139702 321.698905,155.730615 321.221456,154.934136 Z" id="Path" fill="#FBA7AB" fill-rule="nonzero"></path>
                    <path d="M8.22137985,269.934136 L5.28580183,265.042142 C4.87621688,264.359556 4.92102128,263.404245 5.32967764,262.53881 C5.80658526,261.787268 6.60192137,261.308451 7.48841393,261.24027 L13.5351506,261.008609 C14.1261198,260.962897 14.6718204,261.099259 15.1720975,261.416921 C15.672452,261.735358 15.9455344,262.190931 15.9913448,262.782093 C16.0371551,263.374029 15.9011169,263.920252 15.5832301,264.421538 L12.5404001,269.658313 C12.0634925,270.409854 11.2681564,270.887897 10.3815864,270.956853 C9.56334511,271.139702 8.69929344,270.730615 8.22137985,269.934136 Z" id="Path" fill="#FC7879" fill-rule="nonzero"></path>
                    <path d="M353.221456,16.9341639 L350.285576,12.0424943 C349.876224,11.3599392 349.921105,10.4039731 350.329683,9.53881861 C350.806358,8.78741683 351.601847,8.30895342 352.488647,8.24010675 L358.535292,8.00867317 C359.125718,7.96278314 359.671263,8.09899665 360.171926,8.41732919 C360.672588,8.73565399 360.944974,9.1906959 360.991403,9.78243942 C361.037059,10.374183 360.900866,10.9205168 360.582825,11.4214487 L357.540157,16.6582658 C357.063483,17.4096444 356.267994,17.8881465 355.381194,17.9569467 C354.563264,18.1395616 353.698905,17.7304795 353.221456,16.9341639 Z" id="Path" fill="#FC7879" fill-rule="nonzero"></path>
                    <path d="M60.0832067,64.2141869 L58.2243743,61.3448146 C57.9489831,60.9197358 57.9027074,60.366909 58.2233598,59.8989822 C58.5440123,59.430983 59.0022434,59.1755593 59.5982871,59.1327113 L63.4266078,59.0241436 C63.8392655,58.9388817 64.0914798,59.0875471 64.4126005,59.3425365 C64.7337212,59.5974535 64.8714559,59.8100291 64.963383,60.1926941 C65.0553102,60.5753591 64.9638512,60.9156103 64.803564,61.1496099 L62.902904,64.2338015 C62.5823296,64.7017283 62.1240205,64.9571519 61.5279767,65 C60.8631047,64.9365965 60.3585979,64.6392657 60.0832067,64.2141869 Z" id="Path" fill="#FBA7AB" fill-rule="nonzero"></path>
                    <path d="M363.083574,191.21403 L361.224724,188.344445 C360.949252,187.919616 360.90243,187.366687 361.223164,186.899158 C361.543897,186.430905 362.001977,186.175429 362.598182,186.132729 L366.426695,186.02417 C366.839513,185.93877 367.091574,186.087858 367.413088,186.34261 C367.733821,186.597363 367.871167,186.810139 367.963251,187.192992 C368.055335,187.575121 367.964031,187.915274 367.804055,188.149762 L365.903064,191.233571 C365.582331,191.7011 365.124252,191.956576 364.528046,192 C363.863168,191.936312 363.358266,191.638859 363.083574,191.21403 Z" id="Path" fill="#FBA7AB" fill-rule="nonzero"></path>
                    <path d="M319.87415,88.9646225 L324.305741,86.2948906 L324.441954,86.5229933 C324.647049,86.8651472 325.602867,88.4595381 325.807962,88.801692 L325.944175,89.0290188 L317.080995,94.3684826 L315.441786,91.6343544 L319.87415,88.9646225 Z M330.155966,98.1205382 L331.426004,93.0146081 L331.607881,93.0596079 C332.404267,93.3559862 333.495525,93.6283128 334.336799,93.7415883 L334.518676,93.787364 L333.248637,98.893294 C332.568342,101.628974 331.978599,104 331.978599,104 C331.978599,104 331.251094,103.817673 330.409819,103.704398 L328.954809,103.34052 L330.155966,98.1205382 Z M313.589744,75.3845243 L313.952722,73.9255985 L323.958241,76.4263482 L323.799583,76.6771835 C323.5496,77.2927503 323.232283,78.5692716 323.164177,79.2303037 L323.187395,79.5266044 L318.09331,78.2534968 C315.365166,77.5714389 313,76.9803117 313,76.9803117 C313.227539,76.8434501 313.362979,76.2963142 313.589744,75.3845243 Z M324.085167,61.1554974 L325.448853,60.3340951 L330.774346,69.2197014 L330.547581,69.356563 C330.320042,69.4935022 328.615822,70.5201968 328.274514,70.7255668 L328.046975,70.8625059 L322.721482,61.9768996 L324.085167,61.1554974 Z M341.634296,92.7570228 C341.975604,92.5521959 343.679824,91.5249582 343.907363,91.388407 L344.134127,91.2510799 L349.528501,100.251048 L346.801131,101.893542 L341.407531,92.8943499 L341.634296,92.7570228 Z M338.864358,63.1062404 L340.134397,58 L341.590181,58.3637228 C342.499563,58.5910496 343.045191,58.7274457 343.113298,58.8414194 C343.113298,58.8414194 342.637324,61.1437043 341.84326,63.9476599 L340.573996,69.0539003 L340.323238,68.8945388 C339.527626,68.5987812 338.436369,68.3259115 337.77697,68.2579462 C337.595094,68.2124809 337.595094,68.2124809 337.595094,68.2124809 C337.595094,68.2124809 338.184064,65.8417652 338.864358,63.1062404 Z M348.24608,85.2086876 C348.4504,84.7757581 348.767717,83.4986937 348.790161,83.0207644 L348.812605,82.5420592 L359,85.0876535 L358.229154,88.1879873 L353.13507,86.9148022 C350.406151,86.2328219 348.041759,85.6416171 348.041759,85.6416171 C348.154755,85.5733415 348.200417,85.3910145 348.24608,85.2086876 Z M350.669291,70.4150679 L355.214651,67.677138 L356.853086,70.411111 L347.876136,75.8186176 L347.739922,75.5907477 C347.671041,75.4768516 347.329733,74.9072932 347.056531,74.4515535 C346.78333,73.9958913 346.510902,73.5402291 346.373915,73.3124369 L346.237701,73.084567 L350.669291,70.4150679 Z" id="Shape" fill="#FEDF50" fill-rule="nonzero"></path>
                    <path d="M98.8741503,288.964597 L103.305741,286.295637 L103.441954,286.522964 C103.647049,286.865118 104.602867,288.459512 104.807962,288.801666 L104.944175,289.029769 L96.0809947,294.368466 L94.4417861,291.634334 L98.8741503,288.964597 Z M109.15674,298.120528 L110.426004,293.01459 L110.607881,293.060365 C111.404267,293.355968 112.495525,293.629071 113.336799,293.742347 L113.518676,293.787347 L112.248637,298.894061 C111.568342,301.629746 110.978599,304 110.978599,304 C110.978599,304 110.251094,303.818449 109.409819,303.705173 L107.954809,303.341294 L109.15674,298.120528 Z M92.5905175,275.384709 L92.9527223,273.926091 L102.958241,276.42669 L102.799583,276.677293 C102.5496,277.29255 102.232283,278.569617 102.164177,279.23065 L102.187395,279.527029 L97.0940844,278.253841 C94.3651659,277.57186 92,276.980654 92,276.980654 C92.2275389,276.843327 92.3637526,276.296345 92.5905175,275.384709 Z M103.085167,261.155425 L104.448853,260.334565 L109.775119,269.21972 L109.547581,269.357048 C109.320042,269.493599 107.615822,270.520063 107.274514,270.725666 L107.047749,270.862993 L101.721482,261.977062 L103.085167,261.155425 Z M120.634296,292.75778 C120.975604,292.552177 122.679824,291.525713 122.907363,291.388386 L123.134901,291.251834 L128.528501,300.251042 L125.801131,301.893538 L120.407531,292.894331 L120.634296,292.75778 Z M117.865132,263.106715 L119.135171,258 L120.590181,258.363879 C121.499563,258.591206 122.045191,258.727757 122.114072,258.841809 C122.114072,258.841809 121.638098,261.143787 120.844034,263.947747 L119.573996,269.054462 L119.323238,268.894635 C118.527626,268.599032 117.436369,268.325929 116.77697,268.258429 C116.595094,268.212653 116.595094,268.212653 116.595094,268.212653 C116.595094,268.212653 117.184837,265.841623 117.865132,263.106715 Z M127.24608,285.208656 C127.4504,284.775726 127.767717,283.499435 127.790161,283.020729 L127.812605,282.542023 L138,285.088398 L137.229154,288.188737 L132.13507,286.915549 C129.406925,286.233568 127.041759,285.642362 127.041759,285.642362 C127.155529,285.574086 127.200417,285.390983 127.24608,285.208656 Z M129.669291,270.415322 L134.214651,267.677309 L135.85386,270.411442 L126.876136,275.818415 L126.739922,275.591088 C126.671815,275.477036 126.329733,274.907555 126.057305,274.452124 C125.784104,273.995918 125.510902,273.540488 125.373915,273.312385 L125.237701,273.085058 L129.669291,270.415322 Z" id="Shape" fill="#FEDF50" fill-rule="nonzero"></path>
                    <path d="M326.667472,281.042947 L332.25487,277.676705 L332.427628,277.963791 C332.685209,278.395201 333.890624,280.405585 334.148983,280.836994 L334.320963,281.12408 L323.145387,287.855784 L321.079295,284.408409 L326.667472,281.042947 Z M339.632104,292.587246 L341.23284,286.148869 L341.462405,286.206599 C342.46627,286.579499 343.842108,286.923534 344.90278,287.066297 L345.132346,287.123246 L343.530832,293.561623 C342.673268,297.011339 341.930097,300 341.930097,300 C341.930097,300 341.012612,299.770643 339.95194,299.62788 L338.11697,299.169166 L339.632104,292.587246 Z M318.743949,263.91997 L319.201524,262.080434 L331.817528,265.233701 L331.616755,265.549652 C331.301589,266.325877 330.901599,267.935276 330.815998,268.768451 L330.844791,269.142131 L324.422396,267.537412 C320.982021,266.676934 318,265.931914 318,265.931914 C318.286374,265.759506 318.458353,265.069095 318.743949,263.91997 Z M331.977057,245.978641 L333.696077,244.942634 L340.41185,256.146798 L340.124698,256.319206 C339.838324,256.491614 337.688966,257.786622 337.259405,258.045624 L336.973032,258.218032 L330.258037,247.014648 L331.977057,245.978641 Z M354.10409,285.824337 C354.534428,285.565336 356.683787,284.271107 356.97016,284.098699 L357.256534,283.925511 L364.057908,295.273219 L360.61909,297.344452 L353.817716,285.997525 L354.10409,285.824337 Z M350.612354,248.438377 L352.21309,242 L354.04806,242.458714 C355.195111,242.74502 355.88303,242.917428 355.969409,243.060971 C355.969409,243.060971 355.369425,245.963818 354.367896,249.499348 L352.76716,255.937724 L352.451216,255.736452 C351.44813,255.363552 350.071513,255.019517 349.240407,254.933703 C349.010841,254.876754 349.010841,254.876754 349.010841,254.876754 C349.010841,254.876754 349.754012,251.887312 350.612354,248.438377 Z M362.440831,276.306805 C362.698411,275.760717 363.098401,274.151317 363.126415,273.5475 L363.155209,272.944463 L376,276.15468 L375.028042,280.06389 L368.604868,278.458391 C365.164493,277.598693 362.182472,276.852893 362.182472,276.852893 C362.326437,276.767079 362.383245,276.536942 362.440831,276.306805 Z M365.496002,257.654001 L371.227365,254.201945 L373.293458,257.64854 L361.974695,264.466838 L361.801937,264.179752 C361.716337,264.036209 361.285998,263.317713 360.94126,262.74354 C360.596522,262.168588 360.252563,261.594415 360.080583,261.307329 L359.907825,261.019463 L365.496002,257.654001 Z" id="Shape" fill="#FC7879" fill-rule="nonzero"></path>
                    <path d="M6.87378651,116.964597 L11.3056239,114.295637 L11.4422251,114.522964 C11.6470107,114.865118 12.6029868,116.459512 12.8077724,116.801666 L12.9443736,117.029769 L4.08069884,122.368466 L2.44194913,119.634334 L6.87378651,116.964597 Z M17.156256,126.120528 L18.4262212,121.01459 L18.6081755,121.060365 C19.4040999,121.355968 20.4955936,121.629071 21.3369484,121.742347 L21.5188254,121.787347 L20.2488601,126.894061 C19.5684857,129.629746 18.9788175,132 18.9788175,132 C18.9788175,132 18.251155,131.818449 17.4098775,131.705173 L15.9545526,131.341294 L17.156256,126.120528 Z M0.590132546,103.384709 L0.952957645,101.926091 L10.9583551,104.42669 L10.7993869,104.677293 C10.5496351,105.29255 10.2321631,106.569617 10.1643656,107.23065 L10.1872743,107.527029 L5.09363717,106.253841 C2.36486427,105.57186 0,104.980654 0,104.980654 C0.227230053,104.843327 0.36336686,104.296345 0.590132546,103.384709 Z M11.0851271,89.1554251 L12.448817,88.3345646 L17.7746375,97.2197204 L17.5473301,97.3570477 C17.3201,97.4935991 15.615565,98.5200627 15.2746426,98.7256658 L15.0473351,98.8629931 L9.72151464,89.9770615 L11.0851271,89.1554251 Z M28.6345469,120.75778 C28.9754693,120.552177 30.6800043,119.525713 30.9073168,119.388386 L31.1345418,119.251834 L36.5287016,128.251042 L33.8013992,129.893538 L28.4073168,120.894331 L28.6345469,120.75778 Z M25.8647549,91.1067146 L27.1347975,86 L28.5901225,86.3638786 C29.4997392,86.5912058 30.0454474,86.7277573 30.1137092,86.8418088 C30.1137092,86.8418088 29.6377335,89.1437872 28.843744,91.9477475 L27.5737788,97.054462 L27.3235626,96.8946348 C26.5275608,96.5990319 25.4360672,96.3259289 24.776744,96.2584291 C24.5947897,96.2126533 24.5947897,96.2126533 24.5947897,96.2126533 C24.5947897,96.2126533 25.1844579,93.8416232 25.8647549,91.1067146 Z M35.2459662,113.208656 C35.4502875,112.775726 35.7678369,111.499435 35.7902813,111.020729 L35.8127257,110.542023 L46,113.088398 L45.2289193,116.188737 L40.1352821,114.915549 C37.4065092,114.233568 35.0416449,113.642362 35.0416449,113.642362 C35.0416449,113.642362 35.2006131,113.390983 35.2459662,113.208656 Z M37.6694181,98.4153216 L42.2148705,95.6773095 L43.8535428,98.4114423 L34.876253,103.818415 L34.7397293,103.591088 C34.6714674,103.477036 34.3300031,102.907555 34.0568782,102.452124 C33.7838306,101.995918 33.5107057,101.540488 33.3741045,101.312385 L33.2375807,101.085058 L37.6694181,98.4153216 Z" id="Shape" fill="#FC7879" fill-rule="nonzero"></path>
                    <path d="M108.5,78 C112.089529,78 115,75.0895294 115,71.5 C115,67.9104706 112.089529,65 108.5,65 C104.910471,65 102,67.9104706 102,71.5 C102,75.0895294 104.910471,78 108.5,78 Z" id="Path" stroke="#FEEA8E" stroke-width="3"></path>
                    <polygon id="Path" fill="#FEF0B1" fill-rule="nonzero" points="194.498423 23 184 14.4985016 192.501577 4 203 12.5014984"></polygon>
                    <polygon id="Path" fill="#FC7879" fill-rule="nonzero" points="262.45 61 252 52.45 260.55 42 271 50.55"></polygon>
                    <polygon id="Path" fill="#FC7879" fill-rule="nonzero" points="18.45 202 8 193.45 16.55 183 27 191.55"></polygon>
                    <path d="M200,309 C203.866333,309 207,306.089529 207,302.5 C207,298.910471 203.866333,296 200,296 C196.133667,296 193,298.910471 193,302.5 C193,306.089529 196.133667,309 200,309 Z" id="Path" stroke="#FDBCBC" stroke-width="3"></path>
                    <path d="M112,23 C115.866333,23 119,20.0898353 119,16.5 C119,12.9101647 115.866333,10 112,10 C108.133667,10 105,12.9101647 105,16.5 C105,20.0898353 108.133667,23 112,23 Z" id="Path" stroke="#FDBCBC" stroke-width="3"></path>
                    <path d="M277.5,13 C281.089835,13 284,10.0895294 284,6.5 C284,2.91047059 281.089835,0 277.5,0 C273.910165,0 271,2.91047059 271,6.5 C271,10.0895294 273.910165,13 277.5,13 Z" id="Path" stroke="#FEEA8E" stroke-width="3"></path>
                </g>
            </g>
        </g>
    </g>
</svg>