<svg width="16" height="16" viewBox="0 0 16 16" fill="none" xmlns="http://www.w3.org/2000/svg">
<path fill-rule="evenodd" clip-rule="evenodd" d="M7.73595 0.000623993C9.84396 0.0678017 11.9184 0.909563 13.5205 2.49256L13.5205 2.49259C15.1061 4.09203 15.9493 6.16306 15.9994 8.26759C16.0165 8.65496 15.6792 8.97458 15.2912 8.94104C14.9375 8.92393 14.6845 8.63785 14.6674 8.30113C14.6166 6.54965 13.9085 4.79902 12.5594 3.45212C11.2273 2.10515 9.47308 1.39816 7.70235 1.33042C7.36507 1.31399 7.07851 1.04434 7.06138 0.707612C7.02779 0.320245 7.34794 -0.0164734 7.73595 0.000623993ZM11.261 10.8601L13.3183 12.4766L13.3182 12.4765C13.6726 12.7625 13.7905 13.2341 13.6047 13.6543C13.3689 14.2101 12.5428 15.2032 12.2727 15.4728C10.7885 16.9718 7.36492 15.1196 4.12722 11.8702C0.889519 8.62081 -0.965529 5.21994 0.518644 3.72113C0.788772 3.45215 1.78348 2.62677 2.34013 2.39133C2.7446 2.22297 3.23406 2.34069 3.52062 2.69452L5.13984 4.74838C5.47712 5.16928 5.40926 5.77498 5.00479 6.12881L4.97929 6.15125C4.57162 6.50992 4.29461 6.75365 4.22878 6.81937C3.60428 7.44214 4.49821 8.72201 5.88093 10.1031C7.26446 11.4835 8.56279 12.3924 9.18663 11.7696C9.24422 11.7234 9.37279 11.5752 9.56667 11.3519L9.56671 11.3519C9.6567 11.2482 9.76076 11.1283 9.87832 10.9949C10.2321 10.5904 10.8394 10.5233 11.261 10.8601ZM7.433 5.94392C7.39873 5.4888 7.82033 5.15208 8.25907 5.25336L8.25909 5.25338C8.84933 5.38821 9.40598 5.69139 9.86117 6.14584C10.3164 6.60028 10.6201 7.15601 10.7386 7.72883C10.8394 8.16617 10.5021 8.58708 10.0469 8.55354C9.74324 8.53643 9.50675 8.33453 9.43956 8.04845C9.35524 7.69529 9.17013 7.35857 8.90004 7.08892C8.63062 6.81994 8.29334 6.63447 7.93892 6.55029C7.66883 6.46611 7.45013 6.23 7.433 5.94392ZM12.7108 8.75547C13.1153 8.78901 13.4526 8.43585 13.419 8.03138C13.3011 6.68448 12.7273 5.35475 11.699 4.3274C10.6701 3.30012 9.33807 2.72796 7.98894 2.61028C7.58447 2.57673 7.23006 2.91346 7.26365 3.31726C7.28078 3.63688 7.53375 3.90653 7.87103 3.94007C8.9336 4.02425 9.96183 4.47869 10.7551 5.28697C11.5647 6.09524 12.0028 7.12178 12.1042 8.1663C12.1042 8.48592 12.3737 8.73847 12.711 8.75557L12.7108 8.75547Z" fill="#57FFC4"/>
</svg>
