<svg width="478" height="117" viewBox="0 0 478 117" fill="none" xmlns="http://www.w3.org/2000/svg">
<path d="M183 33.14C182.476 33.1189 181.962 33.2856 181.55 33.61C181.092 34.0566 180.772 34.6261 180.63 35.25C180.358 36.267 180.191 37.3091 180.13 38.36C180.03 39.65 179.98 41.29 179.98 43.27H187.53V55.05H180V88H164.09V55H158.36V43.27H164.09C164.09 41.27 164.17 39.35 164.33 37.51C164.472 35.749 164.777 34.005 165.24 32.3C165.653 30.74 166.275 29.2431 167.09 27.85C167.883 26.5169 168.921 25.3463 170.15 24.4C171.511 23.383 173.046 22.6238 174.68 22.16C176.724 21.592 178.839 21.3225 180.96 21.36C182.713 21.3498 184.463 21.5241 186.18 21.88C187.729 22.1971 189.255 22.6146 190.75 23.13L186.09 33.65C185.624 33.5018 185.15 33.3815 184.67 33.29C184.119 33.1864 183.56 33.1361 183 33.14Z" fill="white"/>
<path d="M207.02 43.27H191.1V88.04H207.02V43.27Z" fill="white"/>
<path d="M191.18 30.07C191.172 29.0125 191.379 27.9645 191.79 26.99C192.174 26.0508 192.745 25.2001 193.47 24.49C194.191 23.7784 195.039 23.2086 195.97 22.81C196.934 22.3869 197.977 22.1723 199.03 22.18C200.092 22.1743 201.145 22.3888 202.12 22.81C203.054 23.2036 203.903 23.7741 204.62 24.49C205.333 25.2136 205.903 26.0652 206.3 27C206.722 27.9716 206.937 29.0207 206.93 30.08C206.939 31.1363 206.724 32.1824 206.3 33.15C205.892 34.0759 205.323 34.9222 204.62 35.65C203.908 36.3724 203.058 36.9438 202.12 37.33C201.14 37.7327 200.09 37.9366 199.03 37.93C197.486 37.9396 195.973 37.4904 194.684 36.6394C193.395 35.7885 192.388 34.574 191.79 33.15C191.376 32.1765 191.168 31.1278 191.18 30.07Z" fill="#24CF93"/>
<path d="M232.3 75.36L226.82 88H210.48L221.78 64.58L211.17 43.27H227.08L232.3 54.27L237.52 43.27H253.44L242.83 64.62L254.12 88H237.78L232.3 75.36Z" fill="white"/>
<path d="M257.59 43.27H273.51V47.54C274.066 45.9445 275.087 44.5516 276.44 43.54C277.943 42.4639 279.763 41.9218 281.61 42C284.121 41.9349 286.61 42.4841 288.86 43.6C290.949 44.7133 292.627 46.4652 293.65 48.6C294.594 46.6222 296.042 44.9285 297.85 43.69C299.775 42.5102 302.004 41.9225 304.26 42C306.552 41.9477 308.827 42.4054 310.92 43.34C312.819 44.2169 314.471 45.5498 315.73 47.22C317.104 49.0796 318.102 51.1888 318.67 53.43C319.367 56.1475 319.703 58.9448 319.67 61.75V88H303.74V61.73C303.74 60.61 303.74 59.56 303.63 58.59C303.585 57.728 303.42 56.8765 303.14 56.06C302.917 55.4182 302.539 54.8412 302.04 54.38C301.499 53.9712 300.839 53.75 300.16 53.75C299.482 53.75 298.821 53.9712 298.28 54.38C297.781 54.8412 297.403 55.4182 297.18 56.06C296.905 56.8778 296.74 57.7286 296.69 58.59C296.62 59.59 296.58 60.59 296.58 61.73V88H280.66V61.73C280.66 60.61 280.66 59.56 280.56 58.59C280.507 57.7281 280.339 56.8773 280.06 56.06C279.842 55.4156 279.464 54.8374 278.96 54.38C278.42 53.972 277.762 53.7512 277.085 53.7512C276.408 53.7512 275.75 53.972 275.21 54.38C274.706 54.8374 274.328 55.4156 274.11 56.06C273.831 56.8773 273.663 57.7281 273.61 58.59C273.54 59.59 273.51 60.59 273.51 61.73V88H257.59V43.27Z" fill="white"/>
<path d="M340.55 68.85L345.34 43.27H361.25L345.25 99.82C344.81 101.322 344.234 102.782 343.53 104.18C342.842 105.527 341.905 106.731 340.77 107.73C339.501 108.816 338.024 109.632 336.43 110.13C334.325 110.753 332.135 111.043 329.94 110.99C328.14 110.989 326.343 110.832 324.57 110.52C322.938 110.243 321.351 109.749 319.85 109.05L324.85 98.61C325.82 99.0122 326.86 99.2195 327.91 99.22C328.461 99.2461 329.003 99.076 329.44 98.74C329.914 98.2572 330.258 97.662 330.44 97.01C330.81 95.8993 331.097 94.7629 331.3 93.61C331.567 92.17 331.92 90.3133 332.36 88.04L319.85 43.27H335.76L340.55 68.85Z" fill="white"/>
<path d="M375.36 65.66C375.36 67.41 375.41 69.02 375.51 70.47C375.578 71.7461 375.817 73.0074 376.22 74.22C376.529 75.1656 377.081 76.0137 377.82 76.68C378.632 77.3088 379.645 77.6215 380.67 77.56C381.735 77.5863 382.774 77.2317 383.6 76.56C384.477 75.7964 385.182 74.8558 385.67 73.8L398.48 78.03C396.947 82.03 394.74 84.9067 391.86 86.66C388.98 88.4133 385.25 89.29 380.67 89.29C377.341 89.3793 374.029 88.7836 370.94 87.54C368.384 86.4747 366.126 84.8033 364.36 82.67C362.602 80.4642 361.331 77.9117 360.63 75.18C359.814 72.0565 359.417 68.8382 359.45 65.61C359.416 62.385 359.813 59.1699 360.63 56.05C361.337 53.3235 362.608 50.7754 364.36 48.57C366.119 46.4246 368.379 44.7452 370.94 43.68C374.034 42.4603 377.346 41.8885 380.67 42C385.237 42 388.967 42.8767 391.86 44.63C394.753 46.3833 396.96 49.26 398.48 53.26L385.67 57.48C385.177 56.4274 384.472 55.4878 383.6 54.72C382.771 54.0521 381.734 53.698 380.67 53.72C379.644 53.6622 378.631 53.9784 377.82 54.61C377.081 55.2763 376.529 56.1244 376.22 57.07C375.817 58.2826 375.578 59.5439 375.51 60.82C375.41 62.3 375.36 63.9 375.36 65.66Z" fill="white"/>
<path d="M400.22 74.59C400.171 72.5871 400.51 70.5936 401.22 68.72C401.865 67.0873 402.827 65.5986 404.05 64.34C405.248 63.1194 406.641 62.1057 408.17 61.34C409.735 60.5472 411.391 59.9462 413.1 59.55C414.844 59.1478 416.622 58.9101 418.41 58.84C420.147 58.7671 421.887 58.8474 423.61 59.08C423.622 58.0773 423.565 57.075 423.44 56.08C423.363 55.3995 423.115 54.7494 422.72 54.19C422.327 53.6952 421.783 53.3437 421.17 53.19C420.288 52.9646 419.38 52.8636 418.47 52.89C417.574 52.8952 416.68 52.9822 415.8 53.15C414.889 53.3194 413.988 53.5364 413.1 53.8C412.23 54.06 411.39 54.34 410.6 54.66C409.918 54.9282 409.25 55.232 408.6 55.57L403.38 46.38C404.478 45.6993 405.632 45.1138 406.83 44.63C408.188 44.0792 409.581 43.6182 411 43.25C412.491 42.8556 414.004 42.5451 415.53 42.32C417.073 42.0921 418.63 41.9784 420.19 41.98C423.158 41.9381 426.12 42.281 429 43C431.267 43.5137 433.351 44.6364 435.026 46.2471C436.702 47.8578 437.907 49.8953 438.51 52.14C439.324 55.021 439.704 58.007 439.64 61V88H423.72V84.12C423.409 84.7903 423.02 85.4214 422.56 86C422.069 86.6183 421.478 87.1491 420.81 87.57C420.021 88.0667 419.156 88.4315 418.25 88.65C417.048 88.9316 415.815 89.0626 414.58 89.04C412.573 89.0628 410.577 88.724 408.69 88.04C406.99 87.4229 405.444 86.4436 404.16 85.17C402.882 83.8738 401.891 82.3237 401.25 80.62C400.539 78.6903 400.19 76.6462 400.22 74.59ZM416.13 73.42C416.028 74.5952 416.387 75.764 417.13 76.68C417.505 77.0328 417.95 77.3039 418.435 77.476C418.92 77.6482 419.436 77.7176 419.95 77.68C420.523 77.7352 421.101 77.6274 421.615 77.3691C422.13 77.1109 422.562 76.7126 422.86 76.22C423.477 74.9803 423.766 73.6032 423.7 72.22V67.73C422.813 67.7035 421.926 67.7604 421.05 67.9C420.186 68.0278 419.352 68.3125 418.59 68.74C417.855 69.1621 417.239 69.7643 416.8 70.49C416.31 71.3861 416.079 72.4002 416.13 73.42Z" fill="white"/>
<path d="M470.31 55.18C469.439 54.7887 468.544 54.4547 467.63 54.18C466.722 53.9055 465.778 53.7673 464.83 53.77C463.991 53.6892 463.147 53.845 462.392 54.2197C461.637 54.5944 461.003 55.173 460.56 55.89C459.644 57.8264 459.228 59.9614 459.35 62.1V88H443.44V43.27H459.35V46.38C459.656 45.7767 460.043 45.2181 460.5 44.72C460.998 44.168 461.578 43.6958 462.22 43.32C462.946 42.8797 463.731 42.5431 464.55 42.32C465.514 42.0779 466.507 41.9702 467.5 42C469.163 41.9657 470.824 42.1472 472.44 42.54C473.704 42.8718 474.928 43.3413 476.09 43.94L470.31 55.18Z" fill="white"/>
<path d="M106.68 54C106.41 53.74 106.02 53.21 106.14 53.08L104.57 48.33C104.5 48.09 104.34 47.43 104.11 46.47C103.78 45.09 103.29 43.07 102.71 40.71L111.88 45.9V32.76L59.74 2.64999L7.6 32.76V45.93L16.68 40.79C16.43 41.79 16.19 42.7 15.97 43.49C15.58 44.94 15.18 46.49 14.65 48.36L13.34 53.11C13.47 53.24 13.47 53.37 13.6 53.5C13.34 53.64 12.94 53.77 12.81 54.03C7.14 59.44 4.1 66 4.24 73.94C4.37 78.69 4.76 83.3 5.24 88.04C5.5569 91.6622 6.54006 95.1948 8.14 98.46C8.37884 99.1575 8.79626 99.7803 9.35069 100.266C9.90512 100.752 10.5772 101.085 11.3 101.23C12.1 101.36 12.1 101.89 12.1 102.41V108.21C12.1 110.98 13.68 112.56 16.45 112.56H23.45C26.45 112.56 27.93 110.98 27.93 108.08V103.47C38.61 104.26 38.17 107.47 59.7 107.47C78.57 107.47 80.93 104.21 91.47 103.47V108.08C91.47 110.98 93.06 112.56 95.95 112.56H102.95C105.72 112.56 107.3 110.98 107.3 108.21V102.41C107.3 101.75 107.44 101.41 108.1 101.23C108.812 101.06 109.473 100.719 110.023 100.237C110.574 99.7538 110.998 99.144 111.26 98.46C112.816 95.1621 113.806 91.6262 114.19 88C114.71 83.39 115.11 78.64 115.19 73.9C115.288 70.1659 114.578 66.4546 113.11 63.0201C111.641 59.5855 109.448 56.5087 106.68 54ZM89.25 33.12L93 50.49C81.81 49.66 70.53 49.15 59.37 49.15C48.6 49.15 37.83 49.53 26.98 50.36L30.76 32.83L59.76 16.42L89.25 33.12ZM23.36 79.61C21.6903 79.612 20.0575 79.1187 18.6683 78.1925C17.279 77.2663 16.1957 75.9488 15.5553 74.4068C14.915 72.8647 14.7464 71.1674 15.0709 69.5296C15.3955 67.8917 16.1985 66.3869 17.3785 65.2056C18.5584 64.0242 20.0623 63.2194 21.6998 62.8929C23.3372 62.5664 25.0347 62.733 26.5775 63.3715C28.1203 64.01 29.4391 65.0918 30.3669 66.4799C31.2947 67.8681 31.79 69.5003 31.79 71.17C31.794 72.2786 31.5787 73.3771 31.1566 74.4022C30.7344 75.4273 30.1138 76.3589 29.3303 77.1433C28.5469 77.9276 27.6161 78.5494 26.5915 78.9727C25.5668 79.3961 24.4686 79.6126 23.36 79.61ZM78.41 88.72C77.75 89.14 71.58 92.82 59.9 93.52C59.12 93.52 58.36 93.59 57.62 93.59C47 93.59 41.19 89 40.53 88.4C39.5925 87.6136 39.0057 86.487 38.8988 85.268C38.7919 84.0491 39.1736 82.8375 39.96 81.9C40.7464 80.9625 41.873 80.3757 43.0919 80.2688C44.3109 80.1619 45.5225 80.5436 46.46 81.33C46.73 81.54 51.01 84.81 59.35 84.33C68.67 83.77 73.5 80.93 73.55 80.9C74.5931 80.2733 75.841 80.0825 77.0238 80.3688C78.2065 80.6551 79.229 81.3956 79.87 82.43C80.5067 83.4587 80.7106 84.6976 80.437 85.8761C80.1635 87.0546 79.4348 88.077 78.41 88.72ZM95.87 79.61C94.2003 79.612 92.5675 79.1187 91.1783 78.1925C89.789 77.2663 88.7057 75.9488 88.0653 74.4068C87.425 72.8647 87.2564 71.1674 87.5809 69.5296C87.9055 67.8917 88.7085 66.3869 89.8885 65.2056C91.0684 64.0242 92.5723 63.2194 94.2097 62.8929C95.8472 62.5664 97.5447 62.733 99.0875 63.3715C100.63 64.01 101.949 65.0918 102.877 66.4799C103.805 67.8681 104.3 69.5003 104.3 71.17C104.304 72.2786 104.089 73.3771 103.667 74.4022C103.244 75.4273 102.624 76.3589 101.84 77.1433C101.057 77.9276 100.126 78.5494 99.1014 78.9727C98.0768 79.3961 96.9786 79.6126 95.87 79.61Z" fill="white"/>
<path d="M95.95 77.55C99.5012 77.55 102.38 74.6712 102.38 71.12C102.38 67.5688 99.5012 64.69 95.95 64.69C92.3988 64.69 89.52 67.5688 89.52 71.12C89.52 74.6712 92.3988 77.55 95.95 77.55Z" fill="#24CF93"/>
<path d="M23.2 77.6C26.7512 77.6 29.63 74.7212 29.63 71.17C29.63 67.6188 26.7512 64.74 23.2 64.74C19.6488 64.74 16.77 67.6188 16.77 71.17C16.77 74.7212 19.6488 77.6 23.2 77.6Z" fill="#24CF93"/>
</svg>
