<svg id="Layer_1" data-name="Layer 1" xmlns="http://www.w3.org/2000/svg" viewBox="0 0 480.85 117.08"><defs><style>.cls-1{fill:#a6a8ab;}</style></defs><path d="M183,32.14a2.25,2.25,0,0,0-1.45.47,3.37,3.37,0,0,0-.92,1.64,15.51,15.51,0,0,0-.5,3.11c-.1,1.29-.15,2.93-.15,4.91h7.55V54.05H180v33H164.09v-33h-5.73V42.27h5.73c0-2,.08-3.9.24-5.75a28.67,28.67,0,0,1,.91-5.22,17.66,17.66,0,0,1,1.85-4.44,12,12,0,0,1,3.06-3.45,13.73,13.73,0,0,1,4.53-2.25,22,22,0,0,1,6.28-.8,25.66,25.66,0,0,1,5.22.52,38.23,38.23,0,0,1,4.57,1.25l-4.66,10.53a10.47,10.47,0,0,0-1.42-.37A8.7,8.7,0,0,0,183,32.14Z"/><rect x="191.1" y="42.27" width="15.92" height="44.77"/><path class="cls-1" d="M191.18,29.08a7.82,7.82,0,0,1,.61-3.09,7.54,7.54,0,0,1,1.68-2.5,8.45,8.45,0,0,1,2.5-1.68,7.48,7.48,0,0,1,3.06-.63,7.69,7.69,0,0,1,3.09.63A7.82,7.82,0,0,1,206.3,26a7.66,7.66,0,0,1,.63,3.09,7.48,7.48,0,0,1-.63,3.06,8.45,8.45,0,0,1-1.68,2.5,7.54,7.54,0,0,1-2.5,1.68,7.85,7.85,0,0,1-3.09.61,7.64,7.64,0,0,1-3.06-.61,7.82,7.82,0,0,1-4.18-4.18A7.64,7.64,0,0,1,191.18,29.08Z"/><path d="M232.3,74.37l-5.48,12.68H210.48l11.3-23.43L211.17,42.27h15.91l5.22,11,5.22-11h15.92L242.83,63.62l11.29,23.43H237.78Z"/><path d="M257.59,42.27h15.92v4.27a8.48,8.48,0,0,1,2.93-4A8.34,8.34,0,0,1,281.61,41a15.42,15.42,0,0,1,7.25,1.6,11.07,11.07,0,0,1,4.79,5,12.41,12.41,0,0,1,4.2-4.92A11.6,11.6,0,0,1,304.26,41a15.62,15.62,0,0,1,6.66,1.34,12.68,12.68,0,0,1,4.81,3.88,17.89,17.89,0,0,1,2.94,6.21,32,32,0,0,1,1,8.33V87.05H303.74V60.74c0-1.13,0-2.18-.11-3.15a9.31,9.31,0,0,0-.49-2.53,4.14,4.14,0,0,0-1.1-1.68,3.16,3.16,0,0,0-3.76,0,4.14,4.14,0,0,0-1.1,1.68,9.71,9.71,0,0,0-.49,2.53c-.07,1-.11,2-.11,3.15V87.05H280.66V60.74c0-1.13,0-2.18-.1-3.15a9.68,9.68,0,0,0-.5-2.53,4,4,0,0,0-1.1-1.68,3.15,3.15,0,0,0-3.75,0,4,4,0,0,0-1.1,1.68,9.68,9.68,0,0,0-.5,2.53c-.07,1-.1,2-.1,3.15V87.05H257.59Z"/><path d="M340.55,67.85l4.79-25.58h15.91l-16,56.55a25.86,25.86,0,0,1-1.72,4.36,11.68,11.68,0,0,1-7.1,5.95,21.08,21.08,0,0,1-6.49.86,31.07,31.07,0,0,1-5.37-.47,18.54,18.54,0,0,1-4.72-1.47l5-10.44a6.8,6.8,0,0,0,1.38.43,7.46,7.46,0,0,0,1.68.18,2.33,2.33,0,0,0,1.53-.48,4,4,0,0,0,1-1.72,24.47,24.47,0,0,0,.86-3.41q.4-2.16,1.06-5.56L319.85,42.27h15.91Z"/><path d="M375.36,64.66c0,1.75.05,3.36.15,4.81a14.29,14.29,0,0,0,.71,3.75,5.7,5.7,0,0,0,1.6,2.46,4.24,4.24,0,0,0,2.85.88,4.52,4.52,0,0,0,2.93-.94,8.45,8.45,0,0,0,2.07-2.76l12.81,4.22q-2.3,6-6.62,8.63t-11.19,2.63a24.31,24.31,0,0,1-9.73-1.75,17.06,17.06,0,0,1-6.58-4.87,20,20,0,0,1-3.73-7.49,36.36,36.36,0,0,1-1.18-9.57,36.15,36.15,0,0,1,1.18-9.55,20.21,20.21,0,0,1,3.73-7.49,17,17,0,0,1,6.58-4.89A24.31,24.31,0,0,1,380.67,41q6.85,0,11.19,2.63t6.62,8.63l-12.81,4.23a8.24,8.24,0,0,0-2.07-2.76,4.47,4.47,0,0,0-2.93-1,4.24,4.24,0,0,0-2.85.88,5.7,5.7,0,0,0-1.6,2.46,14.29,14.29,0,0,0-.71,3.75C375.41,61.3,375.36,62.91,375.36,64.66Z"/><path d="M400.22,73.59a15.53,15.53,0,0,1,1-5.87,13.49,13.49,0,0,1,2.83-4.38,15.45,15.45,0,0,1,4.12-3,21.33,21.33,0,0,1,4.93-1.79,28.63,28.63,0,0,1,5.31-.72,29.6,29.6,0,0,1,5.2.24,21.82,21.82,0,0,0-.17-3,4.11,4.11,0,0,0-.72-1.9,2.86,2.86,0,0,0-1.55-1,9.35,9.35,0,0,0-2.7-.31,14.71,14.71,0,0,0-2.67.26,26.56,26.56,0,0,0-2.7.65c-.87.26-1.71.55-2.5.86a21,21,0,0,0-2,.91l-5.22-9.19a23.59,23.59,0,0,1,3.45-1.75A33.48,33.48,0,0,1,411,42.25a43.74,43.74,0,0,1,4.53-.92,31.68,31.68,0,0,1,4.66-.35A34.37,34.37,0,0,1,429,42a12.76,12.76,0,0,1,9.51,9.15A30.09,30.09,0,0,1,439.64,60V87.05H423.72V83.12A9.35,9.35,0,0,1,422.56,85a7.06,7.06,0,0,1-1.75,1.58,8.85,8.85,0,0,1-2.56,1.07,14.9,14.9,0,0,1-3.67.39,16.73,16.73,0,0,1-5.89-1,12.48,12.48,0,0,1-4.53-2.87,13,13,0,0,1-2.91-4.55A16.74,16.74,0,0,1,400.22,73.59Zm15.91-1.17a4.53,4.53,0,0,0,1,3.26A3.69,3.69,0,0,0,420,76.74a3.07,3.07,0,0,0,2.91-1.47,8.08,8.08,0,0,0,.84-4V66.73a14.15,14.15,0,0,0-2.65.17,7.62,7.62,0,0,0-2.46.84,5,5,0,0,0-1.79,1.75A5.55,5.55,0,0,0,416.13,72.42Z"/><path d="M470.31,54.18a21.86,21.86,0,0,0-2.68-1,9.25,9.25,0,0,0-2.8-.41,4.5,4.5,0,0,0-4.27,2.11,12.82,12.82,0,0,0-1.21,6.21v26H443.44V42.27h15.91v3.11a7.62,7.62,0,0,1,1.15-1.66,7.26,7.26,0,0,1,1.72-1.4,9.48,9.48,0,0,1,2.33-1A10.78,10.78,0,0,1,467.5,41a19.24,19.24,0,0,1,4.94.54,17.87,17.87,0,0,1,3.65,1.4Z"/><path d="M106.68,53c-.27-.26-.66-.79-.54-.92l-1.57-4.74c-.07-.25-.23-.9-.46-1.87-.33-1.38-.82-3.4-1.4-5.76l9.17,5.2V31.76L59.74,1.65,7.6,31.76V44.94l9.08-5.14c-.25,1-.49,1.91-.71,2.69-.39,1.45-.79,3-1.32,4.88l-1.31,4.74c.13.13.13.26.26.4-.26.13-.66.26-.79.52C7.14,58.44,4.1,65,4.24,72.94c.13,4.75.52,9.36,1,14.11a29.54,29.54,0,0,0,2.9,10.41,4.22,4.22,0,0,0,3.16,2.77c.8.13.8.66.8,1.18v5.8c0,2.77,1.58,4.35,4.35,4.35h7c3,0,4.48-1.58,4.48-4.48v-4.61c10.68.79,10.24,4.06,31.77,4.06,18.87,0,21.23-3.27,31.77-4.06v4.61c0,2.9,1.59,4.48,4.48,4.48h7c2.77,0,4.35-1.58,4.35-4.35v-5.8c0-.66.14-1,.8-1.18a4.46,4.46,0,0,0,3.16-2.77,32.56,32.56,0,0,0,2.9-10.41c.52-4.62.92-9.37,1-14.11A25.94,25.94,0,0,0,106.68,53ZM89.25,32.12,93,49.49c-11.19-.83-22.47-1.34-33.63-1.34-10.77,0-21.54.38-32.39,1.21l3.78-17.53,29-16.41ZM23.36,78.61a8.44,8.44,0,1,1,8.43-8.43A8.41,8.41,0,0,1,23.36,78.61Zm55.05,9.11c-.66.42-6.83,4.1-18.51,4.8-.78,0-1.54.07-2.28.07C47,92.59,41.19,88,40.53,87.4a4.61,4.61,0,0,1,5.93-7.07c.27.21,4.55,3.48,12.89,3,9.32-.56,14.15-3.4,14.2-3.43a4.63,4.63,0,0,1,6.32,1.54A4.57,4.57,0,0,1,78.41,87.72Zm17.46-9.11a8.44,8.44,0,1,1,8.43-8.43A8.41,8.41,0,0,1,95.87,78.61Z"/><circle class="cls-1" cx="95.95" cy="70.13" r="6.43"/><circle class="cls-1" cx="23.2" cy="70.17" r="6.43"/></svg>