<svg id="Layer_1" data-name="Layer 1" xmlns="http://www.w3.org/2000/svg" viewBox="0 0 227.46 254.75"><defs><style>.cls-1{fill:#a6a8ab;}</style></defs><path d="M22.4,194.82a1.5,1.5,0,0,0-1,.33,2.12,2.12,0,0,0-.64,1.13,10.55,10.55,0,0,0-.35,2.14c-.07.9-.1,2-.1,3.4h5.21V210H20.32v22.79h-11V210h-4v-8.13h4c0-1.37.05-2.7.16-4a20.77,20.77,0,0,1,.62-3.6,12.27,12.27,0,0,1,1.29-3.07,8.3,8.3,0,0,1,2.11-2.39,9.64,9.64,0,0,1,3.13-1.54,15,15,0,0,1,4.33-.56,17.33,17.33,0,0,1,3.61.36,26.29,26.29,0,0,1,3.16.87l-3.22,7.27a8.19,8.19,0,0,0-1-.26A6,6,0,0,0,22.4,194.82Z"/><rect x="27.98" y="201.82" width="10.99" height="30.93"/><path class="cls-1" d="M28,192.7a5.65,5.65,0,0,1,.41-2.13,5.29,5.29,0,0,1,1.17-1.73,5.85,5.85,0,0,1,1.72-1.16,5.19,5.19,0,0,1,2.12-.43,5.3,5.3,0,0,1,2.13.43,5.65,5.65,0,0,1,1.73,1.16,5.77,5.77,0,0,1,1.16,1.73,5.3,5.3,0,0,1,.43,2.13,5.19,5.19,0,0,1-.43,2.12,6,6,0,0,1-1.16,1.73,5.32,5.32,0,0,1-1.73,1.16,5.46,5.46,0,0,1-2.13.41,5.34,5.34,0,0,1-2.12-.41,5.36,5.36,0,0,1-3.3-5Z"/><path d="M56.44,224l-3.78,8.75H41.36l7.81-16.17-7.33-14.75h11l3.61,7.63,3.6-7.63H71l-7.33,14.75,7.8,16.17H60.22Z"/><path d="M73.91,201.82h11v3a5.91,5.91,0,0,1,2-2.76,5.74,5.74,0,0,1,3.57-1.08,10.64,10.64,0,0,1,5,1.1,7.6,7.6,0,0,1,3.3,3.42,8.62,8.62,0,0,1,2.91-3.39,7.93,7.93,0,0,1,4.42-1.13,10.75,10.75,0,0,1,4.61.92,8.73,8.73,0,0,1,3.32,2.68,12.38,12.38,0,0,1,2,4.29,22.4,22.4,0,0,1,.68,5.75v18.17h-11V214.57c0-.77,0-1.5-.08-2.17a6.47,6.47,0,0,0-.34-1.75,2.83,2.83,0,0,0-.76-1.16,2.17,2.17,0,0,0-2.59,0,2.83,2.83,0,0,0-.76,1.16,6.45,6.45,0,0,0-.35,1.75c0,.67-.07,1.4-.07,2.17v18.17h-11V214.57c0-.77,0-1.5-.08-2.17a6.47,6.47,0,0,0-.34-1.75,2.83,2.83,0,0,0-.76-1.16,2.17,2.17,0,0,0-2.59,0,2.83,2.83,0,0,0-.76,1.16A6.47,6.47,0,0,0,85,212.4c0,.67-.08,1.4-.08,2.17v18.17h-11Z"/><path d="M131.21,219.49l3.31-17.67h11l-11,39.06a17.8,17.8,0,0,1-1.19,3,8.41,8.41,0,0,1-1.91,2.46,8.51,8.51,0,0,1-3,1.65,14.39,14.39,0,0,1-4.49.6,21,21,0,0,1-3.71-.33,12.72,12.72,0,0,1-3.26-1l3.43-7.21a5.34,5.34,0,0,0,2.11.42,1.62,1.62,0,0,0,1.06-.33,2.64,2.64,0,0,0,.72-1.19,15.86,15.86,0,0,0,.59-2.35c.19-1,.43-2.28.73-3.85l-8.64-30.92h11Z"/><path d="M155.26,217.28c0,1.21,0,2.32.1,3.32a10.2,10.2,0,0,0,.49,2.6,3.85,3.85,0,0,0,1.11,1.69,2.9,2.9,0,0,0,2,.62,3.1,3.1,0,0,0,2-.66,5.81,5.81,0,0,0,1.43-1.91l8.85,2.92a11.42,11.42,0,0,1-4.58,6,14.72,14.72,0,0,1-7.73,1.82,16.78,16.78,0,0,1-6.72-1.21,11.74,11.74,0,0,1-4.54-3.36,14,14,0,0,1-2.58-5.17,27.05,27.05,0,0,1,0-13.22,14.12,14.12,0,0,1,2.58-5.17,11.78,11.78,0,0,1,4.54-3.38,17,17,0,0,1,6.72-1.2,14.72,14.72,0,0,1,7.73,1.81,11.42,11.42,0,0,1,4.58,6l-8.85,2.92a5.92,5.92,0,0,0-1.43-1.91,3.15,3.15,0,0,0-2-.65,2.89,2.89,0,0,0-2,.61,3.88,3.88,0,0,0-1.11,1.7,10.11,10.11,0,0,0-.49,2.59C155.29,215,155.26,216.07,155.26,217.28Z"/><path d="M172.43,223.45a10.8,10.8,0,0,1,.71-4,9.51,9.51,0,0,1,2-3,10.88,10.88,0,0,1,2.85-2.08,14.77,14.77,0,0,1,3.41-1.24,19.52,19.52,0,0,1,3.67-.49,20.21,20.21,0,0,1,3.59.16,14.52,14.52,0,0,0-.12-2,2.83,2.83,0,0,0-.5-1.31,2,2,0,0,0-1.07-.7,6.66,6.66,0,0,0-1.86-.21,10,10,0,0,0-1.85.18q-.94.18-1.86.45c-.61.18-1.18.38-1.73.59a14.55,14.55,0,0,0-1.38.63L174.63,204a16.63,16.63,0,0,1,2.39-1.2,22.29,22.29,0,0,1,2.86-1,30.75,30.75,0,0,1,3.12-.64,25.68,25.68,0,0,1,9.31.45,9.53,9.53,0,0,1,4.18,2.25,9.3,9.3,0,0,1,2.39,4.07,20.66,20.66,0,0,1,.78,6.1v18.71h-11V230a6.66,6.66,0,0,1-.81,1.33,4.92,4.92,0,0,1-1.21,1.09,6,6,0,0,1-1.77.74,10.21,10.21,0,0,1-2.53.27,11.47,11.47,0,0,1-4.07-.69,8.54,8.54,0,0,1-3.13-2,9,9,0,0,1-2-3.14A11.7,11.7,0,0,1,172.43,223.45Zm11-.81a3.11,3.11,0,0,0,.7,2.25,2.57,2.57,0,0,0,1.95.73,2.1,2.1,0,0,0,2-1,5.53,5.53,0,0,0,.59-2.77v-3.13a9.64,9.64,0,0,0-1.84.12,5,5,0,0,0-1.7.58,3.47,3.47,0,0,0-1.23,1.21A3.8,3.8,0,0,0,183.42,222.64Z"/><path d="M220.84,210a15.37,15.37,0,0,0-1.84-.7,6.6,6.6,0,0,0-1.94-.28,3.12,3.12,0,0,0-2.95,1.46,8.76,8.76,0,0,0-.83,4.29v17.93h-11V201.82h11V204a5.09,5.09,0,0,1,.79-1.14,4.8,4.8,0,0,1,1.19-1,6.39,6.39,0,0,1,1.61-.67,7.5,7.5,0,0,1,2-.25,13.3,13.3,0,0,1,3.41.37,12.34,12.34,0,0,1,2.52,1Z"/><path d="M182.25,76.08c-.38-.37-.94-1.12-.76-1.31L179.24,68c-.1-.35-.33-1.29-.66-2.67-.48-2-1.17-4.87-2-8.24L189.7,64.5V45.65L115.1,2.58,40.49,45.65V64.5l13-7.35c-.36,1.43-.7,2.73-1,3.85-.57,2.08-1.14,4.34-1.89,7l-1.88,6.79c.19.19.19.37.37.56-.37.19-.94.38-1.13.75-8.11,7.74-12.45,17.17-12.26,28.49.19,6.79.75,13.39,1.51,20.18a41.89,41.89,0,0,0,4.15,14.9c.94,2.07,2.26,3.58,4.52,4,1.13.19,1.13.94,1.13,1.7v8.29c0,4,2.27,6.23,6.23,6.23h10c4.34,0,6.41-2.26,6.41-6.41v-6.6c15.28,1.13,14.65,5.8,45.46,5.8,27,0,30.37-4.68,45.46-5.8v6.6c0,4.15,2.26,6.41,6.41,6.41h10c4,0,6.22-2.26,6.22-6.23v-8.29c0-.95.19-1.51,1.14-1.7,2.26-.37,3.58-2.08,4.52-4a46.49,46.49,0,0,0,4.15-14.9c.75-6.6,1.32-13.4,1.51-20.18C194.7,93.25,190.36,83.82,182.25,76.08ZM157.32,46.17,162.67,71c-16-1.19-32.14-1.91-48.12-1.91-15.41,0-30.81.54-46.33,1.72l5.4-25.08L115.1,22.28ZM63.05,112.68a12.07,12.07,0,1,1,12.06-12.07A12,12,0,0,1,63.05,112.68Zm78.76,13c-.95.6-9.77,5.86-26.48,6.86-1.12.07-2.21.1-3.27.1-15.26,0-23.5-6.62-24.45-7.43a6.6,6.6,0,0,1,8.5-10.1c.37.29,6.5,5,18.43,4.25,13.33-.8,20.25-4.86,20.32-4.9a6.6,6.6,0,0,1,6.95,11.22Zm25-13a12.07,12.07,0,1,1,12.07-12.07A12.15,12.15,0,0,1,166.78,112.68Z"/><circle class="cls-1" cx="166.9" cy="100.54" r="9.2"/><circle class="cls-1" cx="62.82" cy="100.61" r="9.2"/></svg>