<svg id="Layer_1" data-name="Layer 1" xmlns="http://www.w3.org/2000/svg" viewBox="0 0 477.86 116.08"><defs><style>.cls-1{fill:#5e53a3;}.cls-2{fill:#24cf93;}</style></defs><path class="cls-1" d="M183,33.14a2.2,2.2,0,0,0-1.45.47,3.32,3.32,0,0,0-.92,1.64,15.51,15.51,0,0,0-.5,3.11c-.1,1.29-.15,2.93-.15,4.91h7.55V55.05H180V88H164.09v-33h-5.73V43.27h5.73q0-3,.24-5.76a28.71,28.71,0,0,1,.91-5.21,17.89,17.89,0,0,1,1.85-4.45,12.27,12.27,0,0,1,3.06-3.45,13.91,13.91,0,0,1,4.53-2.24,22,22,0,0,1,6.28-.8,25,25,0,0,1,5.22.52,36.44,36.44,0,0,1,4.57,1.25l-4.66,10.52a12.24,12.24,0,0,0-1.42-.36A8.7,8.7,0,0,0,183,33.14Z"/><rect class="cls-1" x="191.1" y="43.27" width="15.92" height="44.77"/><path class="cls-2" d="M191.18,30.07a7.77,7.77,0,0,1,.61-3.08,7.44,7.44,0,0,1,1.68-2.5,8.09,8.09,0,0,1,2.5-1.68,7.48,7.48,0,0,1,3.06-.63,7.69,7.69,0,0,1,3.09.63,7.86,7.86,0,0,1,2.5,1.68A8.08,8.08,0,0,1,206.3,27a7.61,7.61,0,0,1,.63,3.08,7.5,7.5,0,0,1-.63,3.07,8.58,8.58,0,0,1-1.68,2.5,7.54,7.54,0,0,1-2.5,1.68,8,8,0,0,1-3.09.6,7.8,7.8,0,0,1-7.24-4.78A7.65,7.65,0,0,1,191.18,30.07Z"/><path class="cls-1" d="M232.3,75.36,226.82,88H210.48l11.3-23.42L211.17,43.27h15.91l5.22,11,5.22-11h15.92L242.83,64.62,254.12,88H237.78Z"/><path class="cls-1" d="M257.59,43.27h15.92v4.27a8.48,8.48,0,0,1,2.93-4A8.28,8.28,0,0,1,281.61,42a15.42,15.42,0,0,1,7.25,1.6,11.1,11.1,0,0,1,4.79,5,12.45,12.45,0,0,1,4.2-4.91A11.51,11.51,0,0,1,304.26,42a15.47,15.47,0,0,1,6.66,1.34,12.68,12.68,0,0,1,4.81,3.88,17.81,17.81,0,0,1,2.94,6.21,32,32,0,0,1,1,8.32V88H303.74V61.73c0-1.12,0-2.17-.11-3.14a9.31,9.31,0,0,0-.49-2.53,4.14,4.14,0,0,0-1.1-1.68,3.12,3.12,0,0,0-3.76,0,4.14,4.14,0,0,0-1.1,1.68,9.71,9.71,0,0,0-.49,2.53c-.07,1-.11,2-.11,3.14V88H280.66V61.73c0-1.12,0-2.17-.1-3.14a9.68,9.68,0,0,0-.5-2.53,4,4,0,0,0-1.1-1.68,3.11,3.11,0,0,0-3.75,0,4,4,0,0,0-1.1,1.68,9.68,9.68,0,0,0-.5,2.53c-.07,1-.1,2-.1,3.14V88H257.59Z"/><path class="cls-1" d="M340.55,68.85l4.79-25.58h15.91l-16,56.55a25.86,25.86,0,0,1-1.72,4.36,12,12,0,0,1-2.76,3.55,12.33,12.33,0,0,1-4.34,2.4,21.08,21.08,0,0,1-6.49.86,31.07,31.07,0,0,1-5.37-.47,18.54,18.54,0,0,1-4.72-1.47l5-10.44a8,8,0,0,0,3.06.61,2.33,2.33,0,0,0,1.53-.48,4,4,0,0,0,1-1.73,23.91,23.91,0,0,0,.86-3.4q.4-2.16,1.06-5.57L319.85,43.27h15.91Z"/><path class="cls-1" d="M375.36,65.66c0,1.75.05,3.36.15,4.81a14.29,14.29,0,0,0,.71,3.75,5.7,5.7,0,0,0,1.6,2.46,4.24,4.24,0,0,0,2.85.88,4.47,4.47,0,0,0,2.93-1,8.24,8.24,0,0,0,2.07-2.76l12.81,4.23q-2.3,6-6.62,8.63t-11.19,2.63a24.31,24.31,0,0,1-9.73-1.75,17.06,17.06,0,0,1-6.58-4.87,20,20,0,0,1-3.73-7.49,36.36,36.36,0,0,1-1.18-9.57,36.23,36.23,0,0,1,1.18-9.56,20.16,20.16,0,0,1,3.73-7.48,16.9,16.9,0,0,1,6.58-4.89A24.31,24.31,0,0,1,380.67,42q6.85,0,11.19,2.63t6.62,8.63l-12.81,4.22a8.45,8.45,0,0,0-2.07-2.76,4.52,4.52,0,0,0-2.93-1,4.25,4.25,0,0,0-2.85.89,5.7,5.7,0,0,0-1.6,2.46,14.29,14.29,0,0,0-.71,3.75C375.41,62.3,375.36,63.9,375.36,65.66Z"/><path class="cls-1" d="M400.22,74.59a15.49,15.49,0,0,1,1-5.87,13.28,13.28,0,0,1,2.83-4.38,15.49,15.49,0,0,1,4.12-3,21.81,21.81,0,0,1,4.93-1.79,28.62,28.62,0,0,1,5.31-.71,29.6,29.6,0,0,1,5.2.24,22.09,22.09,0,0,0-.17-3,4.07,4.07,0,0,0-.72-1.89,2.87,2.87,0,0,0-1.55-1,9.76,9.76,0,0,0-2.7-.3,14.71,14.71,0,0,0-2.67.26,26.56,26.56,0,0,0-2.7.65c-.87.26-1.71.54-2.5.86a21,21,0,0,0-2,.91l-5.22-9.19a22.64,22.64,0,0,1,3.45-1.75A33.48,33.48,0,0,1,411,43.25a41.28,41.28,0,0,1,4.53-.93,31.67,31.67,0,0,1,4.66-.34A34.37,34.37,0,0,1,429,43a12.77,12.77,0,0,1,9.51,9.14A30.21,30.21,0,0,1,439.64,61V88H423.72V84.12A9.35,9.35,0,0,1,422.56,86a7,7,0,0,1-1.75,1.57,8.58,8.58,0,0,1-2.56,1.08,14.9,14.9,0,0,1-3.67.39,16.73,16.73,0,0,1-5.89-1,12.48,12.48,0,0,1-4.53-2.87,13,13,0,0,1-2.91-4.55A16.74,16.74,0,0,1,400.22,74.59Zm15.91-1.17a4.55,4.55,0,0,0,1,3.26,3.72,3.72,0,0,0,2.82,1,3.06,3.06,0,0,0,2.91-1.46,8.11,8.11,0,0,0,.84-4V67.73a14.15,14.15,0,0,0-2.65.17,7.17,7.17,0,0,0-2.46.84,5,5,0,0,0-1.79,1.75A5.53,5.53,0,0,0,416.13,73.42Z"/><path class="cls-1" d="M470.31,55.18a21.94,21.94,0,0,0-2.68-1,9.58,9.58,0,0,0-2.8-.41,4.51,4.51,0,0,0-4.27,2.12,12.82,12.82,0,0,0-1.21,6.21V88H443.44V43.27h15.91v3.11a7.39,7.39,0,0,1,1.15-1.66,7.26,7.26,0,0,1,1.72-1.4,9.11,9.11,0,0,1,2.33-1A10.78,10.78,0,0,1,467.5,42a19.24,19.24,0,0,1,4.94.54,17.87,17.87,0,0,1,3.65,1.4Z"/><path class="cls-1" d="M106.68,54c-.27-.26-.66-.79-.54-.92l-1.57-4.75c-.07-.24-.23-.9-.46-1.86-.33-1.38-.82-3.4-1.4-5.76l9.17,5.19V32.76L59.74,2.65,7.6,32.76V45.93l9.08-5.14c-.25,1-.49,1.91-.71,2.7-.39,1.45-.79,3-1.32,4.87l-1.31,4.75c.13.13.13.26.26.39-.26.14-.66.27-.79.53C7.14,59.44,4.1,66,4.24,73.94c.13,4.75.52,9.36,1,14.1a29.53,29.53,0,0,0,2.9,10.42,4.22,4.22,0,0,0,3.16,2.77c.8.13.8.66.8,1.18v5.8c0,2.77,1.58,4.35,4.35,4.35h7c3,0,4.48-1.58,4.48-4.48v-4.61c10.68.79,10.24,4,31.77,4,18.87,0,21.23-3.26,31.77-4v4.61c0,2.9,1.59,4.48,4.48,4.48h7c2.77,0,4.35-1.58,4.35-4.35v-5.8c0-.66.14-1,.8-1.18a4.5,4.5,0,0,0,3.16-2.77A32.55,32.55,0,0,0,114.19,88c.52-4.61.92-9.36,1-14.1A25.94,25.94,0,0,0,106.68,54ZM89.25,33.12,93,50.49c-11.19-.83-22.47-1.34-33.63-1.34-10.77,0-21.54.38-32.39,1.21l3.78-17.53,29-16.41ZM23.36,79.61a8.44,8.44,0,1,1,8.43-8.44A8.41,8.41,0,0,1,23.36,79.61Zm55.05,9.11c-.66.42-6.83,4.1-18.51,4.8-.78,0-1.54.07-2.28.07C47,93.59,41.19,89,40.53,88.4a4.61,4.61,0,0,1,5.93-7.07c.27.21,4.55,3.48,12.89,3,9.32-.56,14.15-3.4,14.2-3.43a4.63,4.63,0,0,1,6.32,1.53A4.58,4.58,0,0,1,78.41,88.72Zm17.46-9.11a8.44,8.44,0,1,1,8.43-8.44A8.41,8.41,0,0,1,95.87,79.61Z"/><circle class="cls-2" cx="95.95" cy="71.12" r="6.43"/><circle class="cls-2" cx="23.2" cy="71.17" r="6.43"/></svg>