<?xml version="1.0" encoding="UTF-8"?>
<svg width="53px" height="53px" viewBox="0 0 53 53" version="1.1" xmlns="http://www.w3.org/2000/svg" xmlns:xlink="http://www.w3.org/1999/xlink">
    <title>Clip 4</title>
    <g id="Diagnosis-Flow-Web-Final" stroke="none" stroke-width="1" fill="none" fill-rule="evenodd">
        <g id="006-Sign-up---007" transform="translate(-560.000000, -274.000000)" fill="#79739C">
            <g id="Group-6" transform="translate(-180.000000, 0.000000)">
                <path d="M769.867442,274 C770.345084,274 770.747353,274.648754 770.830849,275.496567 L770.846743,275.82295 L770.846881,278.923773 C783.244155,279.910462 793,290.275667 793,302.926058 C793,315.931491 782.696172,326.527863 769.805942,327 L767.999,327 C756.049586,326.55614 746.331261,317.406961 744.984628,305.709028 L744.904208,304.887235 L741.823047,304.887235 C740.930208,304.887235 740.184206,304.540059 740.029451,304.083761 L740,303.907999 L740,302.928762 C740,287.262265 752.455748,274.505481 768.002408,274.014622 L768.885646,274 L769.867442,274 Z M770.848718,282.854168 L770.848718,285.902481 C770.848718,286.79525 770.199949,287.541202 769.352087,287.695947 L769.025685,287.725396 L768.882526,287.725396 C760.751992,287.737271 754.116358,294.13403 753.721587,302.169103 L753.703023,302.903945 L753.703023,303.067163 C753.703023,303.959932 753.054254,304.705884 752.206392,304.860629 L751.87999,304.890077 L748.833988,304.890077 C749.821397,315.104231 758.429122,323.096905 768.908108,323.096905 C780.046558,323.096905 789.076628,314.064858 789.076628,302.928935 C789.076628,292.443526 781.076397,283.830909 770.848718,282.854168 Z M768.927796,291.104441 C775.158872,291.104441 780.376313,296.149417 780.717219,302.307869 L780.734931,302.948761 C780.732519,309.164689 775.706407,314.369639 769.566808,314.730143 L768.927866,314.749998 C768.917813,314.752493 768.912787,314.749998 768.905265,314.749998 L768.895226,314.751246 L768.885161,314.752493 C762.459429,314.727468 757.080591,309.379343 757.080591,302.948761 C757.080591,296.720236 762.090459,291.465667 768.244602,291.122283 L768.885161,291.104441 L768.884814,291.254245 L768.927796,291.104441 Z M768.907761,308.319451 C767.606961,308.319451 766.552338,309.374075 766.552338,310.674721 C766.552338,311.975436 767.60703,313.030025 768.907761,313.030025 C770.208561,313.030025 771.26575,311.975367 771.26575,310.674721 C771.26575,309.374005 770.211022,308.319451 768.907761,308.319451 Z M768.895178,298.968905 L768.895178,299.061796 C767.01322,299.061796 765.284322,300.665126 765.062166,302.516163 L765.038117,302.916111 L765.038117,302.943735 C765.038117,304.823275 766.641551,306.551877 768.494738,306.774004 L768.895178,306.79805 L768.920309,306.79805 C770.8023,306.79805 772.53117,305.19475 772.753322,303.34369 L772.77737,302.943735 L772.779901,302.94124 L772.779901,302.916111 C772.779901,300.902354 770.939224,299.061796 768.922805,299.061796 C768.922805,299.061796 768.910257,299.02412 768.895178,298.968905 Z M761.178838,300.593006 C759.878037,300.593006 758.823379,301.647595 758.823379,302.948311 C758.823379,304.248992 759.878107,305.306076 761.178838,305.306076 C762.482168,305.306076 763.536791,304.248957 763.5343,302.948311 C763.5343,301.647595 762.479638,300.593006 761.178838,300.593006 Z M776.636962,300.593452 C775.336162,300.593452 774.281504,301.648046 774.281504,302.948761 C774.281504,304.249477 775.336162,305.306562 776.636962,305.306562 C777.937762,305.306562 778.99242,304.249407 778.99242,302.948761 C778.99242,301.645516 777.937693,300.590961 776.636962,300.593452 Z M766.926491,278.009872 C754.984542,278.956687 745.409048,288.287909 744.085605,300.118413 L744.005187,300.96762 L749.881183,300.96762 C750.7701,292.251049 757.512755,285.264687 766.115078,284.006704 L766.926872,283.905673 L766.926491,278.009872 Z M768.907761,292.86462 C767.604465,292.86462 766.549807,293.919279 766.552333,295.219925 C766.552333,296.52064 767.60703,297.57523 768.907761,297.57523 C770.211057,297.57523 771.26575,296.520571 771.26575,295.219925 C771.26575,293.91921 770.211022,292.86462 768.907761,292.86462 Z" id="Clip-4"></path>
            </g>
        </g>
    </g>
</svg>