<?xml version="1.0" encoding="UTF-8"?>
<svg width="33px" height="53px" viewBox="0 0 33 53" version="1.1" xmlns="http://www.w3.org/2000/svg" xmlns:xlink="http://www.w3.org/1999/xlink">
    <title>oil change</title>
    <g id="Repair-Flow-Web-Final" stroke="none" stroke-width="1" fill="none" fill-rule="evenodd">
        <g id="003-Sign-up" transform="translate(-926.000000, -274.000000)" fill="#FFFFFF" fill-rule="nonzero">
            <path d="M951.884256,275.42967 C952.002585,275.42967 952.133824,275.451234 952.260762,275.502992 L952.260762,275.502992 L956.565857,277.407238 C956.740123,277.484877 956.890728,277.614269 956.976787,277.765231 L956.976787,277.765231 L958.876667,280.825457 C959.005756,281.075644 959.038028,281.345216 958.951969,281.604005 L958.951969,281.604005 L958.508764,282.934636 C958.304376,283.508306 958.218318,284.125038 958.218318,284.73106 L958.218318,284.73106 L958.220469,325.149637 C958.220469,326.167569 957.387804,327 956.374484,327 L956.374484,327 L929.042163,327 C928.209553,327 927.497426,326.458682 927.273672,325.690955 L927.273672,325.690955 L926,321.418768 L926,292.841828 C926,291.610461 926.129086,290.366065 926.365749,289.143311 L926.365749,289.143311 L928.308506,279.64582 L938.127763,279.64582 L939.734931,280.760752 L947.351079,275.602196 C947.514593,275.483584 947.686711,275.42967 947.869586,275.42967 L947.869586,275.42967 Z M938.882763,299.68918 C938.882763,299.68918 934.825076,306.374523 934.825076,308.613056 C934.825076,310.851588 936.638786,312.669599 938.882763,312.669599 C941.115999,312.669599 942.927557,310.851588 942.929709,308.613056 C942.929709,306.374358 938.882763,299.68918 938.882763,299.68918 Z M955.759349,284.414192 C955.759349,283.797393 955.187036,283.355296 954.603983,283.527822 L954.603983,283.527822 L948.076171,285.30266 C947.579172,285.434221 947.299476,285.951777 947.428567,286.449944 L947.428567,286.449944 L951.378687,300.554019 C951.486254,300.944353 951.830511,301.213924 952.26296,301.213924 L952.26296,301.213924 L954.84258,301.213924 C955.358956,301.213924 955.759128,300.814939 955.759128,300.295202 L955.759128,300.295202 Z M936.899326,274 C937.157502,274 937.359742,274.20272 937.359742,274.461509 L937.359863,278.028464 L928.37944,278.028464 L928.37944,274.461509 C928.37944,274.20272 928.583828,274 928.842005,274 L936.899326,274 Z" id="oil-change"></path>
        </g>
    </g>
</svg>