<?xml version="1.0" encoding="UTF-8"?>
<svg width="42px" height="51px" viewBox="0 0 42 51" version="1.1" xmlns="http://www.w3.org/2000/svg" xmlns:xlink="http://www.w3.org/1999/xlink">
    <title>replace startere</title>
    <g id="Repair-Flow-Web-Final" stroke="none" stroke-width="1" fill="none" fill-rule="evenodd">
        <g id="003-Sign-up" transform="translate(-1041.000000, -275.000000)" fill="#FFFFFF" fill-rule="nonzero">
            <path d="M1063.56471,275 L1063.56682,280.478695 L1066.2113,283.191458 C1066.48124,283.517857 1066.64362,283.897221 1066.64362,284.331686 L1066.64362,284.331686 L1066.64362,289.541058 L1068.26322,289.541058 L1068.26322,286.448943 L1071.50243,286.448943 L1071.50243,289.541058 L1074.47171,289.541058 L1074.47171,296.159656 L1075.49659,295.88838 L1076.30639,298.982611 L1074.5244,299.470062 L1074.5244,302.725377 L1075.49659,302.4541 L1076.35914,305.546216 L1074.52445,306.033667 L1074.52445,309.288982 L1075.49665,309.017705 L1076.30434,312.111936 L1074.46965,312.599387 L1074.46965,315.799579 L1075.44185,315.528303 L1076.25188,318.620201 L1074.41719,319.162753 L1074.41719,326 L1049.42077,326 L1049.42288,319.271264 L1048.45068,319.54254 L1047.64077,316.450425 L1049.47557,315.962974 L1049.47557,312.707659 L1048.50337,312.978935 L1047.69357,309.939773 L1049.52826,309.452322 L1049.52826,306.197007 L1048.50337,306.468284 L1047.64293,303.321045 L1049.47762,302.833594 L1049.47762,299.633403 L1048.50542,299.904679 L1047.64077,296.812564 L1049.47546,296.270011 L1049.47546,289.488105 L1052.44473,289.488105 L1052.44473,286.39599 L1055.68394,286.39599 L1055.68394,289.488105 L1057.30354,289.488105 L1057.30354,284.278733 C1057.30354,283.844257 1057.46593,283.464882 1057.73586,283.138505 L1057.73586,283.138505 L1060.38035,280.480865 L1060.38035,275 L1063.56471,275 Z M1071.28541,320.087046 L1061.67522,322.799808 L1071.28541,322.799808 L1071.28541,320.087046 Z M1071.28541,313.466278 L1052.71503,318.404319 L1052.71503,321.983918 L1071.28541,316.721593 L1071.28541,313.466278 Z M1071.28541,306.902695 L1052.71503,311.893744 L1052.71503,315.149059 L1071.28541,310.15801 L1071.28541,306.902695 Z M1071.28541,300.336724 L1052.71503,305.327773 L1052.71503,308.583088 L1071.28541,303.592039 L1071.28541,300.336724 Z M1071.28541,293.28365 L1052.71503,298.709121 L1052.71503,302.017443 L1071.28541,297.026394 L1071.28541,293.28365 Z M1061.67791,292.741098 L1052.71503,292.741098 L1052.71503,295.345784 L1061.67791,292.741098 Z M1062.00011,283.462473 L1060.48805,284.982054 L1060.48805,289.538627 L1063.51217,289.538627 L1063.51217,284.982054 L1062.00011,283.462473 Z M1047.90858,276.519809 L1047.90858,280.262553 L1051.63491,280.262553 L1051.63491,283.464861 L1047.90858,283.464861 L1047.90858,287.207605 L1044.72423,287.207605 L1044.72423,283.464861 L1041,283.464861 L1041,280.262553 L1044.72423,280.262553 L1044.72423,276.519809 L1047.90858,276.519809 Z M1083,280.26239 L1083,283.462582 L1072.36514,283.462582 L1072.36514,280.26239 L1083,280.26239 Z" id="replace-startere"></path>
        </g>
    </g>
</svg>