<?xml version="1.0" encoding="UTF-8"?>
<svg width="46px" height="43px" viewBox="0 0 46 43" version="1.1" xmlns="http://www.w3.org/2000/svg" xmlns:xlink="http://www.w3.org/1999/xlink">
    <title>replace battery</title>
    <g id="Repair-Flow-Web-Final" stroke="none" stroke-width="1" fill="none" fill-rule="evenodd">
        <g id="003-Sign-up" transform="translate(-1156.000000, -279.000000)" fill="#79739C">
            <path d="M1170.78571,279 C1171.69341,279 1172.42857,279.740076 1172.42857,280.653846 L1172.428,285.615 L1185.571,285.615 L1185.57143,280.653846 C1185.57143,279.740076 1186.30659,279 1187.21429,279 L1193.78571,279 C1194.69341,279 1195.42857,279.740076 1195.42857,280.653846 L1195.428,285.615 L1200.35714,285.615385 C1201.26484,285.615385 1202,286.355461 1202,287.269231 L1202,320.346154 C1202,321.259924 1201.26484,322 1200.35714,322 L1157.64286,322 C1156.73516,322 1156,321.259924 1156,320.346154 L1156,287.269231 C1156,286.355461 1156.73516,285.615385 1157.64286,285.615385 L1162.571,285.615 L1162.57143,280.653846 C1162.57143,279.740076 1163.30659,279 1164.21429,279 L1170.78571,279 Z M1198.714,298.846 L1159.285,298.846 L1159.28571,318.692308 L1198.71429,318.692308 L1198.714,298.846 Z M1167.5,302.153846 C1168.4077,302.153846 1169.14286,302.893922 1169.14286,303.807692 L1169.142,305.461 L1170.78571,305.461538 C1171.69341,305.461538 1172.42857,306.201615 1172.42857,307.115385 C1172.42857,308.029154 1171.69341,308.769231 1170.78571,308.769231 L1169.142,308.769 L1169.14286,310.423077 C1169.14286,311.336847 1168.4077,312.076923 1167.5,312.076923 C1166.5923,312.076923 1165.85714,311.336847 1165.85714,310.423077 L1165.857,308.769 L1164.21429,308.769231 C1163.30659,308.769231 1162.57143,308.029154 1162.57143,307.115385 C1162.57143,306.201615 1163.30659,305.461538 1164.21429,305.461538 L1165.857,305.461 L1165.85714,303.807692 C1165.85714,302.893922 1166.5923,302.153846 1167.5,302.153846 Z M1193.78571,305.461538 C1194.69341,305.461538 1195.42857,306.201615 1195.42857,307.115385 C1195.42857,308.029154 1194.69341,308.769231 1193.78571,308.769231 L1187.21429,308.769231 C1186.30659,308.769231 1185.57143,308.029154 1185.57143,307.115385 C1185.57143,306.201615 1186.30659,305.461538 1187.21429,305.461538 L1193.78571,305.461538 Z M1198.71429,288.923077 L1159.28571,288.923077 L1159.285,295.538 L1198.714,295.538 L1198.71429,288.923077 Z M1192.14286,282.307692 L1188.85714,282.307692 L1188.857,285.615 L1192.142,285.615 L1192.14286,282.307692 Z M1169.14286,282.307692 L1165.85714,282.307692 L1165.857,285.615 L1169.142,285.615 L1169.14286,282.307692 Z" id="replace-battery"></path>
        </g>
    </g>
</svg>