<?xml version="1.0" encoding="UTF-8"?>
<svg width="80px" height="34px" viewBox="0 0 80 34" version="1.1" xmlns="http://www.w3.org/2000/svg" xmlns:xlink="http://www.w3.org/1999/xlink">
    <title>used car</title>
    <g id="Repair-Flow-Web-Final" stroke="none" stroke-width="1" fill="none" fill-rule="evenodd">
        <g id="003-Sign-up" transform="translate(-666.000000, -283.000000)" fill="#FFFFFF" fill-rule="nonzero">
            <path d="M730.319802,304.29634 C733.718302,304.29634 736.421402,307.09714 736.421402,310.39794 C736.421402,313.80034 733.718202,316.49954 730.319802,316.49954 C726.917402,316.49954 724.218202,313.79634 724.218202,310.39794 C724.218202,306.99554 726.921402,304.29634 730.319802,304.29634 Z M675.921802,303.59734 C679.320302,303.59734 682.019496,306.29664 682.023402,309.69894 C682.023402,313.10134 679.320202,315.80054 675.921802,315.80054 C672.519402,315.80054 669.820202,313.09734 669.820202,309.69894 C669.820202,306.29654 672.523402,303.59734 675.921802,303.59734 Z M730.319802,305.99954 C727.819802,305.99954 725.921402,307.99954 725.921402,310.39794 C725.921402,312.89794 727.921402,314.79634 730.319802,314.79634 C732.718202,314.79634 734.718202,312.89794 734.718202,310.39794 C734.718202,307.89794 732.718202,305.99954 730.319802,305.99954 Z M731.120862,312.19928 L732.421602,313.89854 C732.421602,313.89854 731.620822,314.79698 731.023202,314.5001 L730.823982,312.3985 C730.921638,312.29694 730.820076,311.99616 731.120862,312.19928 Z M729.797,312.24 L729.81159,312.24578 C729.863673,312.253014 730.019922,312.231312 730.217842,312.296417 L730.217802,314.39794 C730.217802,314.39794 729.319362,314.59716 728.819402,314.09716 L729.797,312.24 Z M675.921802,305.19854 C673.421802,305.19854 671.523402,307.19854 671.523402,309.59694 C671.523402,312.09694 673.523402,313.99534 675.921802,313.99534 C678.320202,313.99534 680.320202,312.09694 680.320202,309.59694 C680.320202,307.09694 678.320202,305.19854 675.921802,305.19854 Z M676.717862,311.39828 L678.018602,313.09754 C678.018602,313.09754 677.217822,313.99598 676.620202,313.6991 L676.420982,311.5975 C676.518639,311.49594 676.420982,311.19906 676.717862,311.39828 Z M675.819842,311.597416 L675.819802,313.69894 C675.819802,313.69894 674.921362,313.89816 674.421402,313.39816 L675.421402,311.49976 C675.319842,311.495854 675.519059,311.3982 675.819842,311.597416 Z M729.019022,311.49554 C729.120582,311.49554 729.319802,311.5971 729.319802,311.79632 L727.921402,313.49554 C727.921402,313.49554 727.022962,313.19476 727.120622,312.49554 L729.019022,311.49554 Z M731.921782,311.49528 L733.921802,312.0969 C733.921802,312.0969 733.921802,313.1985 733.023362,313.2961 L731.722562,311.6945 C731.718656,311.79606 731.519442,311.39762 731.921782,311.49528 Z M674.621022,310.69454 C674.718679,310.698446 674.921802,310.7961 674.921802,310.99532 L673.523402,312.69454 C673.523402,312.69454 672.624962,312.39376 672.722622,311.69454 L674.621022,310.69454 Z M680.120622,283 L682.519022,285.6992 L683.519022,285.39842 L684.319802,286.1992 C684.319802,286.1992 691.444033,285.686298 698.352819,285.932582 L699.066452,285.96082 C702.034211,286.090197 704.91492,286.368773 707.120802,286.89842 C707.120802,286.89842 716.019002,289.09762 724.319802,294.79682 C724.319802,294.79682 724.527362,294.824867 724.901126,294.880961 L725.174472,294.922513 C728.392628,295.417665 739.80075,297.375767 743.819802,300.79682 L743.819802,300.79682 L744.718242,302.99992 C744.718242,302.99992 745.019022,303.3007 745.519022,303.99992 C745.519022,303.99992 746.120582,306.19912 745.319802,307.39832 L745.319802,307.39832 L745.019022,310.19912 L745.819802,310.89842 C745.819802,310.89842 743.421322,312.09762 737.815822,312.59762 C737.815822,312.59762 739.218222,303.1992 730.417422,302.89842 C730.417422,302.89842 730.412025,302.898217 730.401513,302.897985 L730.279317,302.897626 C729.219866,302.909842 722.425376,303.322358 722.519022,311.89842 L722.519022,311.89842 L683.519022,311.89842 L683.519022,311.89842 L683.519113,311.769957 C683.507194,310.649579 683.159611,302.569991 675.620622,302.19922 L675.620622,302.19922 L675.602096,302.199912 C675.192561,302.217489 668.135115,302.636078 668.620622,310.59762 C668.620622,310.59762 668.616981,310.595884 668.609979,310.592462 L668.529903,310.552111 C668.124293,310.34292 666.485405,309.43502 666.222222,308.29682 C666.222222,308.29682 665.722222,307.39446 666.222222,306.99602 L666.222222,306.99602 L666.120662,303.59762 C666.120662,303.59762 665.921442,302.69918 666.921442,302.09762 C666.921442,302.09762 667.421442,301.89842 667.722222,300.69922 L667.722222,300.69922 L668.023002,295.19922 L674.823802,288.50002 L674.523022,287.8008 C674.523022,287.8008 680.819822,286.80078 682.421422,286.5 L682.421422,286.5 L680.120622,283 Z M677.518782,310.69928 L679.518802,311.3009 C679.518802,311.3009 679.518802,312.4025 678.620362,312.5001 L677.319562,310.8985 C677.319562,310.996157 677.120342,310.69928 677.518782,310.69928 Z M726.621002,310.1015 L728.820202,310.40228 C728.820202,310.398373 729.120982,310.69915 728.921762,310.89837 L726.621002,311.4999 C726.621002,311.4999 726.222562,310.69912 726.621002,310.1015 Z M734.320002,309.99578 L734.332141,310.035171 C734.384211,310.212639 734.57049,310.944515 734.218442,311.29658 L732.116842,310.89814 C732.120748,310.89814 731.819962,310.59736 732.120748,310.59736 L734.320002,309.99578 Z M672.218002,309.3005 L674.417202,309.60128 C674.421108,309.597374 674.717982,309.99581 674.518762,310.09737 L672.218002,310.6989 C672.218002,310.6989 671.819562,309.89812 672.218002,309.3005 Z M679.917002,309.19478 L679.929141,309.234171 C679.981211,309.411639 680.16749,310.143515 679.815442,310.49558 L677.713842,310.09714 C677.717749,310.09714 677.420872,309.89792 677.717749,309.79636 L679.917002,309.19478 Z M733.116202,307.79654 C733.116202,307.79654 733.815422,308.29654 733.916982,308.69498 L731.916982,309.79658 C731.920888,309.79658 731.620102,309.9958 731.717762,309.59736 L733.116202,307.79654 Z M727.820242,307.89374 L729.121042,309.49534 C729.121042,309.49534 729.320262,309.79612 728.820262,309.79612 L726.921802,308.99534 C726.921802,308.99534 727.222582,308.19456 727.820242,307.89374 Z M744.117042,307.79658 L741.718642,307.79658 C741.718642,308.89816 742.320202,309.09738 742.320202,309.09738 L742.320202,309.09738 L744.120948,309.19888 C744.519382,308.69892 744.120948,307.79658 744.117042,307.79658 L744.117042,307.79658 Z M729.819802,306.79654 L730.019022,308.89814 C730.019022,308.995797 730.019022,309.19892 729.819802,309.09736 L728.620602,307.29654 C728.620602,307.29654 729.120602,306.8981 729.819802,306.79654 Z M732.120562,307.19458 L731.120562,309.09298 C731.120562,308.995324 730.921342,309.19845 730.819782,308.995324 L730.921362,306.79614 C730.921362,306.79614 731.722142,306.79614 732.120562,307.19458 Z M678.718202,306.99554 C678.718202,306.99554 679.417422,307.49554 679.518982,307.89398 L677.518982,308.99558 C677.518982,309.09714 677.218202,309.1987 677.319762,308.79636 L678.718202,306.99554 Z M673.417242,307.09774 L674.718042,308.69934 C674.718042,308.69934 674.917262,309.00012 674.417262,309.00012 L672.518802,308.19934 C672.518802,308.19934 672.819582,307.39856 673.417242,307.09774 Z M675.417902,306.09754 L675.617122,308.19914 C675.621028,308.19914 675.621028,308.39836 675.421812,308.39836 L674.218702,306.59754 C674.218702,306.59754 674.718702,306.1991 675.417902,306.09754 Z M677.722562,306.39858 L676.722562,308.29698 C676.718656,308.29698 676.519442,308.39854 676.421782,308.199323 L676.523362,306.00014 C676.523362,306.00014 677.324142,306.00014 677.722562,306.39858 Z M738.617142,299.8005 C738.617142,299.8005 737.019482,299.89816 737.718702,300.69894 L737.718702,300.69894 L739.820282,303.3981 L744.214782,303.8981 L743.316342,300.9997 C743.316342,300.9997 742.515542,299.8005 738.617142,299.8005 Z M671.719002,295.39794 L670.719002,298.39794 L720.816442,301.29634 L720.418002,298.29634 L671.719002,295.39794 Z M671.121362,295.39402 C670.422162,294.79636 669.121362,294.99558 669.121362,294.99558 L669.121362,294.99558 L668.519802,295.59714 L668.219022,300.09714 L669.019762,300.09714 C670.422142,297.99562 671.019802,295.397926 671.121362,295.39402 Z M695.785629,287.403789 L695.350101,287.403824 C694.310206,287.408401 693.6488,287.445755 693.625362,287.49556 L693.625362,287.49556 L694.625362,295.09716 L714.023362,296.39796 L714.023362,295.09716 C713.921802,294.19872 714.722582,294.09716 714.722582,294.09716 L714.722582,294.09716 L715.921782,293.89794 L715.621002,292.59714 C713.722602,291.09714 707.921802,288.79634 707.921802,288.79634 L707.921802,288.79634 C705.125929,287.721346 699.04277,287.416758 695.785629,287.403789 Z M691.121802,287.49554 C690.019802,287.29634 681.019802,288.59714 681.019802,288.59714 L681.019802,288.59714 L677.519802,291.49554 C676.422382,292.49552 677.719239,292.89786 677.621582,292.69474 L677.621582,292.69474 L691.422582,293.99554 Z" id="used-car"></path>
        </g>
    </g>
</svg>