<svg xmlns="http://www.w3.org/2000/svg" width="120" height="120" viewBox="0 0 120 120">
    <path d="M11 39v42.769h97.059V39H11zm95.691 41.402H12.368V40.368h94.323v40.034zM13.736 41.736v37.299h91.588v-37.3H13.736zm30.508 13.978H25.139c-.582 0-1.09.727-1.09 1.163v6.25c0 1.307.363 1.453 1.307 1.453h12.928c2.108 0 1.962-1.235 1.962-2.471h-7.048v-3.924h11.046v6.395c0 2.98-3.052 3.924-4.215 3.924H24.12c-2.47 0-4.07-2.18-4.07-3.707v-9.156c0-1.67 2.036-3.851 4.07-3.851h20.123v3.924zm29.406 12.79h-3.924V56.223l-7.211 12.281h-3.561L51.802 55.86v12.644h-3.924V51.79h6.323l6.497 11.845 6.849-11.845h6.104v16.714zm25.033-12.79H81.994c-.581 0-1.09.727-1.09 1.163v6.25c0 1.307.364 1.453 1.308 1.453h16.47v3.924H80.977c-2.472 0-4.07-2.18-4.07-3.707v-9.156c0-1.67 2.035-3.851 4.07-3.851h17.705v3.924z"/>
</svg>
