<svg xmlns="http://www.w3.org/2000/svg" width="120" height="120" viewBox="0 0 120 120">
    <path d="M39.246 77.069c7.355 0 9.239 3.224 9.239 6.05 0 2.79-1.884 6.015-9.24 6.015-7.354 0-9.238-3.26-9.238-6.05s1.884-6.015 9.239-6.015zm-21.16.398v1.522l-1.521.181c-.689.073-.761.652-.761 1.015v1.775h6.992v-1.775c0-.363-.072-.942-.76-1.015l-1.522-.18h-.036v-1.523h9.058v1.522l-1.522.181c-.689.073-.761.652-.761 1.015v5.87c0 .362.072.941.76 1.014l1.523.181v1.522h-9.058V87.25l1.521-.181c.689-.073.761-.652.761-1.015V84.28h-6.956v1.775c0 .363.072.942.76 1.015l1.522.181v1.522H9.028V87.25l1.522-.181c.688-.073.76-.652.76-1.015v-5.87c0-.362-.072-.941-.76-1.014l-1.522-.18v-1.523h9.058zm50.797-.036v1.522l-1.521.181c-.689.073-.761.652-.761 1.015v8.587h-5.507c-.653 0-.87-.11-1.16-.472l-5.978-7.862v5.652c0 .363.072.942.76 1.015l1.522.181v1.522h-7.246V87.25l1.522-.181c.688-.073.76-.652.76-1.015v-5.87c0-.362-.072-.941-.76-1.014l-1.522-.18v-1.523h7.754c.652 0 .905.11 1.16.471l5.977 7.899v-5.652c0-.363-.072-.942-.76-1.015l-1.522-.18.072-1.559h7.21zm11.957.036c4.058 0 7.391 1.595 7.391 5.616 0 4.022-3.333 5.653-7.391 5.653H69.536v-1.522l1.521-.181c.689-.073.761-.653.761-1.015V80.04c0-.652-.326-.833-.797-.906l-1.34-.145v-1.522zm18.804 0c.544 0 .834.182 1.196.761l5.217 7.971c.218.326.435.797 1.16.87l1.485.145v1.522H98.92v-1.522l1.268-.145c.507-.036 1.087-.326.616-1.015l-.508-.76H93.34l-.58.942c-.29.434 0 .797.544.87l1.232.108v1.522h-7.21v-1.522l1.521-.181c.435-.073.652-.363.797-.616l3.877-6.268c.326-.508-.072-.906-.362-.942l-2.065-.218v-1.522zm-60.398 1.776c-2.826 0-4.022 1.195-4.022 3.877 0 2.68 1.16 3.876 4.022 3.876s4.021-1.195 4.021-3.876c0-2.682-1.159-3.877-4.021-3.877zm40.76.398h-3.804v6.957h3.805c2.246 0 3.007-1.087 3.007-3.478 0-2.428-.761-3.479-3.007-3.479zm16.667.181l-2.137 3.479h4.42l-2.283-3.479zM59.096 26.091c1.699.005 6.422.077 8.483.217 2.428.109 6.232.399 8.37.76 4.239.725 9.094 2.247 9.818 9.494.182 1.956.254 4.529.29 7.318-.072 4.602-.47 7.718-.688 9.856-.145 1.449-.761 5.905-1.558 8.188-1.087 3.152-2.065 4.058-3.225 5-2.101 1.739-5.58 2.246-6.304 2.391-3.913.725-11.848.834-15.326.834h-.366c-3.67-.01-11.178-.168-14.96-.834-.725-.145-4.203-.688-6.305-2.391-1.159-.942-2.137-1.848-3.224-5-.797-2.283-1.413-6.703-1.558-8.188-.218-2.174-.616-5.254-.689-9.856-.036-2.753 0-5.326.218-7.318.724-7.247 5.58-8.769 9.819-9.493 2.137-.362 5.942-.652 8.37-.761 2.137-.145 7.137-.217 8.659-.217zm8.012 1.956c-2.283-.145-6.087-.254-8.188-.217-2.138 0-5.906.072-8.225.217-2.862.145-5.906.435-8.152.833-4.819.834-7.065 3.116-7.609 7.682-.398 3.043-.435 8.695-.181 12.174.398 5.797.942 9.275 1.667 11.775.652 2.174 1.449 3.66 2.608 4.71 1.957 1.775 4.638 2.138 6.232 2.391 3.406.508 9.13.689 13.66.689 4.492 0 10.253-.181 13.659-.689 1.594-.253 4.275-.616 6.232-2.391 1.16-1.05 1.956-2.5 2.609-4.71.724-2.5 1.231-5.978 1.666-11.775.254-3.515.218-9.167-.18-12.174-.58-4.53-2.827-6.812-7.646-7.682-2.246-.398-5.29-.688-8.152-.833zm4.275 1.775s1.232.037 1.776.073c.724.036 1.34.109 1.956.181 0 0-.724 11.45-1.05 16.268-.327 5.109-.942 13.66-1.486 20.145 0 0-1.05.145-2.79.254-1.482.089-2.285.105-2.528.108h-.08c-.725-2.862-1.667-6.811-2.718-8.514-.87-1.377-2.174-1.522-2.935-1.63-1.16-.182-2.137-.182-2.608-.182h-.102c-.479.006-1.43.047-2.507.182-.761.108-2.065.253-2.935 1.63-1.05 1.703-1.956 5.652-2.717 8.514 0 0-.834 0-2.645-.108-1.74-.073-2.79-.254-2.79-.254-.544-6.485-1.16-15.072-1.486-20.145-.326-4.855-1.05-16.268-1.05-16.268.616-.072 1.195-.145 1.956-.181.544-.036 1.776-.073 1.776-.073 1.231 5.544 1.739 8.08 2.753 12.102.942 3.84 1.703 7.427 3.007 9.167 1.305 1.775 3.08 2.137 4.276 2.282.616.073 1.087.109 2.427.109 1.341 0 1.812-.036 2.428-.109 1.196-.145 2.97-.507 4.275-2.282 1.305-1.74 2.065-5.327 3.044-9.167 1.014-3.986 1.521-6.558 2.753-12.102z"/>
</svg>
