<svg xmlns="http://www.w3.org/2000/svg" width="120" height="120" viewBox="0 0 120 120">
    <path d="M14 70.534h3.53v3.88h6.304v-3.88h3.485v10.89h-3.485V76.84h-6.35v4.542H14V70.534zm13.716 0h3.439l3.616 4.189 3.573-4.19h3.395l-5.248 6.659v4.233h-3.484v-4.542l-5.291-6.35zm14.464 0h3.484v8.422h5.6c.883 0 1.456-.88 1.456-1.808v-6.614h3.483v8.687c0 1.366-1.543 2.16-2.425 2.16H42.18V70.534zm14.773 0h11.599c1.367 0 2.47.836 2.47 2.536v8.333l-3.484.022V74.81c0-.925-.31-1.476-1.5-1.476H60.79v8.114h-3.837V70.534zm15.127 0h10.142c2.03 0 3.595 1.63 3.595 2.887v5.006c-.022.881-1.257 2.997-2.8 2.997H72.08v-10.89zM75.63 79h5.353c.77 0 1.367-.573 1.367-1.28v-3.174c0-.772-.635-1.233-1.45-1.233h-5.27V79zm14.487-8.513h10.87v10.938h-3.88v-2.821h-6.682v2.82H86.5v-7.1c-.088-2.38 2.03-3.837 3.617-3.837zm.264 3.884v1.762h6.703v-2.78h-5.646c-.66.001-1.057.4-1.057 1.018zm11.312-3.86h3.483v11.245h-3.483V70.512zM59.8 39c-14.456 0-26.176 5.787-26.176 12.923S45.344 64.846 59.8 64.846c14.456 0 26.176-5.786 26.176-12.923C85.976 44.787 74.256 39 59.8 39zm-2.483 2.876c2.988-1.056 11.864 0 15.312 1.656 1.104 1.058-4.92 4.459-12.092 5.933-10.255 2.067-5.381-5.842-3.22-7.589zm-17.61 15.312c-2.255-1.607-6.668-6.207.643-10.988 3.863-2.253 6.024-2.76 8.69-3.311 1.288-.277 2.208.046 1.058 1.011-2.437 2.53-7.495 10.897-7.954 12.737-.369 1.243-1.104 1.563-2.437.551zm21.058 5.336c-4.322.458-13.931-.966-14.116-2.206.185-2.991 15.266-7.957 17.978-5.198 1.15 2.16-1.056 7.265-3.862 7.404zm21.98-8.693c-1.105 2.53-4.828 5.382-12.645 7.313-1.196.274-1.61-.46-.829-1.15 1.29-.782 7.496-11.173 8.278-13.244.46-1.058 1.333-.643 1.886-.23 2.483 1.61 4.368 4.23 3.31 7.31z"/>
</svg>
