<svg xmlns="http://www.w3.org/2000/svg" width="120" height="120" viewBox="0 0 120 120">
    <path d="M15.123 70.482v9.465c0 2.31-.89 4.545-3.064 5.612-.552.26-1.15.442-1.768.484l-.266.009c1.638-1.185 2.33-2.39 2.568-4.385.115-.923.135-1.846.138-2.768v-8.417h2.392zm48.823 0v7.3c0 1.649.135 2.633.78 3.357.731.85 1.995 1.098 3.061 1.098 2.255 0 3.757-.73 4.164-2.714.094-.457.168-1.017.168-1.882v-7.159h1.47v6.66c0 1.243-.071 1.945-.225 2.583-.582 2.413-2.364 3.473-5.334 3.537l-.29.003c-2.135 0-4.013-.429-4.979-1.397-1.047-1.027-1.205-2.445-1.205-3.959v-7.427h2.39zm-14.772-.237c1.421 0 3.068.323 4.35.974v1.486c-1.162-.866-2.69-1.464-4.182-1.464-3.397 0-5.74 2.126-5.74 5.642 0 3.182 2.068 5.36 5.248 5.36.81 0 1.93-.143 2.7-.439v-4.566h2.39v5.099c-1.294.582-3.09.88-4.568.922l-.363.005c-4.13 0-8.055-1.421-8.055-6.223 0-1.561.693-3.16 1.739-4.306 1.64-1.78 4.13-2.49 6.48-2.49zm54.353.237c1.835 0 3.672.266 4.694 1.396.535.59.826 1.411.826 2.468 0 1.933-1.457 3.103-2.755 3.564l3.675 5.078h-2.753l-3.314-4.802h-2.505v4.802h-2.391V70.482h4.523zm-16.711 0l6.104 12.506h-2.845l-1.576-3.513h-6.203l-1.688 3.513h-1.517l6.239-12.506h1.486zm-56.932 0l6.106 12.506h-2.846l-1.573-3.513h-6.205l-1.69 3.513H22.16l6.238-12.506h1.486zm55.589 2.371l-2.768 5.772h5.4l-2.632-5.772zm-56.933 0l-2.766 5.772h5.4l-2.634-5.772zm74.612-1.503h-1.757v5.983h1.537c1.289 0 2.06-.24 2.66-.725.634-.509 1.013-1.29 1.013-2.345 0-2.113-1.536-2.913-3.453-2.913zM28.747 35.014c12.871 0 30.766 8.12 30.766 8.12 9.276 3.834 15.545 7.047 15.545 7.047 5.472 2.75 10.944 5.625 12.422 6.47 1.478.847 3.75 2.484 7.108 3.987 0 0 1.742.775 4.02.305 1.06-.218 1.821-.85 2.425-.887 0 0 1.32-.234 1.73.72.147.344.062.891-.42 1.489-2.041 2.68-6.827 1.862-6.462 1.978.296.705.391 1.964-.823 2.672 0 0-2.062 1.118-5.63-1.287-1.204-.656-3.161-2.598-3.902-2.995-1.696-.907-3.424-.925-5.546-.925l-3.49.096c-7.712.2-9.595-4.83-11.174-7.393-.386-.627-1.366-1.43-2.908-1.615 0 0-1.114-.079-2.062-.007-4.816.363-7.786.056-7.786.056-3.047-.349-5.13-1.2-5.13-1.2-.875 1.962-4.5 1.594-4.5 1.594-3.187-.284-5.644-1.716-5.644-1.716-2.262-.999-3.382-.715-3.382-.715-.34.076-.265.455-.265.455.124.47-.064.963-.25 1.165-.279.401-.857.78-1.181.97-.14.097-.416.19-.667.217-.347.039-.716.03-1.165-.165-.31-.136-.798-.491-.972-.977 0 0-.927-2.236 1.454-4.09 0 0 1.706-1.621 5.932-1.575-1.11-.844-5.189-3.766-8.043-3.572 0 0-2.575.265-4.402 2.236 0 0-.709.808-1.56.78-.964 0-1.31-1.298-1.31-1.298-.156-.411.198-.697.198-.697l.117-.094c-.043-.137-.095-.317-.132-.478-.062-.284-.039-.351-.039-.351s.562.31.814.314l.123-.005c.44-.092.917-.917.917-.917.424-1.043.049-1.836-.305-2.084-.44-.308-1.03-.115-1.268.071-.268.21-.53.63-.67.97 0 0-.121.286-.096.594.022.276.279.75.346.989 0 0-.672-.024-1.058-.412 0 0-.01.092-.381.13-.839.084-1.388-.48-1.662-.8-.272-.324-.704-1.075-.704-1.075-.348-.661.085-1.104.085-1.104.809-.936 1.802-1.589 1.802-1.589.083-.072.056-.184.056-.184-.194-.406.204-.736.204-.736 2.032-2.309 7.636-2.472 8.736-2.482zm.854 1.224c-3.297-.362-5.153.006-5.153.006-3.5.525-4.044 1.406-4.198 1.588-.196.185-.242.887.672.752.002 0 .28-1.12 1.336-1.19 0 0 1.083-.156 1.69.137 0 0-.94 1.376-2.38 1.48 0 0-.587.045-.761.055-.174.01-1.448.14-2.187 1.444 0 0-.386.582.063 1.064.02.021.037.046.061.067 0 0 .438.537 1.044.498 0 0 .49.134 1.04-.774 0 0 .623-1.06.908-1.4 0 0 .365-.563 1.104-.563 0 0 1.571-.144 1.855 1.805.141.975-.104 1.69-1.845 3.088 0 0-.285.246-.586.435 0 0-.189.152-.076.321 0 0 .258.362.607.337.349-.026.658.012 2.444-1.763 0 0 2.388-.616 2.388-2.473 0 0 .056-1.007-.48-1.743 0 0 1.09.084 2.054 1.858 0 0 .298.778 1.05.907 0 0 2.6.464 4.392 1.9.7.562 1.486 1.305 2.038 2.185-.374-.8-.926-2.357-.48-3.898 0 0 1.047 3.143 2.167 4.078.832.694 1.822 1.203 4.731 1.896 0 0-4.067-.931-7.947-.544 0 0-3.647.337-4.685 2.659-.147.33-.303.667-.332 1.147 0 0-.123 1.356 1.529 1.437.494-.247.993-.685 1.352-1.252.218-.342-.244-.474-.244-.474-.416-.189-.312-.586-.312-.586.191-.83 1.785-.896 1.785-.896 2.116 0 4.839 1.059 4.839 1.059 5.708 1.815 6.985-.744 7.069-.929l.004-.01c.857-1.554-.227-5.254-.227-5.254 4.392 3.5 11.434 3.845 11.434 3.845-4.363.549-9.846-1.388-9.846-1.388.68 1.36.489 2.998.489 2.998 1.711.788 3.472 1.311 4.523 1.522 1.05.21 2.43.577 9.073.383.495-.014.91-.038 1.275-.033.17-.806-1.531-2.278-1.531-2.278 1.773.771 3.427 2.931 3.735 3.346.2.256.411.568.638.955.659 1.114 3.071 6.42 9.665 6.322l3.386.022s4.62-.113 6.586 1.25c1.292.898 1.529 1.174 2.199 1.726 1.218 1.003 2.66 2.4 4.335 2.548 1.108.157 2.058-.112 2.321-.864 0 0 .38-.944-.54-1.484-.41-.148-.857-.356-1.363-.674-1.003-.629-1.025-.64-1.888-1.398-.646-.57-1.566-1.963-2.143-2.45-.628-.527-1.487-1.149-3.495-1.227-2.043-.08-4.423-.185-5.12-.326-.73-.147-1.147-.261-1.792-.78-.52-.418-.854-.876-1.143-1.391-.286-.511-.537-1.203-1.06-2.164-.364-.662-1.054-1.207-1.054-1.207.904.577 1.38.85 2.006 1.79 1.307 1.954 2.349 2.547 3.227 2.859 1.307.462 4.853.733 6.299.982 1.385.24 2.173 1.03 2.497 1.364.727.751 1.478 1.547 2.16 2.182.965.899 1.58 1.289 3.48 1.848.819.24 1.064.507 1.064.507 1.162.386 3.434.376 4.523.013 1.03-.345 1.908-.99 2.113-1.496.162-.339.146-.696-.13-.971-.544-.537-1.936.219-2.665.493 0 0-2.282.665-5.42-.785 0 0-3.186-1.556-6.65-3.706 0 0-4.632-2.289-5.744-2.904-6.23-3.447-16.092-7.448-20.029-9.08-2.618-1.085-7.42-2.769-7.42-2.769-6.408-2.343-9.167-2.797-9.167-2.797-.757-.152-.813.038-.813.038-.077.095.056.226.056.226.662 1.096.813 1.853.813 1.853-4.347-4.536-12.079-4.933-12.079-4.933-2.338-.125-3.663 1.062-3.663 1.062-.188.19.02.322.02.322 2.799.913 4.419 3.908 4.419 3.908-3.341-2.683-5.387-3.12-5.387-3.12-2.117-.387-2.226-1.138-2.231-1.236v-.01c2.08.521 3.377-.558 3.792-1.044.155-.184.037-.29-.084-.303zm-6.867 1.687c-.35-.108-.654-.081-.654-.081-.603.046-.728.467-.75.509-.023.04-.075.222-.075.222.129.004.453-.045.453-.045.824-.086 1.026-.605 1.026-.605zm5.006-1.305s.953.09.95.137c-.002.045-.74.366-1.598.34-.358-.012-.591-.043-.586-.079.005-.038.361-.362 1.234-.398z"/>
</svg>
