<svg xmlns="http://www.w3.org/2000/svg" width="120" height="120" viewBox="0 0 120 120">
    <path d="M54.678 27.168c-7.04.455-13.79 1.593-17.155 2.862-8.489 3.204-14.766 11.367-16.896 21.985-1.187 5.968-.667 13.4 1.382 19.725.748 2.294 2.878 6.57 4.196 8.407 2.114 2.944 4.993 5.675 7.529 7.172 4.163 2.472 11.073 4.407 18.83 5.301 2.732.31 11.741.26 14.879-.081 9.562-1.058 16.18-3.123 20.57-6.408 7.09-5.317 11.09-13.708 11.823-24.798.666-9.968-2.716-19.643-9.009-25.823-4.78-4.716-9.789-6.683-19.757-7.788-4.96-.554-12.522-.814-16.392-.554zm11.106 5.009c7.692.796 14.977 3.057 18.603 5.756.619.455 1.432 1.268 1.838 1.821 1.024 1.399 1.512 3.155 1.008 3.756-.098.13-1.22.667-2.472 1.188-7.138 2.976-14.066 6.683-17.725 9.496-2.487 1.903-5.951 6.277-6.764 8.538-.115.325-.26.585-.31.585-.065 0-.21-.309-.341-.683-.52-1.61-3.822-5.968-5.79-7.66-3.366-2.91-10.358-6.764-18.505-10.212-2.975-1.252-3.04-1.317-2.699-2.813.423-1.87 2.065-3.66 4.797-5.204 3.821-2.163 10.944-4.081 17.301-4.634 2.555-.227 8.522-.194 11.06.066zM30.286 53.64c1.544 1.512 4.147 2.554 11.155 4.473 4.049 1.105 5.302 1.577 7.025 2.65 3.35 2.097 5.382 4.618 8.195 10.13.732 1.416 1.561 2.83 1.838 3.107.471.488.618.537 1.463.537.846 0 .992-.05 1.448-.52.276-.277 1.106-1.692 1.837-3.123 2.943-5.708 4.879-8.065 8.424-10.244 1.642-1.008 3.073-1.545 6.91-2.537 6.424-1.66 9.27-2.781 10.896-4.26.78-.7 1.09-1.172 1.951-2.96.57-1.171 1.041-1.984 1.041-1.805.016.537-.31 4.733-.57 7.4-.845 8.6-2.113 14.097-4.227 18.227-3.659 7.155-10.31 11.042-21.286 12.44-3.122.407-10.31.407-13.334 0-8.082-1.057-13.578-3.383-17.448-7.4-3.838-3.95-5.92-9.658-7.172-19.691-.358-2.862-.748-7.008-.894-9.676l-.098-1.626.992 2.017c.764 1.56 1.188 2.227 1.854 2.861z"/>
</svg>
