<svg xmlns="http://www.w3.org/2000/svg" width="120" height="120" viewBox="0 0 120 120">
    <path d="M61.307 88.477c.369 0 .718.026 1.048.075.33.05.628.12.893.212v1.355c-.348-.109-.671-.185-.97-.228-.3-.044-.593-.065-.88-.065-.434 0-.835.071-1.201.215-.368.143-.682.351-.945.625-.263.273-.468.611-.615 1.013-.148.401-.222.86-.222 1.377 0 .513.068.963.202 1.352.135.388.328.713.58.974.252.26.559.457.921.59.363.132.775.198 1.235.198.33 0 .666-.027 1.01-.079.342-.052.664-.128.963-.228v1.375c-.304.087-.632.155-.983.205-.352.05-.717.075-1.095.075-.738 0-1.387-.105-1.947-.316-.56-.21-1.028-.508-1.404-.892-.376-.385-.658-.845-.847-1.381-.188-.536-.283-1.128-.283-1.775 0-.664.101-1.281.303-1.85.202-.569.493-1.061.873-1.478.38-.417.855-.745 1.426-.984s1.217-.36 1.938-.365zm5.211.163v4.99c0 .616.074 1.098.222 1.445.165.387.406.666.723.837.317.172.69.258 1.12.258.43 0 .803-.086 1.12-.258.318-.171.559-.45.723-.837.148-.347.222-.829.222-1.445v-4.99h1.596v5.133c0 .365-.02.695-.062.99-.041.295-.11.564-.205.808-.118.303-.275.576-.473.817-.197.24-.438.445-.723.612-.284.167-.611.295-.98.385-.37.088-.782.133-1.238.133-.456 0-.866-.045-1.23-.133-.365-.09-.687-.218-.965-.385-.277-.167-.514-.371-.71-.612-.195-.24-.351-.514-.468-.817-.096-.244-.164-.513-.206-.808-.04-.295-.061-.625-.061-.99V88.64h1.595zm-34.104 0l1.505 4.15c.251.69.488 1.432.71 2.227h.038c.191-.687.428-1.422.71-2.208l1.505-4.169h2.24v8.715h-1.595V92.94c0-.647.026-1.398.078-2.253h-.058c-.074.247-.16.525-.261.833-.1.309-.204.612-.313.912l-1.804 4.924H34.14l-1.804-4.924c-.109-.3-.213-.603-.313-.912-.1-.308-.186-.586-.26-.833h-.059c.052.803.078 1.552.078 2.247v4.422h-1.596V88.64h2.228zm19.019 0c.438 0 .846.025 1.224.075.378.05.701.125.97.225.513.195.908.485 1.186.87.278.384.417.867.417 1.448 0 .608-.168 1.124-.505 1.547-.336.424-.856.738-1.56.942v.026l2.593 3.582h-1.915l-2.371-3.374h-1.094v3.374h-1.596V88.64h2.65zm25.513 0c.439 0 .847.025 1.225.075.377.05.7.125.97.225.512.195.908.485 1.186.87.277.384.416.867.416 1.448 0 .608-.168 1.124-.505 1.547-.336.424-.856.738-1.56.942v.026l2.593 3.582h-1.915l-2.37-3.374H75.89v3.374h-1.596V88.64h2.651zm6.584 0l2.32 3.752h.02l2.318-3.752h1.771l-3.302 5.205v3.51h-1.596v-3.51L81.76 88.64h1.771zm-36.676 0v1.335h-4.051v2.254h3.478v1.335h-3.478v2.456h4.286v1.335h-5.882V88.64h5.647zm4.664 1.335h-1.14v2.67h.788c.365 0 .674-.015.928-.048s.468-.081.642-.146c.32-.122.543-.288.667-.499.124-.21.186-.452.186-.726 0-.234-.049-.442-.147-.622-.097-.18-.263-.323-.498-.427-.152-.069-.343-.12-.573-.153-.23-.032-.515-.049-.853-.049zm25.513 0h-1.14v2.67h.788c.365 0 .674-.015.928-.048s.468-.081.642-.146c.321-.122.544-.288.667-.499.124-.21.186-.452.186-.726 0-.234-.049-.442-.146-.622-.098-.18-.264-.323-.499-.427-.152-.069-.343-.12-.573-.153-.23-.032-.514-.049-.853-.049zM59.617 24.014c16.27 0 29.506 13.237 29.506 29.506 0 16.27-13.236 29.506-29.506 29.506S30.111 69.79 30.111 53.52s13.236-29.506 29.506-29.506zm0 1.572c-15.403 0-27.934 12.532-27.934 27.934 0 15.403 12.531 27.934 27.934 27.934S87.551 68.923 87.551 53.52 75.02 25.586 59.617 25.586zm0 7.518c11.257 0 20.416 9.159 20.416 20.416s-9.159 20.416-20.416 20.416-20.416-9.158-20.416-20.416c0-11.257 9.159-20.416 20.416-20.416zM78.9 52.214h-7.444c-1.454 0-1.808.327-2.628 1.669l-11.03 18.879c.599.056 1.205.086 1.819.086 10.658 0 19.328-8.67 19.328-19.328 0-.439-.016-.874-.045-1.305zm-.471-3.135h-13.67c-1.454 0-1.808.327-2.628 1.668L50.54 70.58c.473.253.957.486 1.451.7l11.398-19.5c.914-1.447 2.027-1.52 2.932-1.522h.241l12.098-.055c-.076-.44-.203-1.003-.23-1.123zm-.963-2.971H58.142c-1.455 0-1.808.326-2.628 1.668L44.857 66.003c.226.26.601.675 1.055 1.132-.006-.006 10.78-18.491 10.78-18.491.914-1.448 2.026-1.521 2.931-1.523h.242l17.971-.053c-.115-.324-.238-.644-.37-.96zM59.617 34.192c-10.658 0-19.328 8.671-19.328 19.328 0 2.384.435 4.667 1.227 6.777l8.727-14.972c.914-1.448 2.027-1.521 2.932-1.523h.241l22.87-.05c-3.362-5.715-9.573-9.56-16.669-9.56z"/>
</svg>
