<svg xmlns="http://www.w3.org/2000/svg" width="120" height="120" viewBox="0 0 120 120">
    <path d="M90.652 75.387c-5.586 11.264-17.203 19.007-30.627 19.007-13.425 0-25.042-7.743-30.628-19.007h61.255zm3.8.274c.943 0 1.786.656 1.786 1.782 0 1.127-.843 1.782-1.786 1.782-.948 0-1.791-.655-1.791-1.782 0-1.126.843-1.782 1.79-1.782zm0 .415c-.707 0-1.278.547-1.278 1.367s.57 1.372 1.278 1.367c.688.005 1.273-.546 1.273-1.367 0-.82-.585-1.367-1.273-1.367zm.01.406c.494 0 .786.14.786.58 0 .353-.207.48-.462.499l.49.84h-.485l-.443-.807h-.193v.806h-.41v-1.918zm-.02.325h-.287v.462h.363c.184 0 .292-.038.292-.25 0-.198-.212-.212-.368-.212zm12.447-30.455c1.631 0 2.953 1.322 2.953 2.953v20.83c0 1.63-1.322 2.953-2.953 2.953H12.952c-1.63 0-2.952-1.322-2.952-2.953v-20.83c0-1.63 1.321-2.953 2.952-2.953zm-10.864 5.729h-6.972v15.33h4.255V55.26l4.922 12.15h6.767V52.081h-4.306v11.638L96.025 52.08zm-13.558 0h-6.254l-5.486 15.33h4.409l.974-2.77h6.404l.979 2.77h4.409l-5.435-15.33zm-12.92 0h-8.819c-2.307 0-4.204 1.128-4.204 4.409 0 1.538.256 4.947 5.178 4.947h4.665v2.487h-9.382v3.486h9.536c2.256 0 4.41-1.794 4.41-4.768 0-2.973-1.59-4.64-5.435-4.64h-4.563v-2.486h8.613v-3.435zm-15.744 0h-8.818c-2.307 0-4.204 1.128-4.204 4.409 0 1.538.257 4.947 5.178 4.947h4.666v2.487h-9.382v3.486h9.536c2.255 0 4.409-1.794 4.409-4.768 0-2.973-1.59-4.64-5.435-4.64h-4.562v-2.486h8.612v-3.435zm-15.447 0h-4.409v15.33h4.41V52.08zm-16.331 0h-6.973v15.33h4.255V55.26l4.922 12.15h6.767V52.081H26.69v11.638L22.025 52.08zm57.264 3.435l2.03 5.742h-4.03l2-5.742zm-19.264-30.47c13.424 0 25.04 7.742 30.627 19.006H29.397C34.983 32.789 46.6 25.045 60.025 25.045z"/>
</svg>
