<svg xmlns="http://www.w3.org/2000/svg" width="120" height="120" viewBox="0 0 120 120">
    <path d="M109.748 64.496c-.08-1.862-.932-4.979-5.029-5.372 3.647-.548 4.37-2.968 4.386-4.873.032-1.936-1.157-5.26-5.976-5.266-.69.005-18.924.005-18.94 0v15.527L77.65 48.985H65.81L60.14 63.05 54.13 48.98H42.195l-5.14 13.038c-.53-3.654-3.985-5.446-11.808-5.308-3.936.074-5.27-.474-5.27-2.101 0-1.57 1.43-2.165 3.439-2.096 1.96.085 3.598.399 3.614 3.01h9.302c.016-5.755-6.844-6.845-12.435-6.893-5.558-.027-12.546 1.138-12.723 6.814-.16 5.649 4.29 6.66 10.587 6.574 5.8-.069 5.703 1.644 5.735 2.261-.016.037 0 .07 0 .117.016.67-.353 2.122-4.08 2.059-2.7 0-3.535-1.224-3.76-2.059-.144-.463-.112-.808-.112-.792-1.88-.016-9.301-.016-9.317 0 .016.244.032.51.048.792.385 3.133 3.164 6.58 13.735 6.415 8.466-.085 9.526-1.771 10.378-2.372l-.627 1.819h7.727l1.398-3.367h10.555l1.413 3.367h10.458l1.398-3.367h10.555l1.397 3.367h25.383c4.128.005 5.687-3.527 5.703-5.76-.016-.065-.016.058 0 0zm-64.79-2.558l3.197-7.745 3.23 7.745h-6.427zm23.824-.005l3.197-7.735 3.213 7.735h-6.41zm23.262-4.825v-3.053h6.667c.868-.005 1.526.686 1.526 1.532s-.739 1.521-1.574 1.521h-6.619zm0 7.601V61.7h7.117c.835 0 1.574.665 1.574 1.505 0 .835-.739 1.51-1.574 1.51"/>
</svg>
