<svg xmlns="http://www.w3.org/2000/svg" width="120" height="120" viewBox="0 0 120 120">
    <path fill-rule="nonzero" d="M87.079 86.223c2.115 0 3.136 1.728 3.136 3.656 0 1.25-.454 2.42-1.601 3.017 1.117.543 1.63 1.4 1.63 2.65v1.802H87.08v-1.8c0-1.058-.587-1.437-1.609-1.437H79.74v3.237h-3.262V86.223h10.602zm-52.694 0v7.603c0 .699.402.981 1.08.981h5.39c.677 0 1.08-.282 1.08-.981v-7.603h3.163v8.102c0 1.72-1.474 3.022-3.164 3.022h-7.55c-1.682 0-3.165-1.31-3.165-3.022v-8.102h3.166zm59.902 0v7.603c0 .699.403.981 1.08.981h5.39c.676 0 1.08-.282 1.08-.981v-7.603H105v8.102c0 1.711-1.481 3.022-3.164 3.022h-7.55c-1.69 0-3.173-1.303-3.173-3.022l.002-8.102h3.172zm-67.148 0c1.609 0 2.903 1.138 2.889 2.776v.588h-3.253c-.03-.506-.328-.833-.863-.833h-5.488c-.559 0-1.028.282-1.028.9 0 .612.477.842 1.02.842h6.724c2.174 0 3.3 1.453 3.3 3.568 0 2.025-.94 3.282-3.04 3.282h-8.034c-1.832 0-3.127-.736-3.142-2.687l-.007-.744h3.149c.052.634.424.893 1.05.893h5.786c.536 0 .833-.46.833-.96 0-.67-.49-1.02-1.124-1.02h-6.307c-2.078 0-3.493-1.013-3.493-3.202 0-1.14.447-2.346 1.46-2.957.633-.387 1.407-.447 2.137-.447h7.43zm42.695 0l6.04 11.123H72.36l-1.244-2.195h-6.694l-1.244 2.195h-3.514l6.04-11.123h4.131zm-13.774 0c2.092 0 3.641.73 3.641 3.075 0 1.013-.4 1.899-1.294 2.398.981.521 1.54 1.488 1.54 2.605 0 1.571-1.006 3.045-2.695 3.045H46.306V86.223h9.754zm-.499 6.664h-6.016v1.92h6.016c.588 0 1.132-.32 1.132-.96 0-.633-.551-.96-1.132-.96zm12.203-3.85l-1.995 3.71h3.999l-2.004-3.71zm17.618-.282h-5.644v2.822h5.934c.766 0 1.28-.685 1.28-1.408 0-.923-.684-1.414-1.57-1.414zm-29.82.001h-6.017v1.83h6.016c.543 0 .886-.379.886-.908 0-.528-.335-.922-.886-.922zM59.335 24c11.842 0 22.742 3.12 30.782 7.856 8.455 4.98 13.77 11.772 13.77 18.656 0 6.877-5.295 13.597-13.72 18.519-8.043 4.697-18.963 7.777-30.832 7.777-11.77 0-22.65-3.087-30.668-7.795C20.286 64.093 15 57.38 15 50.513c0-6.878 5.306-13.663 13.717-18.641C36.73 27.127 47.587 24 59.337 24zm0 1.298c-11.51 0-22.133 3.054-29.962 7.689-8.018 4.745-13.078 11.128-13.078 17.527 0 6.384 5.037 12.697 13.024 17.386 7.832 4.597 18.477 7.612 30.015 7.612 11.63 0 22.32-3.01 30.178-7.6 8.03-4.692 13.078-11.01 13.078-17.4 0-6.405-5.07-12.794-13.13-17.542-7.85-4.625-18.519-7.672-30.125-7.672zm-7.173 33.257l1.957 4.348 8.477 1.955-8.477 1.74-1.74 4.563-1.955-4.781-7.825-1.522 7.825-1.738 1.738-4.565zm22.604-1.303l1.74 4.13 8.694 1.956-8.478 1.738-1.956 4.565-1.955-4.565-7.608-1.738 7.608-1.74 1.955-4.346zm-31.732-26.3l4.347 9.999 19.995 4.346-19.778 4.13-4.347 10.868-4.346-11.086-18.259-3.912 18.259-3.913 4.13-10.432zm24.342 15.867l1.958 4.346 8.476 1.74-8.476 1.955-1.74 4.565-1.956-4.781-7.824-1.739 7.824-1.74 1.738-4.346zm20.866 0l1.74 4.346 8.476 1.74-8.477 1.955-1.74 4.565-1.954-4.781-7.608-1.739 7.608-1.74 1.955-4.346zM82.59 33.995l1.957 4.348 8.478 1.738-8.478 1.738-1.738 4.783-1.955-4.783-7.826-1.738 7.826-1.738 1.736-4.348z"/>
</svg>
