<svg xmlns="http://www.w3.org/2000/svg" width="120" height="120" viewBox="0 0 120 120">
    <path d="M68.774 84c4.889 0 8.85 3.963 8.85 8.85 0 4.888-3.962 8.849-8.85 8.849-4.887 0-8.85-3.962-8.85-8.85 0-4.887 3.963-8.849 8.85-8.849zm-34.836 0c4.888 0 8.85 3.963 8.85 8.85 0 4.888-3.962 8.849-8.85 8.849s-8.85-3.962-8.85-8.85c0-4.887 3.962-8.849 8.85-8.849zm69.177.61L110 101.298h-4.355l-1.43-3.752-.005-.003H97.38l-.004.003-1.43 3.752H91.59l6.884-16.688h4.64zm-10.247 0v3.076h-5.201v13.61h-3.729v-13.61h-5.202V84.61h14.132zm-68.735 0v3.076h-5.201v13.61h-3.73v-13.61H10V84.61h14.133zm23.182 0l4.041 7.013 4.042-7.014h4.354L53.247 94.96v6.337h-3.782V94.96L42.96 84.61h4.355zm21.459 2.634c-2.729 0-4.94 2.51-4.94 5.605 0 3.095 2.212 5.605 4.94 5.605 2.73 0 4.942-2.51 4.942-5.605 0-3.095-2.212-5.605-4.942-5.605zm-34.836 0c-2.729 0-4.941 2.51-4.941 5.605 0 3.095 2.212 5.605 4.941 5.605 2.729 0 4.942-2.51 4.942-5.605 0-3.095-2.213-5.605-4.942-5.605zm66.873 1.375h-.032l-2.33 6.108h4.691l-2.329-6.108zM60 18c22.092 0 40 11.668 40 26.058S82.092 70.117 60 70.117 20 58.449 20 44.058C20 29.668 37.908 18 60 18zM29.913 31.03l-.035.07c-2.855 3.547-4.485 7.649-4.485 12.02 0 12.86 14.117 23.397 32.023 24.33l.077.015c-4.195-2.628-7.284-11.695-7.284-22.468l.002-.59.009-.58-.442-.07c-11.434-1.891-19.652-6.862-19.865-12.726zm60.174 0c-.213 5.865-8.43 10.836-19.865 12.726l-.443.071.01.58c.002.196.002.393.002.59 0 10.773-3.092 19.84-7.284 22.468l.075-.015c17.907-.933 32.025-11.47 32.025-24.33 0-4.371-1.631-8.473-4.485-12.02l-.035-.07zM65.969 44.298h.018c-1.935.178-3.937.273-5.987.273-1.708 0-3.383-.064-5.014-.19l-.955-.082.009.386c.212 8.197 2.8 14.67 5.96 14.67s5.748-6.475 5.962-14.67l.007-.387zM60 27.82c-2.46 0-4.571 3.922-5.488 9.525l-.055.343.893.072c1.502.11 3.057.167 4.65.167 1.593 0 3.148-.057 4.65-.167l.892-.072-.054-.343C64.573 31.742 62.46 27.82 60 27.82zm0-6.736c-12.894 0-23.348 3.768-23.348 8.42 0 3.467 5.808 6.446 14.107 7.739l.005.013C52.108 28.23 55.736 21.76 60 21.76c4.265 0 7.892 6.469 9.236 15.496l.005-.013c8.297-1.291 14.107-4.272 14.107-7.738 0-4.654-10.454-8.42-23.348-8.42z"/>
</svg>
