<?xml version="1.0" encoding="UTF-8"?>
<svg width="45px" height="45px" viewBox="0 0 45 45" version="1.1" xmlns="http://www.w3.org/2000/svg" xmlns:xlink="http://www.w3.org/1999/xlink">
    <title>diagnosis</title>
    <g id="Repair-Flow-Web-Final" stroke="none" stroke-width="1" fill="none" fill-rule="evenodd">
        <g id="003-Sign-up" transform="translate(-802.000000, -278.000000)" fill="#FFFFFF">
            <path d="M843.249249,278 C845.3125,278 847,279.687498 847,281.750746 L847,281.750746 L847,311.749955 C847,313.811013 845.3125,315.500701 843.249249,315.498511 L843.249249,315.498511 L826.374249,315.498511 L826.374249,319.247057 L831.999249,319.247057 C834.071261,319.247057 835.75,320.925778 835.75,322.9978 L835.75,322.9978 L813.25,323 C813.25,320.927978 814.928739,319.249254 817.000751,319.249254 L817.000751,319.249254 L822.625751,319.249254 L822.625751,315.500701 L805.750751,315.500701 C803.6875,315.500701 802,313.811013 802,311.749955 L802,311.749955 L802,281.750746 C802,279.687498 803.6875,278 805.750751,278 L805.750751,278 L843.249249,278 Z M828.940957,291.22324 L818.875,307.999209 L817.000751,307.999209 L811.375751,298.625724 L805.750751,298.625724 L805.750751,311.749955 L843.251788,311.749955 L843.251788,298.62347 L833.381596,298.62347 L828.940957,291.22324 Z M843.249249,281.750746 L805.750973,281.750746 L805.750973,294.874977 L813.4983,294.874977 L817.936749,302.272953 L828.004388,285.499239 L829.878636,285.499239 L835.503636,294.874977 L843.249249,294.874977 L843.249249,281.750746 Z" id="diagnosis"></path>
        </g>
    </g>
</svg>