<svg width="30" height="30" viewBox="0 0 30 30" fill="none" xmlns="http://www.w3.org/2000/svg">
<path fill-rule="evenodd" clip-rule="evenodd" d="M14.8398 11.0402C15.8594 11.0402 16.6797 10.2004 16.6797 9.18087C16.6797 8.18086 15.8594 7.34104 14.8398 7.34104C13.8203 7.33973 13 8.17958 13 9.17957C13 10.2004 13.8203 11.0402 14.8398 11.0402ZM16.7995 13.6197C16.7995 12.7798 16.1198 12.1197 15.2995 12.1197H13.7995C12.9596 12.1197 12.2995 12.7798 12.2995 13.6197C12.2995 14.44 12.9596 15.1197 13.7995 15.1197V19.5C12.9596 19.5 12.2995 20.1797 12.2995 21C12.2995 21.8398 12.9596 22.5 13.7995 22.5H16.7995C17.6198 22.5 18.2995 21.8398 18.2995 21C18.2995 20.1797 17.6198 19.5 16.7995 19.5V13.6197ZM15 0C23.28 0 30 6.72 30 15C30 23.28 23.28 30 15 30C6.70066 30 0 23.28 0 15C0 6.72 6.70066 0 15 0Z" fill="#4A37B1"/>
</svg>
