<svg width="52" height="61" viewBox="0 0 52 61" fill="none" xmlns="http://www.w3.org/2000/svg">
<mask id="mask0" mask-type="alpha" maskUnits="userSpaceOnUse" x="0" y="0" width="52" height="61">
<path fill-rule="evenodd" clip-rule="evenodd" d="M0 0H52V61H0V0Z" fill="white"/>
</mask>
<g mask="url(#mask0)">
<path fill-rule="evenodd" clip-rule="evenodd" d="M26.8796 53.3319C26.9385 53.2315 26.986 53.1549 27.0294 53.0762C27.9235 51.452 28.8135 49.8255 29.712 48.2037C30.7536 46.3236 32.3622 45.3814 34.5212 45.3787C38.1622 45.3743 41.8033 45.3784 45.4444 45.3753C45.6618 45.3751 45.8836 45.3648 46.0957 45.3217C47.2556 45.086 48.2094 44.0213 48.2917 42.7851C48.3408 42.0476 48.2836 41.3021 48.2572 40.5608C48.1608 37.8513 48.0564 35.1421 47.9566 32.4327C47.8433 29.3564 47.7322 26.28 47.6194 23.2037C47.5259 20.6526 47.4324 18.1016 47.3371 15.5506C47.2398 12.9496 47.1322 10.3489 47.0468 7.74753C47.0219 6.98874 46.9461 6.25217 46.5899 5.56509C45.8658 4.16795 44.4291 3.43056 42.9581 3.72512C41.6332 3.99042 40.312 4.27395 38.9888 4.54778C35.4792 5.27416 31.9694 5.99938 28.4599 6.72555C24.7862 7.48566 21.1127 8.2466 17.4391 9.00662C14.2501 9.6664 11.0611 10.3259 7.87194 10.9843C7.14832 11.1336 6.42389 11.2693 5.78621 11.6815C4.23345 12.6851 3.40958 14.5997 3.75934 16.5018C4.34142 19.6676 4.94316 22.8299 5.53581 25.9938C6.15309 29.2893 6.76915 32.585 7.38622 35.8806C7.90804 38.6675 8.42804 41.4547 8.95383 44.2408C9.15653 45.3148 10.0251 46.039 11.0512 45.9938C11.6554 45.9673 12.2587 45.9234 12.8625 45.8874C15.0429 45.7573 17.222 45.5978 19.4041 45.5055C21.4996 45.417 23.0576 46.3378 24.0694 48.159C24.5804 49.0788 25.0733 50.0086 25.5752 50.9334C26.0052 51.7255 26.4364 52.517 26.8796 53.3319ZM26.8639 61C26.8021 60.8972 26.7533 60.8224 26.7109 60.7442C24.7554 57.1409 22.7974 53.5388 20.8486 49.9319C20.5496 49.3785 20.1247 49.1141 19.4843 49.1549C17.3131 49.2934 15.1414 49.4242 12.9692 49.5445C12.1148 49.5918 11.2479 49.702 10.4049 49.6133C7.97601 49.3577 6.36759 47.9916 5.56805 45.7309C5.28417 44.9282 5.17484 44.0619 5.01531 43.2192C4.35922 39.7531 3.7144 36.285 3.06564 32.8176C2.43385 29.4408 1.80271 26.0638 1.17055 22.6871C0.828334 20.859 0.478392 19.0324 0.142863 17.2031C-0.562378 13.3577 1.39773 9.56948 4.82342 8.05023C5.6767 7.67181 6.58646 7.51459 7.48948 7.32722C11.5735 6.47973 15.6581 5.63472 19.7427 4.78983C23.8187 3.94672 27.8951 3.10514 31.9711 2.2623C35.3654 1.56044 38.7617 0.867915 42.153 0.152359C45.3138 -0.514511 48.3294 1.06667 49.7921 3.74369C50.4877 5.01684 50.7026 6.38774 50.7398 7.81815C50.8036 10.2778 50.9232 12.7359 51.015 15.1949C51.0758 16.8205 51.1253 18.4464 51.1862 20.072C51.278 22.5226 51.3776 24.973 51.4696 27.4236C51.5302 29.0408 51.5796 30.6585 51.6402 32.2757C51.7321 34.7263 51.8362 37.1766 51.9212 39.6274C51.9599 40.744 52.0444 41.8669 51.971 42.978C51.7743 45.9526 49.5164 48.61 46.3071 48.997C46.0576 49.0271 45.804 49.034 45.5523 49.0341C41.8779 49.0364 38.2035 49.0403 34.5292 49.0318C33.7984 49.0301 33.2894 49.3246 32.939 49.9651C30.979 53.5473 29.007 57.1231 27.0387 60.7009C26.988 60.7931 26.9326 60.8828 26.8639 61Z" fill="#7157FF"/>
<path fill-rule="evenodd" clip-rule="evenodd" d="M26.8975 49.9469C27.3828 49.0692 27.836 48.2421 28.2962 47.4188C29.6473 45.0018 31.7134 43.7666 34.5003 43.7573C38.1577 43.7451 41.8151 43.7496 45.4725 43.7465C46.1464 43.7459 46.6556 43.2678 46.6834 42.5978C46.6965 42.2817 46.6961 41.9643 46.6846 41.6481C46.6037 39.4141 46.5173 37.1803 46.4347 34.9464C46.3158 31.7287 46.1976 28.5111 46.0812 25.2933C45.9915 22.8175 45.9078 20.3414 45.8166 17.8655C45.711 14.9981 45.6024 12.1308 45.4896 9.26365C45.4591 8.489 45.4331 7.71284 45.3605 6.94153C45.2742 6.02572 44.3928 5.01031 43.0829 5.30264C40.1841 5.94957 37.2688 6.52317 34.3598 7.12438C30.2753 7.96847 26.1901 8.80941 22.1056 9.65372C17.3801 10.6305 12.6549 11.6088 7.92997 12.5886C7.43726 12.6908 6.93457 12.7796 6.5279 13.1067C5.48651 13.9441 5.13946 15.0314 5.37922 16.3209C5.77252 18.4361 6.16866 20.5508 6.5647 22.6655C7.12963 25.6819 7.69617 28.6979 8.26088 31.7144C8.80712 34.6322 9.3513 37.5504 9.89775 40.4682C10.1127 41.6157 10.328 42.7632 10.5503 43.9094C10.6203 44.2701 10.7624 44.3781 11.1234 44.3567C12.8842 44.2519 14.6442 44.1342 16.4054 44.0375C17.6124 43.9711 18.8219 43.8735 20.0286 43.8938C21.792 43.9234 23.2806 44.6293 24.4766 45.9279C25.0903 46.5942 25.5119 47.3823 25.9369 48.169C26.2491 48.747 26.5614 49.3249 26.8975 49.9469Z" fill="#7157FF"/>
<path fill-rule="evenodd" clip-rule="evenodd" d="M29.582 33.2156H24.4143C24.0594 33.2156 23.7717 32.8974 23.7717 32.5048C23.7717 31.2953 23.8956 30.3132 24.1437 29.5588C24.3915 28.8044 24.761 28.1154 25.2514 27.4919C25.7418 26.8684 26.8436 25.7711 28.5575 24.1999C29.4707 23.3769 29.9273 22.6224 29.9273 21.9366C29.9273 21.2508 29.7439 20.7176 29.3777 20.3373C29.0113 19.957 28.4561 19.7668 27.712 19.7668C26.9113 19.7668 26.2491 20.0599 25.7249 20.646C25.2849 21.1378 24.9778 21.9372 24.804 23.044C24.7453 23.417 24.4339 23.6746 24.0942 23.6281L18.7927 22.9027C18.4347 22.8537 18.1829 22.4883 18.2358 22.0936C18.5491 19.757 19.3993 17.8498 20.7869 16.3719C22.3144 14.7446 24.6566 13.9309 27.8134 13.9309C30.2712 13.9309 32.2552 14.4983 33.7661 15.633C35.818 17.1668 36.8439 19.2119 36.8439 21.7683C36.8439 22.8282 36.579 23.8507 36.0491 24.8358C35.519 25.821 34.4367 27.0243 32.8022 28.4459C31.6633 29.4435 30.9445 30.2447 30.646 30.8495C30.4167 31.3138 30.2754 31.8864 30.2221 32.5675C30.1934 32.9344 29.915 33.2156 29.582 33.2156Z" fill="white"/>
<path fill-rule="evenodd" clip-rule="evenodd" d="M30.548 37.8284C30.548 39.6313 29.0043 41.0928 27.1001 41.0928C25.196 41.0928 23.6523 39.6313 23.6523 37.8284C23.6523 36.0255 25.196 34.564 27.1001 34.564C29.0043 34.564 30.548 36.0255 30.548 37.8284Z" fill="white"/>
</g>
</svg>
