<svg width="48" height="43" viewBox="0 0 48 43" fill="none" xmlns="http://www.w3.org/2000/svg">
<path fill-rule="evenodd" clip-rule="evenodd" d="M27.6817 27.0975C24.4785 30.308 21.2753 33.5187 18.0654 36.7226C15.6032 39.1745 12.523 35.215 14.5365 33.2073L22.734 25.0333L24.5316 23.2407C25.2925 22.482 24.103 21.2991 23.342 22.0546L21.5444 23.8505L15.5433 29.8343L13.3502 32.021C12.8618 32.5048 12.2238 32.7499 11.5858 32.7499C9.36948 32.7499 8.25634 30.0662 9.82477 28.5056L19.8166 18.5392C20.5775 17.7804 19.3879 16.5942 18.627 17.353L8.6352 27.3194C8.14685 27.8032 7.5087 28.0484 6.87077 28.0484C4.65445 28.0484 3.54131 25.3645 5.10962 23.804C9.46256 19.4603 13.8255 15.1265 18.1949 10.7959L21.9831 14.5731C23.9203 16.5048 27.0603 16.5048 28.9975 14.5731C30.938 12.6381 30.938 9.50702 28.9975 7.57535L25.1896 3.78157C30.4496 -1.29774 38.8464 -1.27121 44.06 3.92744C49.3133 9.16571 49.3133 17.6578 44.06 22.8927L40.1523 26.7893L39.717 26.2659L36.7364 23.2938C34.3108 20.8751 30.1073 22.8333 30.4363 26.2625C28.9776 26.1234 28.2499 26.5276 27.6817 27.0975ZM35.6731 30.2981L32.6726 27.3062C31.0045 25.3945 33.6163 22.5549 35.5469 24.4798L38.5407 27.4652C38.9261 27.8529 39.1189 28.3664 39.1189 28.8768C39.1189 30.6625 36.9424 31.5606 35.6731 30.2981ZM31.5029 28.5089L34.4868 31.4843C35.7529 32.7466 34.8523 34.9203 33.058 34.9203C32.543 34.9203 32.0247 34.7214 31.6325 34.3304L28.6486 31.3551C26.7513 29.4632 29.6421 26.6535 31.5029 28.5089ZM27.4591 32.5411L30.443 35.5133C31.7089 36.779 30.8085 38.9492 29.0141 38.9492C28.4991 38.9492 27.984 38.7538 27.5886 38.3595L24.6047 35.3873C22.7174 33.5053 25.5784 30.6758 27.4591 32.5411ZM23.4185 36.5735L26.3991 39.5456C28.2997 41.4408 25.4055 44.2472 23.5448 42.3918L20.5641 39.4197C18.7 37.5576 21.5578 34.718 23.4185 36.5735ZM18.2016 8.43353C13.4333 13.1583 8.67178 17.8798 3.92005 22.618L3.7938 22.7471C-1.31674 17.4955 -1.26023 9.11276 3.9401 3.92744C9.15344 -1.27121 17.5903 -1.31095 22.8536 3.82131L24 4.96446L27.8112 8.76163C29.0906 10.0371 29.0906 12.108 27.8112 13.3868C26.5286 14.6625 24.4519 14.6625 23.1725 13.3868C21.5145 11.7336 19.8564 10.0835 18.2016 8.43353Z" fill="#EF5B71"/>
</svg>
