<svg width="143" height="26" viewBox="0 0 143 26" fill="none" xmlns="http://www.w3.org/2000/svg">
<path fill-rule="evenodd" clip-rule="evenodd" d="M95.231 0C97.9929 0 100.448 1.12156 102.187 2.95686V3.05882L98.6066 6.01569C97.5837 5.09804 96.2539 4.48627 94.8219 4.6902C92.6738 4.89412 90.8326 6.72941 90.628 8.87059C90.1166 11.7255 92.3669 14.1725 95.231 14.1725C96.3562 14.1725 97.3791 13.7647 98.1974 13.1529L98.402 12.949L104.13 8.15686C104.335 7.95294 104.642 8.15686 104.642 8.36078C104.642 8.66667 104.744 9.07451 104.744 9.38039C104.744 15.8039 96.2539 25.2863 95.9471 25.6941C95.6402 26.102 95.0265 26.102 94.7196 25.6941C94.3104 25.2863 85.9228 15.8039 85.9228 9.38039C85.7182 4.18039 90.0143 0 95.231 0ZM134.101 0.30589C135.226 0.30589 136.351 0.407836 137.272 0.713726C138.192 1.01962 139.011 1.42745 139.727 1.93726C140.34 2.44706 140.852 3.16078 141.261 3.97647C141.568 4.79216 141.773 5.7098 141.773 6.83137C141.773 8.0549 141.466 9.17647 140.954 10.0941C140.34 11.0118 139.624 11.8275 138.602 12.3373L143 18.7608H137.579L134.203 13.5608H131.237V18.7608H126.736V0.407836C127.247 0.407836 127.759 0.407836 128.27 0.30589C128.782 0.203918 129.498 0.30589 130.112 0.203918C130.725 0.101972 131.441 0.203918 132.055 0.203918C132.873 0.30589 133.487 0.30589 134.101 0.30589ZM116.507 0.30589L124.69 18.6588H119.78L118.553 15.702H110.37L109.142 18.6588H104.232L112.416 0.30589H116.507ZM41.6316 0.407836L35.0851 9.68627L41.7339 18.6588H36.4149L32.0165 13.051L27.618 18.6588H22.299L28.9478 9.68627L22.4013 0.407836H27.9249L32.0165 6.01569L36.108 0.407836H41.6316ZM13.3999 0.407836V4.38432H4.50071V8.36078H12.1724V12.4392H4.50071V18.6588H0V0.407836H13.3999ZM20.1509 0.407836V18.6588H15.5479V0.407836H20.1509ZM48.6896 0.407836L54.7246 12.7451L60.7597 0.407836H64.7489L65.6695 18.6588H61.2711L60.6574 9.8902L56.3612 18.6588H53.088L48.6896 9.8902L48.0758 18.6588H43.6774L44.598 0.407836H48.6896ZM71.5 0.407836L76.0007 8.0549L80.6037 0.407836H85.7182L78.3534 12.8471V18.6588H73.7504V12.8471L66.3856 0.407836H71.5ZM114.359 5.7098L111.904 11.8275H116.916L114.359 5.7098ZM133.999 4.18039C133.589 4.18039 133.18 4.18039 132.669 4.18039C132.157 4.18039 131.748 4.18039 131.237 4.18039V9.58431H134.101C135.021 9.58431 135.737 9.38039 136.351 8.76863C136.965 8.25882 137.17 7.5451 137.17 6.72941C137.17 5.81176 136.863 5.09804 136.249 4.6902C135.84 4.38432 135.021 4.18039 133.999 4.18039Z" fill="white"/>
</svg>
