<svg width="29" height="29" viewBox="0 0 29 29" fill="none" xmlns="http://www.w3.org/2000/svg">
<path fill-rule="evenodd" clip-rule="evenodd" d="M5.82492 8.37371H18.5042C18.9978 8.37371 19.3976 7.97391 19.3976 7.48031C19.3976 6.98672 18.9978 6.58568 18.5042 6.58568H18.2611C18.2611 4.21027 16.9 2.15328 14.917 1.14746L14.411 4.01154C14.3716 4.23859 14.1741 4.39779 13.952 4.39779C13.9249 4.39779 13.8977 4.39532 13.8706 4.39038C13.6164 4.34596 13.4473 4.10286 13.4917 3.84868L14.068 0.57627C13.8508 0.2295 13.4671 0 13.029 0H11.2989C10.8609 0 10.4771 0.23076 10.2599 0.57627L10.8362 3.84868C10.8806 4.10288 10.7115 4.34474 10.4573 4.39038C10.4302 4.39532 10.4018 4.39779 10.3759 4.39779C10.1525 4.39779 9.95511 4.2386 9.91563 4.01154L9.41091 1.14869C7.42791 2.15439 6.06679 4.21144 6.06679 6.58691H5.82369C5.3301 6.58691 4.93029 6.98672 4.93029 7.48154C4.93153 7.97391 5.33133 8.37371 5.82492 8.37371ZM6.85159 9.27813C7.21046 13.095 9.45275 16.0356 12.165 16.0356H12.1651C14.8773 16.0356 17.1182 13.0948 17.4785 9.27813H18.2165C17.8067 13.6252 15.2537 16.9744 12.1651 16.9744C9.07525 16.9744 6.52337 13.6255 6.11368 9.27813H6.85159ZM16.4371 27.1131C16.9813 27.1131 17.4934 26.8996 17.8771 26.5146L23.552 20.8398C24.0493 21.8837 24.3294 23.051 24.3294 24.2838C24.3294 28.7077 20.7514 28.7077 16.333 28.7076H16.2998H8.02956H7.99656C3.57807 28.7077 0 28.7077 0 24.2838C0 20.0981 3.20228 16.6625 7.29035 16.2887C7.32257 17.7534 9.49189 18.9343 12.1647 18.9343C14.8376 18.9343 17.0069 17.7534 17.039 16.2887C18.4731 16.4194 19.7984 16.9291 20.9151 17.7151L14.9958 23.6345C14.6108 24.0195 14.3985 24.5303 14.3985 25.0745C14.3973 25.6187 14.6095 26.1308 14.9946 26.5158C15.3808 26.9008 15.8929 27.1131 16.4371 27.1131ZM26.225 17.5274L27.7983 15.9541L28.4351 16.5871C28.403 17.4052 28.0748 18.2123 27.4491 18.8391C26.7902 19.4968 25.9264 19.8251 25.0638 19.8251C24.6616 19.8251 24.2593 19.7535 23.878 19.6116L17.4267 26.0642C17.154 26.3369 16.7961 26.4739 16.4383 26.4739C16.0792 26.4739 15.7201 26.3369 15.4461 26.0642C14.8982 25.5163 14.9007 24.6303 15.4461 24.0849L21.8949 17.6348C21.4457 16.4341 21.7012 15.0286 22.6686 14.0636C23.293 13.4379 24.1013 13.1097 24.9194 13.0776L25.5525 13.7094L23.9791 15.2828L23.9803 16.5896L24.9207 17.5274H26.225ZM16.4346 25.7507C16.6073 25.7507 16.7801 25.6841 16.9133 25.5521C17.1762 25.2892 17.1774 24.861 16.9121 24.5982C16.7801 24.4649 16.6073 24.3983 16.4333 24.3983C16.2606 24.3983 16.0878 24.4637 15.9558 24.5957C15.6929 24.861 15.6942 25.2892 15.9558 25.5533C16.089 25.6853 16.2618 25.7507 16.4346 25.7507Z" fill="#7157FF"/>
</svg>
