<svg width="36" height="40" viewBox="0 0 36 40" fill="none" xmlns="http://www.w3.org/2000/svg">
<path d="M33.3162 36.5179C33.3162 38.441 31.7709 40 29.8647 40H6.13514C4.22889 40 2.68359 38.441 2.68359 36.5179V4.48214C2.68359 2.55898 4.22889 1 6.13514 1H20.9075C21.595 1 22.2543 1.2759 22.7399 1.7669L32.56 11.6951C33.0443 12.1847 33.3162 12.8482 33.3162 13.5398V36.5179Z" fill="#F9F8F9"/>
<path d="M8.46359 40H6.13483C4.22912 40 2.68359 38.4408 2.68359 36.5175V4.48254C2.68359 2.55922 4.22912 1 6.13483 1H8.46359C6.55789 1 5.01236 2.55922 5.01236 4.48254V36.5175C5.01236 38.4408 6.55789 40 8.46359 40Z" fill="#E3E0E4"/>
<path d="M33.3162 13.5396V14.814H24.3148C21.7438 14.814 19.6526 12.6992 19.6526 10.1003V1H20.9078C21.5948 1 22.2546 1.27622 22.7398 1.76666L32.5602 11.6948C33.0446 12.1844 33.3162 12.8483 33.3162 13.5396Z" fill="#E3E0E4"/>
<path d="M33.0842 12.4598H24.3149C23.0263 12.4598 21.9814 11.4035 21.9814 10.1001V1.23608C22.2617 1.36399 22.5186 1.5429 22.7398 1.76655L32.5603 11.6947C32.7815 11.9183 32.9577 12.1773 33.0842 12.4598Z" fill="#DC4955"/>
<path d="M31.895 34.8208H4.10502C2.3902 34.8208 1 33.4155 1 31.682V20.2253C1 18.4918 2.3902 17.0864 4.10502 17.0864H31.895C33.6098 17.0864 35 18.4918 35 20.2253V31.682C35 33.4155 33.6098 34.8208 31.895 34.8208Z" fill="#DC4955"/>
<path d="M6.04566 34.8208H4.10502C2.39027 34.8208 1 33.4154 1 31.682V20.2253C1 18.4918 2.39027 17.0864 4.10502 17.0864H6.04566C4.33091 17.0864 2.94064 18.4918 2.94064 20.2253V31.682C2.94064 33.4154 4.33091 34.8208 6.04566 34.8208Z" fill="#C42430"/>
<path d="M34.2763 16.6138V13.0705C34.2763 12.2205 33.9393 11.4212 33.3276 10.8196L23.2742 0.935234C22.6608 0.332109 21.8449 0 20.9767 0H5.8533C3.57624 0 1.72371 1.81805 1.72371 4.05273V11.1042C1.72371 11.4279 1.99057 11.6902 2.31974 11.6902C2.6489 11.6902 2.91576 11.4279 2.91576 11.1042V4.05273C2.91576 2.46422 4.23354 1.17188 5.8533 1.17188H20.9767C21.1471 1.17188 21.3163 1.19328 21.4801 1.23422V6.46383C21.4801 6.7875 21.7469 7.04977 22.0761 7.04977C22.4053 7.04977 22.6721 6.7875 22.6721 6.46383V2.0007L32.2414 11.4091H24.465C23.4765 11.4091 22.6721 10.6183 22.6721 9.64617V9.19828C22.6721 8.87461 22.4053 8.61234 22.0761 8.61234C21.7469 8.61234 21.4801 8.87461 21.4801 9.19828V9.64617C21.4801 11.2645 22.8192 12.581 24.465 12.581H33.0234C33.0636 12.7392 33.0842 12.9033 33.0842 13.0705V16.1138C32.8081 16.0502 32.5207 16.0156 32.2252 16.0156H30.0964C29.7672 16.0156 29.5004 16.2779 29.5004 16.6016C29.5004 16.9252 29.7672 17.1875 30.0964 17.1875H32.2252C33.6493 17.1875 34.8079 18.3265 34.8079 19.7266V31.1328C34.8079 32.5329 33.6493 33.6719 32.2252 33.6719H17.5564C17.2272 33.6719 16.9604 33.9341 16.9604 34.2578C16.9604 34.5815 17.2272 34.8438 17.5564 34.8438H32.2252C32.5207 34.8438 32.8081 34.8091 33.0842 34.7456V35.9473C33.0842 37.5358 31.7665 38.8281 30.1467 38.8281H5.8533C4.23354 38.8281 2.91576 37.5358 2.91576 35.9473V34.7456C3.19192 34.8091 3.47928 34.8438 3.77483 34.8438H14.7749C15.1041 34.8438 15.371 34.5815 15.371 34.2578C15.371 33.9341 15.1041 33.6719 14.7749 33.6719H3.77483C2.35073 33.6719 1.19205 32.5329 1.19205 31.1328V19.7266C1.19205 18.3265 2.35073 17.1875 3.77483 17.1875H27.3149C27.6441 17.1875 27.911 16.9252 27.911 16.6016C27.911 16.2779 27.6441 16.0156 27.3149 16.0156H3.77483C3.47928 16.0156 3.19192 16.0502 2.91576 16.1138V13.8386C2.91576 13.5149 2.6489 13.2527 2.31974 13.2527C1.99057 13.2527 1.72371 13.5149 1.72371 13.8386V16.6138C0.687338 17.2759 0 18.4235 0 19.7266V31.1328C0 32.4359 0.687338 33.5834 1.72371 34.2457V35.9473C1.72371 38.182 3.57624 40 5.8533 40H30.1467C32.4238 40 34.2763 38.182 34.2763 35.9473V34.2457C35.3127 33.5834 36 32.4359 36 31.1328V19.7266C36 18.4235 35.3127 17.2759 34.2763 16.6138Z" fill="black"/>
<path d="M28.1883 21.5955C28.5174 21.5955 28.7843 21.3332 28.7843 21.0095C28.7843 20.6858 28.5174 20.4236 28.1883 20.4236H24.5435C24.2144 20.4236 23.9475 20.6858 23.9475 21.0095V29.85C23.9475 30.1737 24.2144 30.4359 24.5435 30.4359C24.8727 30.4359 25.1396 30.1737 25.1396 29.85V25.932H27.8988C28.2279 25.932 28.4948 25.6698 28.4948 25.3461C28.4948 25.0224 28.2279 24.7601 27.8988 24.7601H25.1396V21.5955H28.1883Z" fill="black"/>
<path fill-rule="evenodd" clip-rule="evenodd" d="M15.7423 30.3368C15.3414 30.3473 15.1107 29.9697 15.1262 29.6105V21.1175C15.1149 20.7995 15.3986 20.5162 15.7222 20.5226H18.212C20.692 20.5226 22.3582 22.4946 22.3582 25.4297C22.3582 26.7351 21.9811 27.9379 21.2964 28.8163C20.5579 29.7639 19.4922 30.2971 18.2953 30.3177C17.6151 30.3293 15.9455 30.336 15.7572 30.3367L15.7423 30.3368ZM21.1661 25.4297C21.1661 23.6239 20.3901 21.6944 18.212 21.6944V21.6945H16.3194C16.3212 22.6951 16.3246 24.6933 16.3246 25.4201C16.3246 26.2897 16.3307 28.1957 16.334 29.1621C16.9336 29.159 17.8309 29.1535 18.2745 29.1459C19.977 29.1166 21.1661 27.5885 21.1661 25.4297Z" fill="black"/>
<path fill-rule="evenodd" clip-rule="evenodd" d="M7.21566 20.9769C7.21017 20.6626 7.49126 20.3846 7.81168 20.391V20.3909H10.3341C12.1001 20.3909 13.5367 21.7812 13.5367 23.49C13.5367 25.1989 12.1001 26.5891 10.3341 26.5891C9.89205 26.5891 8.99841 26.5936 8.40771 26.5969V29.8825C8.40771 30.2062 8.14085 30.4685 7.81168 30.4685C7.48252 30.4685 7.21566 30.2062 7.21566 29.8825V20.9769ZM10.3341 25.4173C11.424 25.4173 12.3447 24.5347 12.3447 23.4901C12.3447 22.4454 11.4239 21.5629 10.3341 21.5629H8.40954C8.41136 22.1827 8.41399 23.1196 8.41399 23.4901C8.41399 23.9305 8.41852 24.8284 8.42185 25.425C9.01399 25.4218 9.89483 25.4173 10.3341 25.4173Z" fill="black"/>
</svg>
