<svg width="36" height="38" viewBox="0 0 36 38" fill="none" xmlns="http://www.w3.org/2000/svg">
<path fill-rule="evenodd" clip-rule="evenodd" d="M34.5241 20.7819C33.7829 19.7032 33.7829 18.2968 34.5241 17.2181L35.4496 15.9051C36.6065 14.2166 35.8653 11.8725 33.9221 11.1691L32.3946 10.6527C31.1907 10.2315 30.3592 9.05945 30.3122 7.74639L30.2652 6.10555C30.2182 4.04353 28.2298 2.58944 26.2847 3.19927L24.7572 3.6681C23.5081 4.0435 22.165 3.62048 21.4257 2.54369L20.4531 1.23063C19.204 -0.41021 16.798 -0.41021 15.5469 1.23063L14.5744 2.54369C13.788 3.5747 12.4449 4.04353 11.2428 3.6681L9.71535 3.19927C7.77211 2.58944 5.78186 4.04353 5.73484 6.10555L5.68784 7.74639C5.68784 9.05945 4.8545 10.2315 3.60541 10.6527L2.07792 11.1691C0.134689 11.8247 -0.606472 14.2164 0.550436 15.9051L1.47596 17.2181C2.21712 18.2968 2.21712 19.7032 1.47596 20.7819L0.550436 22.0949C-0.606472 23.7834 0.134671 26.1275 2.07792 26.8309L3.60541 27.3473C4.80933 27.7685 5.64083 28.9405 5.68784 30.2536L5.73484 31.8944C5.78184 33.9565 7.77026 35.4106 9.71535 34.8007L11.2428 34.3319C12.4919 33.9565 13.835 34.3795 14.5744 35.4563L15.5469 36.7694C16.796 38.4102 19.202 38.4102 20.4531 36.7694L21.4257 35.4563C22.212 34.4253 23.5551 33.9565 24.7572 34.3319L26.2847 34.8007C28.2279 35.4106 30.2182 33.9565 30.2652 31.8944L30.3122 30.2536C30.3122 28.9405 31.1455 27.7685 32.3946 27.3473L33.9221 26.8309C35.8653 26.1753 36.6065 23.7836 35.4496 22.0949L34.5241 20.7819ZM22.0294 24.5782C21.4275 25.329 20.6412 25.8436 19.7156 26.078C19.2999 26.1714 19.1137 26.4058 19.1607 26.8289V28.0943C19.1607 28.4697 18.9763 28.6565 18.6057 28.6565H17.2645C16.8939 28.6565 16.7095 28.4221 16.7095 28.0467V27.1567C16.7095 26.5011 16.6625 26.4534 16.0624 26.3601C15.2291 26.219 14.4427 26.0322 13.7016 25.6568C13.0996 25.3748 13.0544 25.2356 13.2388 24.5782C13.378 24.1094 13.4702 23.6406 13.6094 23.1717C13.7938 22.6553 13.9329 22.5619 14.3957 22.8439C15.229 23.2651 16.1076 23.4995 17.0331 23.6405C17.635 23.7339 18.19 23.6405 18.7449 23.4061C19.7626 22.9373 19.9489 21.7653 19.0685 21.0144C18.7901 20.78 18.4214 20.5932 18.096 20.4522C17.2175 20.031 16.2449 19.749 15.4116 19.2326C14.0233 18.3883 13.1448 17.2639 13.2821 15.5754C13.3743 13.6526 14.486 12.4805 16.1979 11.8249C16.892 11.5429 16.9391 11.5905 16.9391 10.7939V10.0431C16.9391 9.48088 17.0312 9.38747 17.5862 9.33985H18.096C19.2999 9.33985 19.2999 9.33985 19.2999 10.5595C19.2999 11.4037 19.2999 11.4037 20.1332 11.5448C20.7804 11.6382 21.3823 11.8268 21.9843 12.107C22.3079 12.248 22.447 12.4824 22.3549 12.8578C22.2157 13.3743 22.0765 13.8888 21.8921 14.4053C21.7529 14.8741 21.5685 14.9675 21.1058 14.7331C20.1802 14.2643 19.2077 14.0775 18.1448 14.1233C17.8664 14.1233 17.5899 14.1709 17.3585 14.2643C16.48 14.6397 16.3408 15.6707 17.0801 16.2805C17.4507 16.6083 17.9135 16.797 18.3762 17.0314C19.1625 17.3592 19.9489 17.687 20.69 18.11C23.0924 19.4689 23.7414 22.4686 22.0295 24.5783L22.0294 24.5782Z" fill="white"/>
</svg>
