<svg width="37" height="35" viewBox="0 0 37 35" fill="none" xmlns="http://www.w3.org/2000/svg">
<path fill-rule="evenodd" clip-rule="evenodd" d="M36.5636 27.7077C36.1216 26.9722 35.2109 26.6691 34.4154 26.9896C34.0966 27.119 33.38 27.3368 32.5498 27.5862C31.4655 27.8845 30.4001 28.2444 29.3568 28.6658C29.3094 28.8552 29.2084 29.0273 29.068 29.163C28.6655 29.5655 27.911 29.7628 26.863 29.7517L22.0914 29.7202L22.0314 29.6633C21.9541 29.586 21.7537 29.3855 21.842 29.1677C21.9304 28.9499 22.2161 28.9625 22.325 28.9625L27.4958 29.0667V29.0651C28.2897 29.0793 28.9447 28.4448 28.9589 27.6509C28.9716 26.8554 28.3386 26.2004 27.5431 26.1878L20.8761 25.7853C20.6915 25.7853 19.7555 25.7853 16.9223 24.2622C13.835 22.6254 10.2993 23.9512 8.26004 25.0356L8.26162 24.6031C8.26162 24.4974 8.219 24.3948 8.14324 24.319C8.06748 24.2433 7.96488 24.2006 7.85756 24.2006H1.14327C0.920716 24.2006 0.740784 24.3806 0.740784 24.6031V33.6804C0.740784 33.7877 0.7834 33.8903 0.859162 33.966C0.933343 34.0418 1.03594 34.0828 1.14327 34.0828H7.84665C7.95397 34.0828 8.05657 34.0418 8.13075 33.966C8.20651 33.8903 8.24913 33.7877 8.24913 33.6804V33.0727C11.207 33.6693 17.1163 34.7537 19.7398 34.5122C22.3647 34.2691 31.9578 32.1935 35.8425 30.2142C36.2876 29.9948 36.6191 29.597 36.7564 29.1204C36.8937 28.6421 36.8242 28.1307 36.5638 27.7077L36.5636 27.7077ZM5.52803 27.4536H5.52961C5.07346 27.4536 4.66467 27.1789 4.48947 26.7591C4.31585 26.3392 4.41213 25.8547 4.73412 25.5343C5.05453 25.2123 5.53909 25.116 5.95891 25.2896C6.37877 25.4633 6.65341 25.8736 6.65341 26.3282C6.65341 26.6328 6.5303 26.9233 6.31249 27.1348C6.09467 27.3478 5.80111 27.4615 5.49648 27.4536L5.52803 27.4536Z" fill="white"/>
<path fill-rule="evenodd" clip-rule="evenodd" d="M6.55231 18.6697H35.0088C35.8942 18.6697 36.6124 19.5551 36.6124 20.2733C36.6124 21.1588 35.8943 21.877 35.0088 21.877H6.55231C5.66685 21.877 4.94867 20.9915 4.94867 20.2733C4.94867 19.3879 5.66681 18.6697 6.55231 18.6697Z" fill="white"/>
<path fill-rule="evenodd" clip-rule="evenodd" d="M33.5489 16.5108V18.0418H8.01581V16.5108C8.01581 13.3367 9.19801 10.2761 11.3319 7.92606C13.4643 5.57588 16.3969 4.10485 19.5554 3.79857C18.8925 3.30452 18.621 2.44433 18.8814 1.65988C19.1403 0.877008 19.8726 0.34668 20.6981 0.34668C21.5236 0.34668 22.256 0.877008 22.5164 1.65988C22.7753 2.44433 22.5038 3.30452 21.8409 3.79857C25.0307 4.06217 28.006 5.51585 30.1746 7.87071C32.3433 10.2256 33.5476 13.3098 33.5492 16.5108H33.5489Z" fill="white"/>
</svg>
