<svg width="32" height="39" viewBox="0 0 32 39" fill="none" xmlns="http://www.w3.org/2000/svg">
<path fill-rule="evenodd" clip-rule="evenodd" d="M2.00128 4.89046H30.4154L31.5986 0.155518H0.818115L2.00128 4.89046ZM3.18445 38.0418V7.25906H29.2322L29.23 38.0418H18.5747V30.9383H13.8397V38.0418H3.18445ZM6.73849 28.5697H11.4734V23.8347H6.73849V28.5697ZM6.73849 21.4661H11.4734V16.7312H6.73849V21.4661ZM6.73849 14.3626H11.4734V9.62766H6.73849V14.3626ZM13.842 28.5697H18.577V23.8347H13.842V28.5697ZM13.842 21.4661H18.577V16.7312H13.842V21.4661ZM13.842 14.3626H18.577V9.62766H13.842V14.3626ZM20.9456 28.5697H25.6805V23.8347H20.9456V28.5697ZM20.9456 21.4661H25.6805V16.7312H20.9456V21.4661ZM20.9456 14.3626H25.6805V9.62766H20.9456V14.3626Z" fill="#79739C"/>
</svg>
