<svg width="42" height="42" viewBox="0 0 42 42" fill="none" xmlns="http://www.w3.org/2000/svg">
<path fill-rule="evenodd" clip-rule="evenodd" d="M17.9144 2.53858C18.3247 3.91704 17.8686 5.40982 16.7599 6.31912C15.6511 7.22842 14.105 7.37686 12.8471 6.69275C11.5875 6.00862 10.8618 4.62843 11.0076 3.19709C11.1534 1.76406 12.1418 0.561269 13.5133 0.150112C15.3833 -0.412898 17.3533 0.656819 17.9146 2.53858H17.9144ZM0.0933079 21.0949C-0.257624 19.9126 0.412032 18.6672 1.58689 18.3141L9.39898 15.9649L11.1689 8.44462L11.1706 8.44292C12.0454 9.05194 13.0677 9.41195 14.1306 9.48699L12.8286 14.924L22.1376 12.1193L18.0976 8.28416L18.0959 8.28586C18.9419 7.63586 19.598 6.7709 19.9981 5.77799L25.5959 11.0853L33.408 8.7361C34.5845 8.38295 35.8221 9.05514 36.1731 10.2374L41.9067 29.541C42.2576 30.725 41.588 31.9704 40.4131 32.3235L8.60011 41.9061C7.42526 42.2593 6.18765 41.5854 5.83502 40.4031L0.0933079 21.0949ZM17.25 24.8123L19.1894 25.865L18.1434 27.8167H18.1451C17.8247 28.4667 18.0739 29.2549 18.708 29.5995C19.342 29.9424 20.1338 29.7189 20.4965 29.0928L21.5426 27.1411L23.4821 28.1937V28.192C24.1314 28.5434 24.9417 28.2995 25.2927 27.6461C25.6419 26.9926 25.3995 26.1772 24.7502 25.8257L22.8107 24.7731L23.8567 22.8214H23.8551C24.1754 22.1714 23.9262 21.3832 23.2922 21.0386C22.6581 20.694 21.8664 20.9192 21.5036 21.5453L20.4576 23.497L18.5181 22.4444C17.8722 22.1219 17.0889 22.3727 16.7465 23.0125C16.404 23.6505 16.6278 24.4473 17.25 24.8123L17.25 24.8123Z" fill="#79739C"/>
</svg>
