<svg width="34" height="34" viewBox="0 0 34 34" fill="none" xmlns="http://www.w3.org/2000/svg">
<path fill-rule="evenodd" clip-rule="evenodd" d="M17 0C12.4918 0 8.16777 1.79108 4.97838 4.97839C1.79089 8.16738 0 12.4918 0 17C0 21.5082 1.79108 25.8322 4.97838 29.0216C8.16738 32.2091 12.4918 34 17 34C21.5082 34 25.8322 32.2089 29.0216 29.0216C32.2091 25.8326 34 21.5082 34 17C34 12.4918 32.2089 8.16778 29.0216 4.97839C25.8326 1.79089 21.5082 0 17 0ZM25.3663 21.1892C25.1599 21.5975 24.7425 21.8555 24.2856 21.8571C24.0944 21.8601 23.9077 21.813 23.7392 21.7235L16.4535 18.0806C16.0452 17.8742 15.7872 17.4568 15.7856 16.9999V6.07138C15.7856 5.40046 16.329 4.85707 16.9999 4.85707C17.6708 4.85707 18.2142 5.40046 18.2142 6.07138V16.2473L24.832 19.5623C25.4269 19.8658 25.6668 20.5929 25.3662 21.1894L25.3663 21.1892Z" fill="white"/>
</svg>
